<svg xmlns="http://www.w3.org/2000/svg" width="97" height="46.458" viewBox="0 0 97 46.458">
  <g id="グループ_615" data-name="グループ 615" transform="translate(-55 -33.402)">
    <g id="グループ_610" data-name="グループ 610" transform="translate(55 34.236)">
      <path id="パス_626" data-name="パス 626" d="M30.759,33.57,23.022,11.484,16.035,33.356l-1.874.187L3.775,4.631C2.811,2.543,1.553,1.472,0,1.472V0H12.421V1.472a6.313,6.313,0,0,0-3,.482,1.564,1.564,0,0,0-.776,1.419,1.692,1.692,0,0,0,.134.562c.08.214.161.455.268.723l7.121,21.175L22.059,8.272,20.131,3.159A2.128,2.128,0,0,0,18.98,1.9a5.756,5.756,0,0,0-2.436-.428V0H29.367V1.472c-2.436,0-3.668.669-3.668,2.035a2.107,2.107,0,0,0,.107.589l7.174,21.737,6-19.248A4.9,4.9,0,0,0,39.272,5.3c.027-.4.054-.8.054-1.178,0-1.74-1.365-2.623-4.123-2.623V0H45.938V1.472q-3.012,0-4.5,4.9L32.579,33.356Z"/>
    </g>
    <g id="グループ_611" data-name="グループ 611" transform="translate(88.56 34.336)">
      <path id="パス_627" data-name="パス 627" d="M171.419,36.236l8.509,20.106c.61,1.472,2.118,2.19,4.524,2.19v2.046H175.3L167.326,40.4,151.6,79.176h-2.8L166.213,36.2h5.206Z" transform="translate(-148.8 -36.2)"/>
    </g>
    <rect id="長方形_1651" data-name="長方形 1651" width="20.213" height="2.046" transform="translate(70.968 75.265)"/>
    <g id="グループ_612" data-name="グループ 612" transform="translate(105.326 64.314)">
      <path id="パス_628" data-name="パス 628" d="M204.153,124.547a6.087,6.087,0,0,0-1.508-2.908,3.526,3.526,0,0,0-2.585-1.077,2.881,2.881,0,0,0-2.046.682,2.133,2.133,0,0,0-.754,1.687,2.013,2.013,0,0,0,.539,1.4,4.692,4.692,0,0,0,1.652,1.077q1.346.592,2.477.969a9.4,9.4,0,0,1,1.9.9,3.794,3.794,0,0,1,1.221,1.293,4.434,4.434,0,0,1,.431,2.118,4.907,4.907,0,0,1-.251,1.616,4.321,4.321,0,0,1-.79,1.436,4.2,4.2,0,0,1-1.4,1.041,5.128,5.128,0,0,1-2.082.395,7.5,7.5,0,0,1-1.364-.108,9.174,9.174,0,0,1-.969-.251,3.132,3.132,0,0,1-.61-.323,2.437,2.437,0,0,0-.323-.215c-.287.215-.574.395-.862.574a2.936,2.936,0,0,1-.862.359c-.18-1.149-.287-2.118-.359-3.016-.072-.862-.108-1.652-.108-2.3h.754a4.241,4.241,0,0,0,.395,1.8,4.461,4.461,0,0,0,1.041,1.4,4.892,4.892,0,0,0,1.4.9,4.077,4.077,0,0,0,1.508.323,3.805,3.805,0,0,0,1.041-.144,2.964,2.964,0,0,0,1.077-.5,3.274,3.274,0,0,0,.862-.862,2.319,2.319,0,0,0,.359-1.221,2.644,2.644,0,0,0-.467-1.58,3.171,3.171,0,0,0-1.544-1.041c-.826-.287-1.616-.574-2.37-.826a9.118,9.118,0,0,1-1.975-.9,4.032,4.032,0,0,1-1.364-1.328,3.658,3.658,0,0,1-.5-2.082,4.284,4.284,0,0,1,.323-1.687,4.165,4.165,0,0,1,.9-1.293,4.7,4.7,0,0,1,1.328-.862,3.976,3.976,0,0,1,1.58-.287,3.4,3.4,0,0,1,1.651.359c.467.215.862.431,1.257.61a4.38,4.38,0,0,1,1.436-.79,10.291,10.291,0,0,1,.431,2.19c.072.754.144,1.616.144,2.477Z" transform="translate(-195.5 -119.7)"/>
      <path id="パス_629" data-name="パス 629" d="M232.167,145.181a4.921,4.921,0,0,1-1.939-.395,4.376,4.376,0,0,1-1.472-1.041,4.8,4.8,0,0,1-.933-1.544,5.371,5.371,0,0,1-.323-1.867,5.706,5.706,0,0,1,.395-2.118,4.646,4.646,0,0,1,1.041-1.616,4.924,4.924,0,0,1,1.508-1.041,4.812,4.812,0,0,1,3.734.036,4.416,4.416,0,0,1,2.405,2.585,5.371,5.371,0,0,1,.323,1.867,5.569,5.569,0,0,1-.395,2.118,4.648,4.648,0,0,1-1.041,1.616,4.277,4.277,0,0,1-1.508,1.005A3.961,3.961,0,0,1,232.167,145.181Zm.072-.754a2.2,2.2,0,0,0,1.364-.395,2.709,2.709,0,0,0,.754-.933,4.037,4.037,0,0,0,.359-1.113c.036-.395.072-.718.072-.969,0-.5-.036-1.041-.072-1.616a7.583,7.583,0,0,0-.359-1.616,3.418,3.418,0,0,0-.79-1.257,1.871,1.871,0,0,0-1.4-.5,2.242,2.242,0,0,0-1.4.395,2.45,2.45,0,0,0-.79.933,4.038,4.038,0,0,0-.359,1.113c-.036.395-.072.718-.072.969,0,.5.036,1.041.072,1.616a7.583,7.583,0,0,0,.359,1.616,3.076,3.076,0,0,0,.826,1.257A2.185,2.185,0,0,0,232.239,144.427Z" transform="translate(-216.011 -129.635)"/>
      <path id="パス_630" data-name="パス 630" d="M262.691,144.786V144.1c.969,0,1.436-.323,1.436-.933v-3.662c0-2.046-.718-3.052-2.19-3.052-1.508,0-2.226.9-2.226,2.729v3.985c0,.61.539.933,1.616.933v.682h-4.739V144.1c.826,0,1.257-.359,1.257-1.041v-5.709c0-.539-.395-.79-1.221-.79H256.3v-.574l3.231-.79c.072.072.072.215.072.431v1.328a3.648,3.648,0,0,1,.467-.646,3.608,3.608,0,0,1,.682-.574,3.915,3.915,0,0,1,.969-.395,4.479,4.479,0,0,1,1.257-.144,3.507,3.507,0,0,1,.934.18,2.585,2.585,0,0,1,.969.539,3.313,3.313,0,0,1,.79.934,2.881,2.881,0,0,1,.323,1.4v4.955c0,.574.467.862,1.436.862v.682h-4.739Z" transform="translate(-234.471 -129.635)"/>
    </g>
    <g id="グループ_613" data-name="グループ 613" transform="translate(122.488 33.402)">
      <path id="パス_631" data-name="パス 631" d="M252.2,57.9a1.6,1.6,0,0,1-1.759,1.149,1.55,1.55,0,0,1-1.58-1.4,4.93,4.93,0,0,1-3.339,1.4,2.492,2.492,0,0,1-1.687-.5A2.016,2.016,0,0,1,243.3,57c0-1.8,1.8-3.016,5.421-3.662V52.48c0-1.436-.539-2.154-1.652-2.154a2.809,2.809,0,0,0-1.257.251.9.9,0,0,0-.539.933.566.566,0,0,1,.18.287,1.289,1.289,0,0,1,.072.395c0,.539-.323.826-1.005.826a.865.865,0,0,1-.646-.251.912.912,0,0,1-.251-.754,1.737,1.737,0,0,1,.323-.969,2.759,2.759,0,0,1,.79-.79,4.859,4.859,0,0,1,1.149-.539,4.12,4.12,0,0,1,1.328-.215,3.782,3.782,0,0,1,2.585.682,2.909,2.909,0,0,1,.754,2.262v4.739c0,.539.251.79.754.79a1.073,1.073,0,0,0,.682-.251ZM248.793,54.1a7.891,7.891,0,0,0-1.328.215,4.294,4.294,0,0,0-1.185.467,2.093,2.093,0,0,0-.826.754,1.97,1.97,0,0,0-.323,1.149,1.238,1.238,0,0,0,1.4,1.4,2.652,2.652,0,0,0,1.005-.18,1.32,1.32,0,0,0,.646-.5,2.6,2.6,0,0,0,.395-.682,2.984,2.984,0,0,0,.215-.754Z" transform="translate(-243.3 -43.791)"/>
      <path id="パス_632" data-name="パス 632" d="M279.76,48.464a8.943,8.943,0,0,1-1.113.18c-.5.036-1.185.144-1.939.251l-.251-1.4a2.944,2.944,0,0,1-1.149,1.149,3.372,3.372,0,0,1-1.687.431,4.525,4.525,0,0,1-1.544-.287,3.786,3.786,0,0,1-1.292-.826,3.736,3.736,0,0,1-.862-1.436,5.83,5.83,0,0,1-.323-2.046,5.585,5.585,0,0,1,.359-2.046,4.469,4.469,0,0,1,.969-1.652,4.2,4.2,0,0,1,1.436-1.077,4.533,4.533,0,0,1,1.831-.395,2.739,2.739,0,0,1,1.364.323,3.093,3.093,0,0,1,.9.682v-4.7c0-.5-.574-.754-1.687-.754v-.682l3.483-.574c.036.539.036,1.149.072,1.867,0,.718.036,1.472.036,2.262v8.222c0,1.221.5,1.867,1.508,1.9Zm-5.493-.5a2.181,2.181,0,0,0,1.149-.251,1.86,1.86,0,0,0,.682-.79,5.321,5.321,0,0,0,.323-1.257,11.907,11.907,0,0,0,.072-1.652c0-2.549-.826-3.806-2.477-3.806a1.933,1.933,0,0,0-1.113.323,2.887,2.887,0,0,0-.79.826,4.065,4.065,0,0,0-.467,1.149,5,5,0,0,0-.144,1.257,7.155,7.155,0,0,0,.144,1.508,5.56,5.56,0,0,0,.467,1.364,3.118,3.118,0,0,0,.826.969A2.716,2.716,0,0,0,274.267,47.961Z" transform="translate(-260.158 -33.6)"/>
      <path id="パス_633" data-name="パス 633" d="M309.6,57.9a1.6,1.6,0,0,1-1.759,1.149,1.55,1.55,0,0,1-1.58-1.4,4.93,4.93,0,0,1-3.339,1.4,2.491,2.491,0,0,1-1.687-.5A2.016,2.016,0,0,1,300.7,57c0-1.8,1.8-3.016,5.421-3.662V52.48c0-1.436-.539-2.154-1.651-2.154a2.809,2.809,0,0,0-1.257.251.9.9,0,0,0-.539.933.566.566,0,0,1,.18.287,1.292,1.292,0,0,1,.072.395c0,.539-.323.826-1.005.826a.865.865,0,0,1-.646-.251.912.912,0,0,1-.251-.754,1.737,1.737,0,0,1,.323-.969,2.758,2.758,0,0,1,.79-.79,4.86,4.86,0,0,1,1.149-.539,4.12,4.12,0,0,1,1.328-.215,3.782,3.782,0,0,1,2.585.682,2.909,2.909,0,0,1,.754,2.262v4.739c0,.539.251.79.754.79a1.073,1.073,0,0,0,.682-.251ZM306.193,54.1a7.891,7.891,0,0,0-1.328.215,4.294,4.294,0,0,0-1.185.467,2.092,2.092,0,0,0-.826.754,1.97,1.97,0,0,0-.323,1.149,1.238,1.238,0,0,0,1.4,1.4,2.652,2.652,0,0,0,1.005-.18,1.32,1.32,0,0,0,.646-.5,2.6,2.6,0,0,0,.395-.682,2.984,2.984,0,0,0,.215-.754Z" transform="translate(-280.092 -43.791)"/>
    </g>
  </g>
</svg>
