<svg xmlns="http://www.w3.org/2000/svg" xmlns:xlink="http://www.w3.org/1999/xlink" width="125.739" height="28.321" viewBox="0 0 125.739 28.321">
  <defs>
    <radialGradient id="radial-gradient" cx="0.655" cy="0.258" r="0.678" gradientTransform="translate(0)" gradientUnits="objectBoundingBox">
      <stop offset="0.005" stop-color="#fff"/>
      <stop offset="0.577" stop-color="#ce340d"/>
      <stop offset="1" stop-color="#8c141d"/>
    </radialGradient>
  </defs>
  <g id="グループ_682" data-name="グループ 682" transform="translate(-247.046 -368.9)">
    <g id="グループ_680" data-name="グループ 680" transform="translate(278.306 379.609)">
      <path id="パス_672" data-name="パス 672" d="M305.774,395.632a1.39,1.39,0,0,0,.565-.1.6.6,0,0,0,.281-.584v-4.722a.6.6,0,0,0-.258-.569,1.5,1.5,0,0,0-.588-.119v-.248h3.293v.248a1.269,1.269,0,0,0-.673.19c-.115.1-.173.329-.173.7v2.092l2.1-2.122a2.5,2.5,0,0,0,.283-.314.382.382,0,0,0,.066-.227.223.223,0,0,0-.171-.237,3.007,3.007,0,0,0-.656-.082v-.248h2.821v.248a2.368,2.368,0,0,0-1.253.43,20.867,20.867,0,0,0-1.887,1.781l2.979,3.689a.451.451,0,0,0,.187.15,1.475,1.475,0,0,0,.287.049v.246h-3.269v-.246a3.94,3.94,0,0,0,.606-.038c.109-.022.16-.078.16-.169a.367.367,0,0,0-.051-.159,1.838,1.838,0,0,0-.187-.264l-1.77-2.215-.247.247v1.908a.6.6,0,0,0,.28.58,1.421,1.421,0,0,0,.565.109v.246h-3.293Z" transform="translate(-305.774 -389.144)" fill="#8c141d"/>
      <path id="パス_673" data-name="パス 673" d="M323.828,389.286v.248a3.343,3.343,0,0,0-.649.074.2.2,0,0,0-.142.2.464.464,0,0,0,.027.146,2.779,2.779,0,0,0,.12.282l1.287,2.344,1.051-1.716a4.314,4.314,0,0,0,.21-.385,1.414,1.414,0,0,0,.164-.515.336.336,0,0,0-.2-.344,2.5,2.5,0,0,0-.609-.089v-.248h2.141v.248a1.978,1.978,0,0,0-.369.1.764.764,0,0,0-.3.277l-1.855,3.034v1.8a.956.956,0,0,0,.189.716,1.185,1.185,0,0,0,.707.175v.246h-3.375v-.246a1.113,1.113,0,0,0,.72-.187,1,1,0,0,0,.178-.7v-1.433l-1.777-3.241a1.051,1.051,0,0,0-.435-.449.843.843,0,0,0-.347-.085v-.248Z" transform="translate(-312.692 -389.144)" fill="#8c141d"/>
      <path id="パス_674" data-name="パス 674" d="M339.677,389.971a3.645,3.645,0,0,1,0,5.025,3.639,3.639,0,0,1-5-.09,3.332,3.332,0,0,1-.921-2.37,3.456,3.456,0,0,1,.964-2.518,3.642,3.642,0,0,1,4.962-.047Zm-.951,4.35a6.271,6.271,0,0,0,.219-1.837,4.718,4.718,0,0,0-.463-2.346,1.41,1.41,0,0,0-1.261-.789q-1.107,0-1.519,1.316a6.369,6.369,0,0,0-.214,1.819,6.29,6.29,0,0,0,.221,1.837,1.551,1.551,0,0,0,1.512,1.3C337.95,395.62,338.454,395.185,338.726,394.321Z" transform="translate(-318.859 -389.019)" fill="#8c141d"/>
      <path id="パス_675" data-name="パス 675" d="M348.992,389.286h5.879l.008,1.968H354.6a1.785,1.785,0,0,0-.791-1.43,2.448,2.448,0,0,0-1.1-.225v5.14a1,1,0,0,0,.188.716,1.22,1.22,0,0,0,.784.176v.246h-3.488v-.246a1.163,1.163,0,0,0,.768-.179.985.985,0,0,0,.191-.713V389.6a2.514,2.514,0,0,0-1.1.225,1.655,1.655,0,0,0-.791,1.43h-.281Z" transform="translate(-325.984 -389.144)" fill="#8c141d"/>
      <path id="パス_676" data-name="パス 676" d="M367.619,389.971a3.638,3.638,0,0,1,0,5.025,3.636,3.636,0,0,1-5-.09,3.329,3.329,0,0,1-.92-2.37,3.455,3.455,0,0,1,.963-2.518,3.639,3.639,0,0,1,4.959-.047Zm-.947,4.35a6.347,6.347,0,0,0,.218-1.837,4.7,4.7,0,0,0-.466-2.346,1.406,1.406,0,0,0-1.261-.789q-1.105,0-1.515,1.316a7.849,7.849,0,0,0,0,3.656,1.553,1.553,0,0,0,1.511,1.3Q366.26,395.62,366.672,394.321Z" transform="translate(-331.93 -389.019)" fill="#8c141d"/>
      <path id="パス_677" data-name="パス 677" d="M380.6,395.879v-.246a1.385,1.385,0,0,0,.6-.116.6.6,0,0,0,.272-.573v-4.722a.588.588,0,0,0-.282-.575,1.49,1.49,0,0,0-.588-.113v-.248h5.613v1.968h-.246a2.123,2.123,0,0,0-.628-1.291,2.723,2.723,0,0,0-1.612-.348,1.046,1.046,0,0,0-.565.094.44.44,0,0,0-.121.37v2.26a1.52,1.52,0,0,0,1.128-.3,2.329,2.329,0,0,0,.45-1.135h.247v3.286h-.247a2.065,2.065,0,0,0-.426-1.172,1.544,1.544,0,0,0-1.152-.341v2.363a.479.479,0,0,0,.158.42,1.261,1.261,0,0,0,.655.113,2.841,2.841,0,0,0,1.519-.363,2.991,2.991,0,0,0,1.046-1.358h.274l-.4,2.028Z" transform="translate(-340.773 -389.144)" fill="#8c141d"/>
      <path id="パス_678" data-name="パス 678" d="M394.1,389.286h5.88l.01,1.968h-.28a1.789,1.789,0,0,0-.793-1.43,2.448,2.448,0,0,0-1.1-.225v5.14a1.009,1.009,0,0,0,.187.716,1.228,1.228,0,0,0,.786.176v.246h-3.487v-.246a1.165,1.165,0,0,0,.768-.179.983.983,0,0,0,.19-.713V389.6a2.52,2.52,0,0,0-1.1.225,1.652,1.652,0,0,0-.792,1.43H394.1Z" transform="translate(-347.084 -389.144)" fill="#8c141d"/>
      <path id="パス_679" data-name="パス 679" d="M407.246,395.879v-.246a1.382,1.382,0,0,0,.6-.116.6.6,0,0,0,.271-.573v-4.722a.59.59,0,0,0-.28-.575,1.5,1.5,0,0,0-.588-.113v-.248h5.613v1.968h-.247a2.115,2.115,0,0,0-.628-1.291,2.722,2.722,0,0,0-1.613-.348,1.04,1.04,0,0,0-.563.094.433.433,0,0,0-.123.37v2.26a1.519,1.519,0,0,0,1.127-.3,2.316,2.316,0,0,0,.453-1.135h.245v3.286h-.245a2.091,2.091,0,0,0-.427-1.172,1.544,1.544,0,0,0-1.153-.341v2.363a.479.479,0,0,0,.159.42,1.254,1.254,0,0,0,.653.113,2.847,2.847,0,0,0,1.521-.363,3.025,3.025,0,0,0,1.046-1.358h.272l-.4,2.028Z" transform="translate(-353.235 -389.144)" fill="#8c141d"/>
      <path id="パス_680" data-name="パス 680" d="M420.6,395.632a1.1,1.1,0,0,0,.667-.187.976.976,0,0,0,.177-.7v-4.318a.94.94,0,0,0-.211-.733,1.325,1.325,0,0,0-.633-.156v-.248h3.129a4.956,4.956,0,0,1,1.577.205,1.518,1.518,0,0,1,1.169,1.493,1.487,1.487,0,0,1-.614,1.254,2.379,2.379,0,0,1-.989.438l2.069,2.777a.409.409,0,0,0,.17.149.84.84,0,0,0,.221.045v.232H425.3l-2.271-3.046h-.006v1.908a1.038,1.038,0,0,0,.169.692.983.983,0,0,0,.677.2v.246H420.6Zm3.793-3.383c.276-.17.411-.563.411-1.178a2.115,2.115,0,0,0-.156-.9,1,1,0,0,0-.991-.558.912.912,0,0,0-.513.1.4.4,0,0,0-.121.322v2.485A2.806,2.806,0,0,0,424.394,392.249Z" transform="translate(-359.481 -389.144)" fill="#8c141d"/>
      <path id="パス_681" data-name="パス 681" d="M434.932,395.632a.678.678,0,0,0,.845-.778v-4.622c-.294-.333-.474-.527-.542-.587a.519.519,0,0,0-.282-.112v-.248H437l3.35,4.078h.048V390.5a1.1,1.1,0,0,0-.18-.711,1.049,1.049,0,0,0-.718-.254v-.248h2.088v.248a1.4,1.4,0,0,0-.609.2c-.1.084-.153.277-.153.574v5.748h-.275l-4.285-5.216H436.2v3.824a1.221,1.221,0,0,0,.124.64.926.926,0,0,0,.8.326v.246h-2.191Z" transform="translate(-366.184 -389.144)" fill="#8c141d"/>
      <path id="パス_682" data-name="パス 682" d="M449.234,395.632a1.536,1.536,0,0,0,.6-.1.6.6,0,0,0,.295-.588v-4.722a.593.593,0,0,0-.281-.581,1.572,1.572,0,0,0-.61-.108v-.248h3.405v.248a1.716,1.716,0,0,0-.626.1.592.592,0,0,0-.286.584v4.722a.6.6,0,0,0,.228.55,1.328,1.328,0,0,0,.685.138v.246h-3.405Z" transform="translate(-372.873 -389.144)" fill="#8c141d"/>
      <path id="パス_683" data-name="パス 683" d="M457.645,389.286h5.879l.009,1.968h-.281a1.783,1.783,0,0,0-.791-1.43,2.446,2.446,0,0,0-1.1-.225v5.14a1,1,0,0,0,.188.716,1.22,1.22,0,0,0,.784.176v.246h-3.488v-.246a1.158,1.158,0,0,0,.768-.179.982.982,0,0,0,.192-.713V389.6a2.513,2.513,0,0,0-1.1.225,1.655,1.655,0,0,0-.793,1.43h-.28Z" transform="translate(-376.803 -389.144)" fill="#8c141d"/>
      <path id="パス_684" data-name="パス 684" d="M474.023,389.286v.248a3.355,3.355,0,0,0-.647.074.2.2,0,0,0-.145.2.464.464,0,0,0,.027.146c.018.052.057.145.121.282l1.289,2.344h0l1.048-1.716a3.452,3.452,0,0,0,.21-.385,1.344,1.344,0,0,0,.167-.515.336.336,0,0,0-.2-.344,2.479,2.479,0,0,0-.61-.089v-.248h2.143v.248a2.044,2.044,0,0,0-.371.1.778.778,0,0,0-.3.277l-1.855,3.034v1.8a.955.955,0,0,0,.19.716,1.186,1.186,0,0,0,.708.175v.246h-3.376v-.246a1.111,1.111,0,0,0,.721-.187,1,1,0,0,0,.178-.7v-1.433l-1.779-3.241a1.032,1.032,0,0,0-.433-.449.86.86,0,0,0-.349-.085v-.248Z" transform="translate(-382.942 -389.144)" fill="#8c141d"/>
    </g>
    <g id="グループ_681" data-name="グループ 681" transform="translate(247.046 368.9)">
      <path id="パス_685" data-name="パス 685" d="M293.99,383.325a1.334,1.334,0,1,1-1.334-1.334A1.335,1.335,0,0,1,293.99,383.325Z" transform="translate(-267.755 -375.023)" fill="url(#radial-gradient)"/>
      <path id="パス_686" data-name="パス 686" d="M264.542,385.448c-4.266,2.289-8.876,3.036-11.025,1.912a40.221,40.221,0,0,0,2.986-7.275,18.883,18.883,0,0,1,1.992-1.156c2.944-1.475,5.255-1.634,6-1.174,1.142.7.023,2.48-2.5,3.967a11.2,11.2,0,0,1-5.5,1.7c1.606.354,4.533-.4,7.07-1.9,3.063-1.806,6.738-6.55-2.546-4.373a19.513,19.513,0,0,0-4.159,1.65c.249-.985.455-1.988.608-3.008,1.251-8.281-1.689-9.787-6.663-.739a5.029,5.029,0,0,0-.6,1.689c3.292-4.648,5.25-2.868,4.429,3.327-4.1,2.563-7.825,6.24-6.228,9.089a3.248,3.248,0,0,0,2.439,1.378c-1.923,3.768-3.839,6.744-3.79,6.681a77.881,77.881,0,0,0,4.6-6.588c2.876.184,7.075-.9,10.926-2.963,3.651-1.959,8.073-5.784,8.334-7.84A20.468,20.468,0,0,1,264.542,385.448Zm-10.233-3.6a30.8,30.8,0,0,1-1.641,4.8C251.831,385.462,252.5,383.632,254.309,381.845Z" transform="translate(-247.046 -368.9)" fill="#8a141e"/>
    </g>
  </g>
</svg>
