<?xml version="1.0" encoding="utf-8"?>
<!-- Generator: Adobe Illustrator 24.2.1, SVG Export Plug-In . SVG Version: 6.00 Build 0)  -->
<svg version="1.1" id="レイヤー_1" xmlns="http://www.w3.org/2000/svg" xmlns:xlink="http://www.w3.org/1999/xlink" x="0px"
	 y="0px" viewBox="0 0 155.97 28.33" style="enable-background:new 0 0 155.97 28.33;" xml:space="preserve">
<style type="text/css">
	.st0{fill:#FFFFFF;}
	.st1{fill:#29288B;}
	.st2{fill:#B09445;}
</style>
<g>
	<path class="st0" d="M13.84,23.36c-5.09,0-9.22-4.13-9.22-9.22c0-5.09,4.13-9.22,9.22-9.22c5.09,0,9.22,4.13,9.22,9.22
		C23.06,19.23,18.93,23.36,13.84,23.36"/>
	<path class="st1" d="M13.84,23.36c-5.09,0-9.22-4.13-9.22-9.22c0-5.09,4.13-9.22,9.22-9.22c5.09,0,9.22,4.13,9.22,9.22
		C23.06,19.23,18.93,23.36,13.84,23.36 M13.84,0.58c-7.49,0-13.55,6.07-13.55,13.55c0,7.49,6.07,13.55,13.55,13.55
		S27.4,21.62,27.4,14.14C27.4,6.65,21.33,0.58,13.84,0.58z"/>
	<path class="st2" d="M0.48,14.14c0-7.37,5.99-13.36,13.36-13.36c7.37,0,13.36,5.99,13.36,13.36c0,7.37-5.99,13.36-13.36,13.36
		C6.48,27.5,0.48,21.51,0.48,14.14 M4.12,4.42c-2.6,2.6-4.03,6.05-4.03,9.72c0,3.67,1.43,7.12,4.03,9.72
		c2.6,2.6,6.05,4.03,9.72,4.03c3.67,0,7.12-1.43,9.72-4.03c2.6-2.6,4.03-6.05,4.03-9.72c0-3.67-1.43-7.12-4.03-9.72
		c-2.6-2.6-6.05-4.03-9.72-4.03C10.17,0.39,6.72,1.82,4.12,4.42z"/>
	<path class="st2" d="M13.84,23.17c-4.98,0-9.03-4.05-9.03-9.03c0-4.98,4.05-9.03,9.03-9.03c4.98,0,9.03,4.05,9.03,9.03
		C22.87,19.12,18.82,23.17,13.84,23.17 M13.84,4.72c-5.19,0-9.41,4.22-9.41,9.41c0,5.19,4.22,9.41,9.41,9.41
		c5.19,0,9.41-4.22,9.41-9.41C23.26,8.95,19.03,4.72,13.84,4.72z"/>
	<path d="M18.57,19.32c-2.18-1.58-3.59-4.01-3.88-6.66l0-0.09c0-0.27,0.1-0.52,0.3-0.71c0.19-0.19,0.44-0.29,0.71-0.29
		c0.13,0,0.25,0.02,0.37,0.07c0.24,0.1,0.43,0.28,0.54,0.52c0.13,0.29,0.31,0.58,0.51,0.85l0.09,0.12l0.11-0.1
		c0.6-0.52,1.05-1.19,1.31-1.93l0.02-0.04l-0.02-0.05c-0.26-0.74-0.71-1.41-1.3-1.93l-0.12-0.1l-0.09,0.13
		c-0.2,0.29-0.37,0.61-0.5,0.94c-0.1,0.23-0.28,0.41-0.5,0.52c-0.13,0.06-0.27,0.09-0.42,0.09c-0.55,0-1-0.45-1-1
		c0-0.1,0.01-0.19,0.04-0.29c0.07-0.24,0.23-0.44,0.45-0.57c0,0,0.06-0.04,0.06-0.04c0.2-0.11,0.39-0.25,0.57-0.39l0.11-0.09
		l-0.09-0.11c-0.52-0.6-1.19-1.05-1.94-1.3l-0.04-0.02L13.8,6.88c-0.75,0.25-1.42,0.71-1.94,1.3l-0.09,0.11l0.11,0.09
		c0.18,0.14,0.37,0.27,0.57,0.39l0.07,0.04c0.21,0.13,0.37,0.33,0.44,0.57C12.99,9.47,13,9.57,13,9.66c0,0.55-0.45,1-1,1
		c-0.14,0-0.29-0.03-0.42-0.09c-0.23-0.11-0.41-0.29-0.5-0.52c-0.13-0.33-0.29-0.65-0.5-0.94l-0.09-0.13l-0.12,0.1
		c-0.6,0.52-1.05,1.18-1.3,1.93l-0.02,0.05l0.02,0.04c0.26,0.74,0.71,1.41,1.31,1.93l0.11,0.1l0.09-0.12
		c0.2-0.27,0.37-0.55,0.51-0.85c0.11-0.23,0.3-0.42,0.54-0.52c0.12-0.05,0.24-0.07,0.37-0.07c0.27,0,0.52,0.1,0.71,0.29
		c0.19,0.19,0.3,0.44,0.3,0.71L13,12.66c-0.29,2.66-1.7,5.08-3.88,6.66l-0.33,0.24l0.67,0.02c0.78,0,1.55-0.15,2.27-0.44
		c0.08-0.03,0.16-0.07,0.24-0.11c0.04,0.08,0.08,0.15,0.13,0.23c0.43,0.71,0.99,1.31,1.66,1.79l0.08,0.06l0.08-0.06
		c0.67-0.48,1.23-1.09,1.66-1.79c0.05-0.08,0.09-0.16,0.13-0.23c0.08,0.04,0.16,0.07,0.24,0.11c0.72,0.29,1.49,0.44,2.27,0.44
		l0.67-0.02L18.57,19.32"/>
	<path class="st2" d="M18.23,19.44c-0.78,0-1.53-0.15-2.22-0.43c-0.12-0.05-0.24-0.1-0.35-0.16c-0.06,0.11-0.12,0.23-0.19,0.34
		c-0.42,0.69-0.97,1.28-1.62,1.75c-0.65-0.47-1.21-1.06-1.62-1.75c-0.07-0.11-0.13-0.22-0.19-0.34c-0.12,0.06-0.23,0.11-0.35,0.16
		c-0.69,0.28-1.44,0.43-2.22,0.43c-0.09,0-0.17,0-0.26-0.01c2.15-1.56,3.64-3.98,3.94-6.76c0,0,0,0,0,0c0-0.03,0.01-0.07,0.01-0.1
		c0-0.32-0.13-0.6-0.34-0.81c-0.21-0.21-0.49-0.33-0.8-0.33c-0.15,0-0.29,0.03-0.42,0.08c-0.27,0.11-0.49,0.32-0.62,0.59l0,0
		c-0.13,0.29-0.3,0.57-0.49,0.82c-0.57-0.5-1.01-1.14-1.27-1.87c0.25-0.73,0.69-1.37,1.26-1.87c0.2,0.28,0.36,0.59,0.48,0.92
		c0,0,0,0,0,0c0.11,0.26,0.32,0.47,0.57,0.59c0.15,0.07,0.31,0.11,0.48,0.11c0.63,0,1.14-0.51,1.14-1.14c0-0.11-0.02-0.22-0.05-0.33
		c-0.08-0.27-0.27-0.5-0.51-0.65c-0.02-0.01-0.04-0.03-0.07-0.04c-0.19-0.11-0.38-0.24-0.55-0.38c0.5-0.57,1.15-1.01,1.88-1.26
		c0.73,0.25,1.38,0.69,1.88,1.26c-0.17,0.14-0.36,0.27-0.55,0.38c-0.02,0.01-0.04,0.02-0.07,0.04c-0.24,0.14-0.42,0.37-0.51,0.65
		c-0.03,0.1-0.05,0.21-0.05,0.33c0,0.63,0.51,1.14,1.14,1.14c0.17,0,0.33-0.04,0.48-0.11c0.26-0.12,0.46-0.33,0.57-0.59c0,0,0,0,0,0
		c0.12-0.33,0.29-0.63,0.48-0.92c0.57,0.5,1.01,1.14,1.26,1.87c-0.25,0.73-0.69,1.37-1.27,1.87c-0.19-0.25-0.36-0.53-0.49-0.82l0,0
		c-0.12-0.27-0.34-0.48-0.62-0.59c-0.13-0.05-0.27-0.08-0.42-0.08c-0.31,0-0.6,0.13-0.8,0.33c-0.21,0.21-0.34,0.49-0.34,0.81
		c0,0.03,0,0.07,0.01,0.1c0,0,0,0,0,0c0.3,2.78,1.78,5.2,3.94,6.76C18.4,19.44,18.32,19.44,18.23,19.44 M19.09,19.38
		c-2.02-1.32-3.5-3.4-4.01-5.84c-0.06-0.3-0.11-0.62-0.15-0.93c0-0.01,0-0.02,0-0.03c0-0.42,0.34-0.75,0.76-0.75
		c0.3,0,0.56,0.18,0.68,0.43c0.05,0.11,0.1,0.22,0.16,0.33c0.11,0.21,0.24,0.4,0.38,0.59c0.08,0.1,0.16,0.2,0.25,0.3
		c0.1-0.08,0.21-0.16,0.3-0.24c0.49-0.43,0.9-0.95,1.18-1.55c0.1-0.2,0.18-0.41,0.24-0.62c-0.07-0.21-0.15-0.42-0.24-0.62
		c-0.29-0.6-0.69-1.13-1.19-1.56c-0.1-0.08-0.2-0.16-0.3-0.24c-0.08,0.1-0.16,0.2-0.23,0.31c-0.16,0.22-0.3,0.46-0.41,0.72
		c-0.04,0.09-0.08,0.18-0.12,0.28c0,0.01-0.01,0.02-0.01,0.03c-0.12,0.27-0.38,0.45-0.69,0.45c-0.42,0-0.75-0.34-0.75-0.75
		c0-0.27,0.14-0.51,0.35-0.64c0.02-0.01,0.04-0.03,0.07-0.04c0.11-0.07,0.23-0.13,0.33-0.21c0.09-0.06,0.19-0.13,0.28-0.2
		c0.1-0.08,0.2-0.17,0.29-0.25c-0.08-0.1-0.16-0.2-0.24-0.3c-0.43-0.49-0.95-0.89-1.54-1.17c-0.2-0.1-0.41-0.18-0.63-0.24
		c-0.22,0.07-0.43,0.15-0.63,0.24c-0.59,0.28-1.12,0.68-1.54,1.17c-0.08,0.1-0.17,0.2-0.24,0.3c0.09,0.09,0.19,0.17,0.29,0.25
		c0.09,0.07,0.18,0.14,0.28,0.2c0.11,0.07,0.22,0.14,0.33,0.21C12.35,9,12.38,9.01,12.4,9.02c0.21,0.13,0.35,0.37,0.35,0.64
		c0,0.42-0.34,0.75-0.75,0.75c-0.31,0-0.57-0.19-0.69-0.45c0-0.01-0.01-0.02-0.01-0.03c-0.04-0.09-0.08-0.18-0.12-0.28
		c-0.12-0.25-0.25-0.49-0.41-0.72c-0.07-0.11-0.15-0.21-0.23-0.31c-0.1,0.08-0.21,0.16-0.3,0.24c-0.5,0.43-0.91,0.96-1.19,1.56
		c-0.1,0.2-0.18,0.41-0.24,0.62c0.07,0.21,0.15,0.42,0.24,0.62c0.28,0.59,0.69,1.12,1.18,1.55c0.1,0.08,0.2,0.17,0.3,0.24
		c0.09-0.1,0.17-0.2,0.25-0.3c0.14-0.19,0.27-0.38,0.38-0.59c0.06-0.11,0.11-0.22,0.16-0.33C11.44,12,11.7,11.82,12,11.82
		c0.42,0,0.76,0.34,0.76,0.75c0,0.01,0,0.02,0,0.03c-0.03,0.32-0.08,0.63-0.15,0.93c-0.51,2.44-1.99,4.52-4.01,5.84
		c-0.16,0.11-0.33,0.21-0.5,0.3c0.19,0.04,0.39,0.08,0.59,0.1c0.25,0.03,0.51,0.05,0.77,0.05c0.85,0,1.67-0.17,2.41-0.48
		c0.42,0.71,0.98,1.33,1.64,1.82c0.11,0.08,0.22,0.16,0.34,0.24c0.12-0.08,0.23-0.16,0.34-0.24c0.66-0.49,1.21-1.11,1.64-1.82
		c0.74,0.31,1.56,0.48,2.41,0.48c0.26,0,0.51-0.02,0.77-0.05c0.2-0.02,0.39-0.06,0.59-0.1C19.41,19.59,19.25,19.49,19.09,19.38z"/>
	<path class="st2" d="M9.41,23.04c-0.76-0.38-1.35-0.03-1.69,0.64c-0.34,0.67-0.25,1.36,0.51,1.74c0.76,0.38,1.35,0.03,1.69-0.64
		C10.26,24.1,10.17,23.42,9.41,23.04 M8.41,25.06c-0.48-0.24-0.36-0.73-0.16-1.12c0.2-0.39,0.51-0.79,0.99-0.55
		c0.48,0.24,0.36,0.73,0.16,1.12C9.2,24.91,8.89,25.31,8.41,25.06z"/>
	<path class="st2" d="M6.97,21.39c-0.27-0.29-0.85-0.59-1.2-0.23c-0.26,0.27-0.23,0.6-0.05,0.87l0,0.01
		c-0.24-0.11-0.52-0.1-0.71,0.1c-0.34,0.36-0.13,0.82,0.22,1.11l0.7,0.66l1.75-1.86L6.97,21.39 M6.23,22.79l-0.41,0.44L5.5,22.93
		c-0.17-0.16-0.19-0.31-0.05-0.46c0.14-0.15,0.3-0.13,0.47,0.03L6.23,22.79z M6.98,21.99l-0.47,0.49l-0.31-0.29
		c-0.19-0.18-0.28-0.33-0.08-0.55c0.2-0.21,0.36-0.13,0.55,0.05L6.98,21.99z"/>
	<polyline class="st2" points="3.59,21.42 2.7,19.96 3.06,19.74 3.66,20.73 4.17,20.42 3.61,19.49 3.97,19.27 4.54,20.2 5.12,19.84 
		4.49,18.82 4.85,18.59 5.77,20.09 3.59,21.42 	"/>
	<polyline class="st2" points="4.34,17.25 4.53,17.77 2.12,18.63 1.94,18.11 4.34,17.25 	"/>
	<path class="st2" d="M2.07,15.25c-0.25,0.05-0.36,0.21-0.33,0.47c0.03,0.2,0.16,0.39,0.38,0.36c0.27-0.04,0.27-0.28,0.3-0.51
		c0.05-0.4,0.08-0.98,0.59-1.05c0.63-0.08,0.92,0.44,0.99,0.98c0.08,0.58-0.1,1.02-0.74,1.08l-0.07-0.55
		c0.28-0.02,0.45-0.2,0.41-0.49c-0.03-0.22-0.13-0.5-0.4-0.46c-0.3,0.04-0.27,0.4-0.3,0.63c-0.04,0.37-0.14,0.87-0.59,0.93
		c-0.58,0.08-0.9-0.42-0.97-0.94C1.28,15.21,1.49,14.8,2,14.73L2.07,15.25"/>
	<path class="st2" d="M2.21,12c-0.26-0.02-0.4,0.1-0.44,0.36c-0.03,0.2,0.05,0.42,0.27,0.45c0.27,0.04,0.34-0.2,0.42-0.41
		c0.15-0.37,0.35-0.92,0.85-0.85c0.63,0.09,0.76,0.67,0.68,1.21c-0.08,0.58-0.37,0.95-1,0.84l0.08-0.55
		c0.28,0.06,0.49-0.07,0.53-0.35c0.03-0.22,0.01-0.51-0.26-0.55c-0.3-0.04-0.37,0.31-0.46,0.52c-0.14,0.34-0.37,0.8-0.82,0.73
		c-0.58-0.08-0.75-0.65-0.68-1.17c0.07-0.49,0.39-0.83,0.9-0.76L2.21,12"/>
	<path class="st2" d="M4.47,10.6l-0.41-0.4l0.42-0.92l0.57,0.06l0.23-0.5L2.59,8.58L2.32,9.17l1.93,1.91L4.47,10.6 M3.73,9.89
		L2.9,9.1l0-0.01l1.13,0.14L3.73,9.89z"/>
	<polyline class="st2" points="6.69,7.15 4.44,6.47 4.44,6.48 6.01,7.9 5.67,8.28 3.77,6.57 4.32,5.97 6.46,6.59 6.46,6.58 
		4.98,5.24 5.32,4.86 7.21,6.57 6.69,7.15 	"/>
	<path class="st2" d="M8.23,3.84C8.1,3.6,7.85,3.5,7.57,3.67c-0.33,0.2-0.12,0.74,0.06,1.05c0.18,0.31,0.57,0.75,0.9,0.55
		C8.81,5.1,8.84,4.83,8.7,4.61l0.5-0.3c0.31,0.56,0.04,1-0.46,1.31C8.1,5.99,7.52,5.66,7.13,5.03c-0.38-0.64-0.4-1.31,0.23-1.69
		c0.5-0.3,1.02-0.33,1.37,0.2L8.23,3.84"/>
	<polyline class="st2" points="9.61,2.3 11.26,1.83 11.37,2.24 10.25,2.56 10.41,3.13 11.46,2.84 11.57,3.24 10.53,3.54 10.71,4.19 
		11.87,3.87 11.98,4.28 10.3,4.75 9.61,2.3 	"/>
	<polyline class="st2" points="16.41,1.83 18.06,2.29 17.94,2.7 16.82,2.38 16.66,2.96 17.71,3.25 17.59,3.66 16.55,3.37 
		16.36,4.02 17.52,4.35 17.4,4.76 15.72,4.28 16.41,1.83 	"/>
	<polyline class="st2" points="19.45,2.87 21.22,3.94 21,4.3 20.35,3.9 19.24,5.72 18.78,5.44 19.88,3.62 19.23,3.23 19.45,2.87 	
		"/>
	<path class="st2" d="M22.35,8.89L23.2,8.4l0.2,0.35c0.3,0.48,0.72,0.6,1.12,0.37c0.56-0.32,0.44-0.8,0.16-1.29l-0.39-0.68
		l-2.21,1.28L22.35,8.89 M24.19,7.82c0.14,0.27,0.43,0.56,0.04,0.79c-0.39,0.23-0.5-0.17-0.66-0.43L24.19,7.82z"/>
	<path class="st2" d="M26.37,12.85l-1.57,0.3c-0.67,0.13-1.08-0.29-1.2-0.9c-0.12-0.61,0.11-1.15,0.78-1.28l1.57-0.3l0.1,0.54
		l-1.36,0.26c-0.42,0.08-0.8,0.18-0.7,0.7c0.1,0.53,0.49,0.47,0.91,0.39l1.36-0.26L26.37,12.85"/>
	<path class="st2" d="M24.8,15.36l-0.09,0.57c-0.03,0.18-0.23,0.18-0.37,0.18c-0.23-0.01-0.46-0.02-0.69-0.01l-0.09,0.6
		c0.15-0.08,0.46-0.06,0.62-0.06c0.36,0.01,0.61,0.04,0.72-0.36l0.01,0c0.02,0.32,0.2,0.57,0.53,0.62c0.51,0.08,0.72-0.35,0.79-0.78
		l0.16-1.07l-2.52-0.38l-0.08,0.54L24.8,15.36 M25.89,15.52l-0.07,0.45c-0.04,0.24-0.15,0.36-0.38,0.33
		c-0.22-0.03-0.32-0.19-0.29-0.43l0.07-0.45L25.89,15.52z"/>
	<polyline class="st2" points="25.46,18.95 24.7,20.48 24.32,20.29 24.84,19.25 24.31,18.98 23.82,19.96 23.44,19.77 23.93,18.79 
		23.32,18.49 22.78,19.56 22.4,19.37 23.18,17.81 25.46,18.95 	"/>
	<polyline class="st2" points="23.6,22.09 22.16,23.58 21.86,23.29 22.38,22.74 20.85,21.26 21.23,20.87 22.76,22.35 23.29,21.8 
		23.6,22.09 	"/>
	<polyline class="st2" points="20.63,24.73 19.13,25.55 18.92,25.18 19.94,24.62 19.65,24.09 18.7,24.62 18.5,24.25 19.45,23.72 
		19.12,23.12 18.07,23.7 17.87,23.33 19.4,22.49 20.63,24.73 	"/>
</g>
<path d="M60.25,12.57c-0.32,0-0.63,0.01-0.93,0.01v0.72c1.66,0,3.41-0.14,4.83-0.35v0.49h1.31V7.87h0.51V7.15h-6.71v0.72h1V12.57z
	 M61.55,7.87h2.6v1.01h-2.6V7.87z M61.55,9.49h2.6v1.03h-2.6V9.49z M61.55,11.13h2.6v1.14c-0.76,0.14-1.66,0.21-2.6,0.25V11.13z
	 M66.34,16.54h4.36v-0.66h-4.36v-1.21c1.45-0.08,2.9-0.18,4.36-0.35v-0.88c-3.52,0.47-6.7,0.6-10.27,0.61v0.77
	c1.5-0.01,2.95-0.03,4.39-0.08v1.14h-4.39v0.66h4.39v1.38h-5.55v0.77h12.75v-0.77h-5.68V16.54z M67.25,12.75h4.13V8.25
	c0-0.4-0.33-0.73-0.73-0.73h-4.13v4.5C66.52,12.42,66.85,12.75,67.25,12.75z M67.83,8.29h2.01c0.13,0,0.24,0.11,0.24,0.24v3.45
	h-2.01c-0.13,0-0.24-0.11-0.24-0.24V8.29z M79.69,8.87h-1.28v2.12h1.52V9.11C79.93,8.98,79.82,8.87,79.69,8.87z M79.93,13.56
	c0-0.13-0.11-0.24-0.24-0.24h-1.28v1.99h1.52V13.56z M84.23,7.88c0-0.4-0.33-0.73-0.73-0.73h-8.78v0.33c0,0.96-0.04,2.54-0.17,4.22
	h-1.59v0.77h1.53c-0.11,1.32-0.28,2.65-0.51,3.79c-0.1,0.48,0.24,0.88,0.73,0.88h7.36c-0.19,0.93-0.38,1.23-0.98,1.23h-1.36v0.77
	h2.11c1.29,0,1.66-1.14,1.82-2h1.53v-0.77c0,0-0.56,0-1.41,0c0.12-0.86,0.25-2.11,0.34-3.9h1.43v-0.77h-1.4
	C84.2,10.62,84.23,9.35,84.23,7.88z M82.21,16.38h-6.47c-0.12,0-0.2-0.1-0.19-0.22c0.22-1.04,0.38-2.36,0.51-3.68h6.5
	C82.47,14.3,82.33,15.53,82.21,16.38z M82.59,11.71h-6.47c0.11-1.42,0.17-2.79,0.18-3.78h6.13c0.13,0,0.23,0.1,0.24,0.23
	C82.65,9.52,82.63,10.69,82.59,11.71z M130.55,9.46h8.88c0.13,0,0.24,0.11,0.24,0.24c0,0.65,0,1.98,0,1.98h1.41V9.73
	c0-0.58-0.47-1.04-1.04-1.04h-1.53c0.49-0.55,0.95-1.13,1.29-1.85c0.03-0.11-0.03-0.19-0.15-0.19h-1.13
	c-0.37,0.8-0.75,1.43-1.26,2.04h-1.17c-0.25-0.66-0.56-1.29-0.87-1.82c-0.08-0.12-0.24-0.22-0.37-0.22h-1.19
	c0.5,0.7,0.93,1.34,1.28,2.04h-2.22c-0.25-0.65-0.56-1.28-0.87-1.82c-0.08-0.12-0.24-0.22-0.37-0.22h-1.19
	c0.56,0.75,0.97,1.38,1.27,2.04h-2.43v2.99h1.41C130.55,11.68,130.55,9.95,130.55,9.46z M135.47,13.71
	c1.43-0.53,3.12-1.47,3.12-2.13c0-0.28-0.23-0.56-0.55-0.56h-6.62v0.66h5c-0.51,0.49-1.62,1.27-2.15,1.56
	c-0.36,0.2-0.48,0.5-0.33,0.82c0.03,0.06,0.08,0.18,0.15,0.33h-5.42v0.77h5.72c0.25,0.71,0.5,1.65,0.5,2.57
	c0,0.51-0.33,0.69-1.05,0.69h-1.59v0.77h2.29c1.05,0,1.8-0.51,1.97-1.33c0.12-0.59-0.11-1.67-0.45-2.7h5.46v-0.77h-5.74
	C135.67,14.14,135.57,13.91,135.47,13.71z M93.62,13.71c1.43-0.53,3.12-1.47,3.12-2.13c0-0.28-0.23-0.56-0.55-0.56h-6.62v0.66h5
	c-0.51,0.49-1.62,1.27-2.16,1.56c-0.36,0.2-0.48,0.5-0.33,0.82c0.03,0.06,0.08,0.18,0.15,0.33h-5.42v0.77h5.72
	c0.25,0.71,0.5,1.65,0.5,2.57c0,0.51-0.33,0.69-1.05,0.69h-1.59v0.77h2.29c1.05,0,1.8-0.51,1.97-1.33c0.12-0.59-0.11-1.67-0.45-2.7
	h5.46v-0.77h-5.74C93.82,14.14,93.72,13.91,93.62,13.71z M88.7,9.46h8.88c0.13,0,0.24,0.11,0.24,0.24c0,0.65,0,1.98,0,1.98h1.42
	V9.73c0-0.58-0.47-1.04-1.04-1.04h-1.53c0.49-0.55,0.95-1.13,1.29-1.85c0.03-0.11-0.03-0.19-0.15-0.19h-1.13
	c-0.36,0.8-0.75,1.43-1.26,2.04h-1.17C94,8.03,93.69,7.4,93.38,6.87c-0.08-0.12-0.24-0.22-0.37-0.22h-1.19
	c0.5,0.7,0.93,1.34,1.28,2.04h-2.22C90.63,8.03,90.32,7.41,90,6.87c-0.08-0.12-0.24-0.22-0.37-0.22h-1.19
	C89,7.4,89.41,8.03,89.71,8.69h-2.43v2.99h1.41C88.7,11.68,88.7,9.95,88.7,9.46z M111.34,11.33v-0.77h-4.29v0.77H111.34z
	 M105.27,13.78h1.9c-0.02,1.01-0.26,3.63-2.6,4.66v0.72c3.21-1.13,4.03-3.77,4.07-5.38h0.97v3.88c0,0.86,0.46,1.31,1.34,1.31h0.9
	c0.74,0,1.39-0.51,1.39-1.21v-1.63h-1.31v1.63c0,0.34-0.12,0.55-0.37,0.55h-0.22c-0.25,0-0.42-0.16-0.42-0.65v-3.88h2.53v-0.72
	h-8.18V13.78z M106.69,8.89h4.78c0.13,0,0.24,0.11,0.24,0.24c0,0,0,0,0,0c0,0.62,0,1.78,0,1.78h1.31V9.27
	c0-0.58-0.47-1.04-1.05-1.04h-2.23V6.87c0-0.13-0.11-0.24-0.24-0.24h-1.07v1.59h-3.04v2.68h1.31
	C106.69,10.91,106.69,9.38,106.69,8.89z M105.08,14.67c0-1.18-0.96-2.42-1.58-3.39c0.63-0.74,1.3-1.77,1.62-3.43
	c0.03-0.38-0.23-0.69-0.62-0.69h-3.22v11.99h1.31v-2.77h0.51C103.5,16.38,105.08,16.17,105.08,14.67z M103.1,15.72h-0.51V7.83h1.21
	c-0.23,1.77-0.49,2.46-0.86,3.17c-0.11,0.22-0.12,0.38,0,0.53c0.57,0.93,0.78,2.01,0.78,3.14C103.72,15.66,103.28,15.72,103.1,15.72
	z M153.65,12.2h1.45c-0.59-0.71-0.96-1.27-1.29-1.87c-0.07-0.12-0.22-0.22-0.34-0.22h-1.37C152.51,10.94,153.08,11.71,153.65,12.2z
	 M150.46,10.31c0.05-0.12-0.01-0.21-0.13-0.21h-1.35c-0.28,0.6-0.85,1.28-1.39,1.7v0.79C149.16,12.02,150.01,11.12,150.46,10.31z
	 M151.9,8.16V6.89c0,0,0,0,0,0c0-0.13-0.11-0.24-0.24-0.24h-1.07v1.51h-3.2v0.72h8.01V8.16H151.9z M145.84,6.88
	C145.84,6.88,145.84,6.88,145.84,6.88c0-0.13-0.11-0.24-0.24-0.24h-1.07v2.64h-1.93v0.77h1.9c-0.29,2.05-0.83,3.65-1.83,5.1v1.13
	c0.62-0.59,1.31-1.48,1.85-2.54v5.41h1.31v-6.29c0.4,0.82,0.87,1.54,1.4,2.02v-1.52c0-0.13-0.11-0.36-0.24-0.51
	c-0.45-0.55-0.84-1.19-1.16-1.93v-0.87h1.42V9.29h-1.42V6.88z M155.01,17.75c-1.14-0.4-2.12-0.89-2.96-1.55
	c0.85-0.92,1.48-1.98,1.9-3.14c0.03-0.12-0.04-0.21-0.16-0.21h-1.39c-0.3,0.94-0.68,1.79-1.19,2.56c-0.56-0.63-1.01-1.39-1.35-2.32
	c0,0,0,0,0,0c-0.05-0.13-0.19-0.23-0.32-0.23c0,0-0.01,0-0.01,0h-0.98c0.42,1.27,1.1,2.43,2,3.41c-0.8,0.87-1.84,1.57-3.26,2.07
	v0.77c1.62-0.52,2.93-1.24,3.97-2.12c1.09,0.98,2.43,1.73,3.98,2.15v-1.05C155.22,17.94,155.13,17.81,155.01,17.75z M121.54,6.51
	h-1.28v11.25c0,0.22-0.05,0.62-0.53,0.62h-2.33v0.77h2.92c0.97,0,1.46-0.56,1.46-1.39V6.75c0,0,0,0,0,0
	C121.78,6.62,121.67,6.51,121.54,6.51z M118.11,9.28h-1.45c-0.18,2.41-0.52,4.64-1.94,6.05v1.17c2.39-1.27,3.3-4.31,3.6-7
	C118.33,9.38,118.24,9.28,118.11,9.28z M125.01,9.28h-1.35c0.49,2.8,1.53,5.29,2.44,6.87h1.43c-1-1.85-1.73-3.87-2.25-6.65
	C125.26,9.38,125.14,9.28,125.01,9.28z M34.26,15.15h-1.3c-0.23,1.26-0.9,2.36-2.08,2.94v0.94c1.46-0.32,3.44-2.11,3.59-3.66
	C34.49,15.24,34.38,15.15,34.26,15.15z M41.07,15.15h-1.35c0.37,1.33,1.08,2.75,2.15,3.54h1.43c-1.04-0.96-1.69-2.18-1.96-3.31
	C41.31,15.25,41.19,15.15,41.07,15.15z M57.32,7.86c0.06-0.38-0.23-0.69-0.62-0.69h-4.02v11.98h1.31v-1.31h0.96
	c1.69,0,2.57-0.57,2.57-2.07c0-1.39-1.01-2.88-2.11-3.92C56.05,11.05,57,9.52,57.32,7.86z M56.13,15.77c0,0.99-0.59,1.41-1.18,1.41
	h-0.96V7.83h1.91c-0.23,1.77-0.79,3.03-1.15,3.74c-0.12,0.22-0.12,0.38,0,0.53C55.32,13.04,56.13,14.65,56.13,15.77z M37.78,6.89
	L37.78,6.89c0-0.13-0.11-0.24-0.24-0.24h-1.28v1.47h-5.61v0.77h12.83V8.12h-5.7V6.89z M41.86,10.98c0-0.57-0.46-1.04-1.04-1.04
	h-8.61c0,0,0,3.42,0,3.42c0,0.58,0.47,1.05,1.05,1.05h3c0,1.09,0,3.14,0,3.14c0,0.78-0.23,0.92-0.6,0.92H34.6v0.72h1.64
	c1.36,0,1.54-0.88,1.54-1.64v-3.14h4.08V10.98z M40.39,13.74h-6.48c-0.13,0-0.24-0.11-0.24-0.24V10.6h6.48
	c0.13,0,0.24,0.11,0.24,0.24V13.74z M51.93,7.53h-1.3c-0.07,0.25-0.15,0.48-0.24,0.71h-1.76V6.89c0-0.13-0.11-0.24-0.24-0.24h-1.07
	v1.58h-2.28V8.9h2.28v2.11h-2.62v0.66h3.49c-1.01,0.99-2.21,1.71-3.46,2.26v0.81c0.39-0.14,0.78-0.31,1.16-0.48v3.39
	c0,0.58,0.47,1.05,1.05,1.05c0,0,4.63,0,4.63,0v-4.78c0-0.58-0.47-1.04-1.05-1.04h-2.28c0.5-0.37,0.96-0.77,1.38-1.2h2.32v-0.66
	h-1.71c0.82-0.97,1.47-2.05,1.89-3.24C52.18,7.61,52.08,7.53,51.93,7.53z M50.26,17.98h-2.82c-0.13,0-0.24-0.11-0.24-0.24v-1.78
	h3.06V17.98z M50.02,13.59c0.13,0,0.24,0.11,0.24,0.24c0,0,0,0.67,0,1.48H47.2v-1.71H50.02z M48.81,11.01h-0.17V8.9h1.49
	C49.76,9.71,49.32,10.4,48.81,11.01z"/>
</svg>
