<svg xmlns="http://www.w3.org/2000/svg" width="98.943" height="39.733" viewBox="0 0 98.943 39.733">
  <g id="グループ_680" data-name="グループ 680" transform="translate(-235 -708)">
    <path id="パス_634" data-name="パス 634" d="M6.3,36.4a6.19,6.19,0,0,1,2.9.7l.1,2a3,3,0,0,0-2.8-2,3.285,3.285,0,0,0-3.3,3.6c0,1.7.8,3.9,3.4,3.9a2.849,2.849,0,0,0,1.6-.4V42a.6.6,0,0,0-.3-.6H10a.6.6,0,0,0-.3.6v1.9c0,.3.1.5.2.5a8.81,8.81,0,0,1-3.8.9,4.361,4.361,0,0,1-4.6-4.4,4.492,4.492,0,0,1,4.8-4.5" transform="translate(234.422 702.333)"/>
    <path id="パス_635" data-name="パス 635" d="M13.6,39.7c-.9,0-1.4,1.2-1.3,2.6,0,1.5.6,2.5,1.5,2.4s1.4-1,1.3-2.6c-.1-1.3-.6-2.5-1.5-2.4m.1-.6a2.886,2.886,0,0,1,2.9,3.1,2.95,2.95,0,0,1-2.9,3.1,2.871,2.871,0,0,1-2.9-3.1,2.886,2.886,0,0,1,2.9-3.1" transform="translate(234.422 702.333)"/>
    <path id="パス_636" data-name="パス 636" d="M20.1,39.7c-.9,0-1.4,1.2-1.3,2.6,0,1.5.6,2.5,1.5,2.4s1.4-1,1.3-2.6c-.1-1.3-.6-2.5-1.5-2.4m.1-.6a2.886,2.886,0,0,1,2.9,3.1,2.95,2.95,0,0,1-2.9,3.1,2.871,2.871,0,0,1-2.9-3.1,2.886,2.886,0,0,1,2.9-3.1" transform="translate(234.422 702.333)"/>
    <path id="パス_637" data-name="パス 637" d="M27,44.5a1.9,1.9,0,0,0,.9-.3V40.3c-.2-.2-.4-.5-.8-.5-1.1,0-1.7,1.1-1.7,2.3-.1,2,1,2.4,1.6,2.4m2.3-8.1v7.9c0,.4.2.5.4.5l-1.9.5v-.7a2.393,2.393,0,0,1-1.6.7c-1.5,0-2.5-1.4-2.5-3.2A3.075,3.075,0,0,1,26.6,39a1.82,1.82,0,0,1,1.1.4V37.1c0-.4-.3-.4-.5-.5Z" transform="translate(234.422 702.333)"/>
    <path id="パス_638" data-name="パス 638" d="M40.7,37l.1,2A3.011,3.011,0,0,0,38,37a3.285,3.285,0,0,0-3.3,3.6c0,1.7.9,3.9,3.4,3.9a3.011,3.011,0,0,0,2.8-2c0-.1-.1,1.8-.1,1.8a5.983,5.983,0,0,1-3.1.8,4.418,4.418,0,0,1-4.6-4.4,4.492,4.492,0,0,1,4.8-4.5,17.154,17.154,0,0,1,2.8.8" transform="translate(234.422 702.333)"/>
    <path id="パス_639" data-name="パス 639" d="M44.4,39.7c-.9,0-1.4,1.2-1.3,2.6,0,1.5.6,2.5,1.5,2.4s1.4-1,1.3-2.6c0-1.3-.5-2.5-1.5-2.4m.1-.6a2.886,2.886,0,0,1,2.9,3.1,2.95,2.95,0,0,1-2.9,3.1,2.871,2.871,0,0,1-2.9-3.1,2.886,2.886,0,0,1,2.9-3.1" transform="translate(234.422 702.333)"/>
    <path id="パス_640" data-name="パス 640" d="M51.8,36.7v1.4c-.1-.5-.4-1.1-.8-1.1-.8,0-.8,1-.8,1.4v1h1.5V40H50.2v4.7a.462.462,0,0,0,.3.5H48.4a.462.462,0,0,0,.3-.5V40H48v-.6h.7v-.9a1.8,1.8,0,0,1,1.9-2,1.323,1.323,0,0,1,1.2.2" transform="translate(234.422 702.333)"/>
    <path id="パス_641" data-name="パス 641" d="M55.3,36.7v1.4c-.1-.5-.4-1.1-.8-1.1-.8,0-.8,1-.8,1.4v1h1.5V40H53.7v4.7a.462.462,0,0,0,.3.5H51.9a.462.462,0,0,0,.3-.5V40h-.7v-.6h.7v-.9a1.8,1.8,0,0,1,1.9-2,1.322,1.322,0,0,1,1.2.2" transform="translate(234.422 702.333)"/>
    <path id="パス_642" data-name="パス 642" d="M58,39.7c-.8,0-1.2.7-1.3,1.6h2.4c0-1.1-.5-1.6-1.1-1.6m2.5,3.5A2.358,2.358,0,0,1,58,45.3a3.107,3.107,0,0,1,0-6.2c1.3,0,2.5.8,2.5,2.8H56.6v.3a2.061,2.061,0,0,0,1.9,2.3,2.3,2.3,0,0,0,2-1.3" transform="translate(234.422 702.333)"/>
    <path id="パス_643" data-name="パス 643" d="M64.1,39.7c-.8,0-1.2.7-1.3,1.6h2.4c0-1.1-.5-1.6-1.1-1.6m2.5,3.5a2.358,2.358,0,0,1-2.5,2.1,3.107,3.107,0,0,1,0-6.2c1.3,0,2.5.8,2.5,2.8H62.7v.3a2.061,2.061,0,0,0,1.9,2.3,2.176,2.176,0,0,0,2-1.3" transform="translate(234.422 702.333)"/>
    <path id="パス_644" data-name="パス 644" d="M72.9,39.9c1.2.6,2.4,1,2.4,2.8a2.8,2.8,0,0,1-2.9,2.7,5.918,5.918,0,0,1-2.4-.6l-.1-2.2a2.558,2.558,0,0,0,2.3,2.1,1.488,1.488,0,0,0,1.6-1.5c0-1.2-1.1-1.4-2.2-2-1.1-.7-1.6-1.3-1.6-2.3a2.543,2.543,0,0,1,2.7-2.4,4.112,4.112,0,0,1,1.9.5l.1,1.9a2.279,2.279,0,0,0-2.1-1.7,1.236,1.236,0,0,0-1.3,1.2c-.1.6.4.9,1.6,1.5" transform="translate(234.422 702.333)"/>
    <path id="パス_645" data-name="パス 645" d="M85.4,40.9v3.8a.462.462,0,0,0,.3.5H83.5a.462.462,0,0,0,.3-.5V41.3a1.078,1.078,0,0,0-1.1-1.2,1.524,1.524,0,0,0-1.1.6v4a.462.462,0,0,0,.3.5H79.8a.462.462,0,0,0,.3-.5V41.2A1,1,0,0,0,79,40.1a1.626,1.626,0,0,0-1.1.5v4.1a.462.462,0,0,0,.3.5H76.1a.462.462,0,0,0,.3-.5V40c0-.4-.2-.5-.4-.5l1.9-.3V40a2.758,2.758,0,0,1,1.8-.8,1.848,1.848,0,0,1,1.7,1.1,2.675,2.675,0,0,1,2-1.1,1.7,1.7,0,0,1,2,1.7" transform="translate(234.422 702.333)"/>
    <path id="パス_646" data-name="パス 646" d="M88.5,39.1v5.6a.462.462,0,0,0,.3.5H86.7a.462.462,0,0,0,.3-.5V40c0-.4-.2-.5-.4-.5Zm-.8-2.6a.86.86,0,0,1,.8.8.789.789,0,0,1-.8.8.8.8,0,1,1,0-1.6" transform="translate(234.422 702.333)"/>
    <path id="パス_647" data-name="パス 647" d="M91.7,36.4v8.3a.462.462,0,0,0,.3.5H89.9a.462.462,0,0,0,.3-.5V37.3c0-.4-.2-.5-.5-.5Z" transform="translate(234.422 702.333)"/>
    <path id="パス_648" data-name="パス 648" d="M95.7,39.7c-.8,0-1.2.7-1.3,1.6h2.4c0-1.1-.5-1.6-1.1-1.6m2.5,3.5a2.358,2.358,0,0,1-2.5,2.1,3.107,3.107,0,0,1,0-6.2c1.3,0,2.5.8,2.5,2.8H94.3v.3a2.061,2.061,0,0,0,1.9,2.3,2.3,2.3,0,0,0,2-1.3" transform="translate(234.422 702.333)"/>
    <path id="パス_649" data-name="パス 649" d="M34.9,21.2h0a21.021,21.021,0,0,1,3.6-10.7,22.987,22.987,0,0,1,7.9-7.3C51.3.3,58-.3,63,2.4a1.592,1.592,0,0,0,2.4-.8h4.7a.31.31,0,0,1,.2.4L66.7,12.5s-.1.4.2.1C70.7,5.9,76.4,1.5,83.5.8a15.739,15.739,0,0,1,6.1.7c1.2.4,2.3,1.3,3.6,1.1.6-.1,1-.7,1.3-1.1h4.8s.3,0,.2.4L95.8,13.3s0,.3-.5.3H89.5l-.1-.1c.7-2.5,1.9-6-.8-7.4-4.8-2.4-9.1,2.3-11.4,6.2-2.2,3.8-4.3,10.4.2,12.6,3.7,1.7,7.6-1.9,9.8-5.6a.349.349,0,0,1,.2-.1h5.5c.2,0,.4.1.3.3A20.252,20.252,0,0,1,85,29.1a16.761,16.761,0,0,1-13,1.6,10.2,10.2,0,0,1-6.4-6.1c-1.4-3.5-.6-7.3.7-10.7.2-.4-.2-.3-.2-.3H60.5l-.2-.1c.4-1.6,1.2-4.3.7-5.8a3.733,3.733,0,0,0-3.2-2.3c-3.9-.4-7,2.8-8.9,5.6-2.3,3.4-4,7.1-3.2,11.2a4.039,4.039,0,0,0,3.5,3.2c3.8.6,6.9-3.1,9-6.1h5.5a.2.2,0,0,1,.2.2C60.4,28.3,51,33.7,42.2,30.9a10.344,10.344,0,0,1-6.1-5.5c-.1-.2-.2-.1-.3,0-2.7,4.1-6.8,7.4-11.7,5.9-1.7-.5-2.5-2.8-2.6-5.1,0-.1-.1-.1-.2-.1a15.011,15.011,0,0,1-13,5.5,6.452,6.452,0,0,1-5.5-7.3c.7-6,3.3-10.2,4.7-15.9.6-2.2-2-2-2-2H1.2c-.8,0-.6-.7-.6-.7L1.9,1.9a.537.537,0,0,1,.6-.3H18.9C17.5,7.5,15.2,13,13.5,19a5.244,5.244,0,0,0-.4,3,2.4,2.4,0,0,0,1.7,1.8,4.368,4.368,0,0,0,3.5-.9,8.027,8.027,0,0,0,2.6-3.2C24,14,25.4,7.8,27.4,1.7H37c-1.9,7-4.4,13.6-6.6,20.6a1.525,1.525,0,0,0,.3,1.6,1.391,1.391,0,0,0,1.6-.2A5.976,5.976,0,0,0,34,21.4l.1-.1Z" transform="translate(234.422 707.333)" fill="#e60012"/>
  </g>
</svg>
