<?xml version="1.0" encoding="utf-8"?>
<!-- Generator: Adobe Illustrator 22.0.0, SVG Export Plug-In . SVG Version: 6.00 Build 0)  -->
<svg version="1.1" id="レイヤー_1" xmlns="http://www.w3.org/2000/svg" xmlns:xlink="http://www.w3.org/1999/xlink" x="0px"
	 y="0px" viewBox="0 0 545 545" style="enable-background:new 0 0 545 545;" xml:space="preserve">
<style type="text/css">
	.st0{fill-rule:evenodd;clip-rule:evenodd;fill:url(#SVGID_1_);}
	.st1{fill-rule:evenodd;clip-rule:evenodd;fill:#FFFFFF;}
</style>
<g>
	<g>
		<linearGradient id="SVGID_1_" gradientUnits="userSpaceOnUse" x1="454.9735" y1="437.8093" x2="82.1897" y2="100.0917">
			<stop  offset="0" style="stop-color:#FEC053"/>
			<stop  offset="0.3273" style="stop-color:#F2203E"/>
			<stop  offset="0.6485" style="stop-color:#B729A8"/>
			<stop  offset="1" style="stop-color:#5342D6"/>
		</linearGradient>
		<path class="st0" d="M91,0.1H454C504,0.1,544.9,41,544.9,91V454c0,49.9-40.9,90.8-90.8,90.8H91C41,544.9,0.1,504,0.1,454V91
			C0.1,41,41,0.1,91,0.1L91,0.1z"/>
	</g>
	<g>
		<path class="st1" d="M399.3,272.5c0-70-56.7-126.8-126.8-126.8c-70,0-126.8,56.7-126.8,126.8c0,70,56.7,126.8,126.8,126.8
			C342.5,399.3,399.3,342.5,399.3,272.5L399.3,272.5z M396.9,128.5c-11.3,0-20.4,9.2-20.4,20.4c0,11.3,9.1,20.4,20.4,20.4
			c11.2,0,20.4-9.1,20.4-20.4C417.3,137.7,408.1,128.5,396.9,128.5L396.9,128.5z M168.9,99.2h207.2c38.4,0,69.7,31.4,69.7,69.7
			v207.2c0,38.4-31.3,69.7-69.7,69.7H168.9c-38.3,0-69.7-31.3-69.7-69.7V168.9C99.2,130.6,130.6,99.2,168.9,99.2L168.9,99.2z
			 M376.1,76H168.9C117.8,76,76,117.8,76,168.9v207.2c0,51.2,41.8,92.9,92.9,92.9h207.2c51.2,0,92.9-41.7,92.9-92.9V168.9
			C469,117.8,427.3,76,376.1,76L376.1,76z M172,272.5C172,217,217,172,272.5,172S373,217,373,272.5C373,328,328,373,272.5,373
			S172,328,172,272.5L172,272.5z"/>
	</g>
</g>
</svg>
