<?xml version="1.0" encoding="utf-8"?>
<!-- Generator: Adobe Illustrator 22.0.0, SVG Export Plug-In . SVG Version: 6.00 Build 0)  -->
<svg version="1.0" id="レイヤー_1" xmlns="http://www.w3.org/2000/svg" xmlns:xlink="http://www.w3.org/1999/xlink" x="0px"
	 y="0px" viewBox="0 0 30 30" style="enable-background:new 0 0 30 30;" xml:space="preserve">
<path d="M29.9,19.1L27,16.2L27,27H3V3l10.7,0l-3-3H3C2.2,0,1.5,0.3,0.9,0.9C0.3,1.5,0,2.2,0,3v24c0,0.8,0.3,1.6,0.9,2.1
	C1.5,29.7,2.2,30,3,30h24c0.8,0,1.5-0.3,2.1-0.9c0.6-0.6,0.9-1.3,0.9-2.1L29.9,19.1z M10,15.9l4,4L26.1,7.8l3.9,3.9V0L18.3,0
	l3.8,3.8L10,15.9z" fill="#e60012" />
</svg>
