<?xml version="1.0" encoding="utf-8"?>
<!-- Generator: Adobe Illustrator 22.0.0, SVG Export Plug-In . SVG Version: 6.00 Build 0)  -->
<svg version="1.0" id="レイヤー_1" xmlns="http://www.w3.org/2000/svg" xmlns:xlink="http://www.w3.org/1999/xlink" x="0px"
	 y="0px" viewBox="0 0 30 30" style="enable-background:new 0 0 30 30;" xml:space="preserve">
<path d="M30,22.5c0,0.2-0.1,0.4-0.3,0.5c-2,1-8.4,2.4-14.7,2.4C8.7,25.4,2.3,24,0.3,23C0.1,22.9,0,22.7,0,22.5
	c0-0.3,0.3-0.5,0.6-0.5h9.8c-3.8-2.2-6-7.4-6-15c0-1.3,4.8-2.3,10.7-2.3c5.9,0,10.7,1,10.7,2.3c0,1,0,1.9-0.1,2.8L28,9.6l0,0
	c0,0,0.1,0,0.1,0c0.8,0,1.5,0.7,1.5,1.5c0,0.5-0.3,1-0.7,1.3l0,0l-4.4,3.5c-1,2.8-2.6,4.8-4.6,6h9.5C29.8,21.9,30,22.2,30,22.5z
	 M24.5,8.1C22.6,7.4,19.1,7,15.2,7c-4,0-7.4,0.5-9.3,1.2c1.9,0.7,5.3,1.2,9.3,1.2C19.1,9.3,22.6,8.8,24.5,8.1" fill="#e60012"/>
</svg>
