<?xml version="1.0" encoding="utf-8"?>
<!-- Generator: Adobe Illustrator 22.0.0, SVG Export Plug-In . SVG Version: 6.00 Build 0)  -->
<svg version="1.0" id="レイヤー_1" xmlns="http://www.w3.org/2000/svg" xmlns:xlink="http://www.w3.org/1999/xlink" x="0px"
	 y="0px" viewBox="0 0 30 30" style="enable-background:new 0 0 30 30;" xml:space="preserve">
<path d="M28.2,14.9v-1C28.2,6.2,22.3,0,15,0S1.8,6.2,1.8,13.9v1C0.7,15.9,0,17.4,0,19c0,2.8,2.1,5,4.7,5.4c0.2,2.6,2.3,4.7,5,4.8
	c0.1,0.5,0.6,0.8,1.1,0.8h5c0.6,0,1.1-0.5,1.1-1.1v-0.4c0-0.6-0.5-1.1-1.1-1.1h-5c-0.5,0-0.9,0.3-1.1,0.8c-2,0-3.7-1.6-3.8-3.6
	c0.8-0.1,1.6-0.3,2.3-0.7c0.2-0.1,0.3-0.3,0.3-0.5v-8.5c0-0.2-0.1-0.4-0.3-0.5c-0.8-0.5-1.8-0.7-2.7-0.7v-0.5c0-4.8,4.3-8.7,9.5-8.7
	s9.5,3.9,9.5,8.7v0.5c-0.9,0-1.9,0.3-2.7,0.7c-0.2,0.1-0.3,0.3-0.3,0.5v8.5c0,0.2,0.1,0.4,0.3,0.5c0.8,0.5,1.8,0.7,2.7,0.7
	c3,0,5.5-2.5,5.5-5.5C30,17.4,29.3,15.9,28.2,14.9z" fill="#e60012"/>
</svg>
