<?xml version="1.0" encoding="utf-8"?>
<!-- Generator: Adobe Illustrator 22.0.0, SVG Export Plug-In . SVG Version: 6.00 Build 0)  -->
<svg version="1.0" id="レイヤー_1" xmlns="http://www.w3.org/2000/svg" xmlns:xlink="http://www.w3.org/1999/xlink" x="0px"
	 y="0px" viewBox="0 0 30 30" style="enable-background:new 0 0 30 30;" xml:space="preserve">
<path d="M9,24c0.8,0,1.5,0.3,2.1,0.9c0.6,0.6,0.9,1.3,0.9,2.1c0,0.8-0.3,1.5-0.9,2.1C10.5,29.7,9.8,30,9,30c-0.8,0-1.5-0.3-2.1-0.9
	C6.3,28.5,6,27.8,6,27c0-0.8,0.3-1.5,0.9-2.1C7.5,24.3,8.2,24,9,24z M0,0h4.9l1.4,3h22.2c0.4,0,0.8,0.2,1.1,0.5
	C29.9,3.7,30,4.1,30,4.5c0,0.2-0.1,0.5-0.2,0.7l-5.3,9.7c-0.6,1-1.4,1.5-2.6,1.5H10.7l-1.3,2.5l-0.1,0.2c0,0.2,0.1,0.4,0.4,0.4H27v3
	H9c-0.8,0-1.5-0.3-2.1-0.9C6.3,21,6,20.3,6,19.5c0-0.5,0.1-0.9,0.4-1.4l2-3.7L3,3H0V0z M24,24c0.8,0,1.5,0.3,2.1,0.9
	c0.6,0.6,0.9,1.3,0.9,2.1c0,0.8-0.3,1.5-0.9,2.1C25.5,29.7,24.8,30,24,30c-0.8,0-1.5-0.3-2.1-0.9C21.3,28.5,21,27.8,21,27
	c0-0.8,0.3-1.5,0.9-2.1C22.5,24.3,23.2,24,24,24z" fill="#e60012"/>
</svg>
