<?xml version="1.0" encoding="utf-8"?>
<!-- Generator: Adobe Illustrator 22.0.0, SVG Export Plug-In . SVG Version: 6.00 Build 0)  -->
<svg version="1.0" id="レイヤー_1" xmlns="http://www.w3.org/2000/svg" xmlns:xlink="http://www.w3.org/1999/xlink" x="0px"
	 y="0px" viewBox="0 0 30 30" style="enable-background:new 0 0 30 30;" xml:space="preserve">
<g>
	<path d="M15.2,9.3c-0.4,1,0,2.4,0.6,2.8c-0.2-0.9-0.3-1.5,0-2.1c0.5-1.1,0.5-1.7,0.2-2.5c-0.1-0.4-0.4-0.8-0.8-1
		C15.6,7.5,15.6,8.3,15.2,9.3" fill="#fff"/>
	<path d="M23.2,21.7c0,0.1-0.1,0.2-0.2,0.3c-1,0.5-4.5,1.3-7.8,1.3c-3.3,0-6.8-0.7-7.8-1.3c-0.1-0.1-0.2-0.2-0.2-0.3
		c0-0.2,0.1-0.3,0.3-0.3h5.2c-2-1.2-3.2-3.9-3.2-7.9c0-0.7,2.5-1.2,5.7-1.2c3.1,0,5.7,0.6,5.7,1.2c0,0.5,0,1-0.1,1.5l1.2-0.1l0,0
		c0,0,0,0,0.1,0c0.4,0,0.8,0.4,0.8,0.8c0,0.3-0.1,0.5-0.4,0.7l0,0l-2.3,1.9c-0.5,1.5-1.4,2.6-2.4,3.2h5C23,21.4,23.2,21.5,23.2,21.7
		z M20.2,14.1c-1-0.4-2.8-0.6-4.9-0.6c-2.1,0-3.9,0.2-4.9,0.6c1,0.4,2.8,0.6,4.9,0.6C17.4,14.7,19.3,14.4,20.2,14.1" fill="#fff"/>
	<path d="M15,30C6.7,30,0,23.3,0,15S6.7,0,15,0s15,6.7,15,15S23.3,30,15,30z M15,1.8C7.7,1.8,1.8,7.7,1.8,15S7.7,28.2,15,28.2
		c7.3,0,13.2-5.9,13.2-13.2S22.3,1.8,15,1.8z" fill="#fff"/>
</g>
</svg>
