<?xml version="1.0" encoding="utf-8"?>
<!-- Generator: Adobe Illustrator 22.0.0, SVG Export Plug-In . SVG Version: 6.00 Build 0)  -->
<svg version="1.1" id="レイヤー_1" xmlns="http://www.w3.org/2000/svg" xmlns:xlink="http://www.w3.org/1999/xlink" x="0px"
	 y="0px" viewBox="0 0 30 30" style="enable-background:new 0 0 30 30;" xml:space="preserve">
<g>
	<path d="M15,30C6.7,30,0,23.3,0,15S6.7,0,15,0s15,6.7,15,15S23.3,30,15,30z M15,1.8C7.7,1.8,1.8,7.7,1.8,15S7.7,28.2,15,28.2
		S28.2,22.3,28.2,15S22.3,1.8,15,1.8z" fill="#e60012"/>
</g>
<path d="M23.1,15v-0.6c0-4.7-3.6-8.6-8.1-8.6c-4.5,0-8.1,3.8-8.1,8.6V15c-0.7,0.6-1.1,1.5-1.1,2.5c0,1.7,1.3,3.1,2.9,3.3
	c0.1,1.6,1.4,2.9,3.1,2.9c0.1,0.3,0.4,0.5,0.7,0.5h3.1c0.4,0,0.7-0.3,0.7-0.7v-0.3c0-0.4-0.3-0.7-0.7-0.7h-3.1
	c-0.3,0-0.6,0.2-0.7,0.5c-1.2,0-2.3-1-2.4-2.2c0.5,0,1-0.2,1.4-0.4c0.1-0.1,0.2-0.2,0.2-0.3v-5.2c0-0.1-0.1-0.2-0.2-0.3
	c-0.5-0.3-1.1-0.5-1.7-0.5v-0.3c0-2.9,2.6-5.3,5.9-5.3c3.2,0,5.9,2.4,5.9,5.3v0.3c-0.6,0-1.2,0.2-1.7,0.5c-0.1,0.1-0.2,0.2-0.2,0.3
	v5.2c0,0.1,0.1,0.2,0.2,0.3c0.5,0.3,1.1,0.5,1.7,0.5c1.9,0,3.4-1.5,3.4-3.4C24.3,16.5,23.8,15.6,23.1,15z" fill="#e60012"/>
</svg>
