<?xml version="1.0" encoding="utf-8"?>
<!-- Generator: Adobe Illustrator 22.0.0, SVG Export Plug-In . SVG Version: 6.00 Build 0)  -->
<svg version="1.0" id="レイヤー_1" xmlns="http://www.w3.org/2000/svg" xmlns:xlink="http://www.w3.org/1999/xlink" x="0px"
	 y="0px" viewBox="0 0 30 30" style="enable-background:new 0 0 30 30;" xml:space="preserve">
<path d="M15,28c-3.6,0-6.6-1.3-9.2-3.8C3.3,21.7,2,18.6,2,15c0-3.6,1.3-6.6,3.8-9.2C8.4,3.3,11.5,2,15,2s6.6,1.3,9.2,3.8
	C26.7,8.4,28,11.5,28,15c0,3.6-1.3,6.6-3.8,9.2C21.7,26.7,18.6,28,15,28z M15,0C10.9,0,7.3,1.5,4.4,4.4C1.5,7.3,0,10.9,0,15
	c0,4.1,1.5,7.7,4.4,10.6C7.3,28.5,10.9,30,15,30c4.1,0,7.7-1.5,10.6-4.4C28.5,22.7,30,19.1,30,15c0-4.1-1.5-7.7-4.4-10.6
	C22.7,1.5,19.1,0,15,0z M19.6,14.2l-6.5-6.5c-0.5-0.5-0.9-0.5-1.4,0c-0.5,0.5-0.5,0.9,0,1.4l5.8,5.8l-5.8,5.8
	c-0.5,0.5-0.5,0.9,0,1.4c0.5,0.5,1,0.5,1.4,0l6.5-6.5c0.2-0.2,0.3-0.4,0.3-0.7C20,14.6,19.9,14.4,19.6,14.2z" fill="#333"/>
</svg>
