<?xml version="1.0" encoding="utf-8"?>
<!-- Generator: Adobe Illustrator 22.0.0, SVG Export Plug-In . SVG Version: 6.00 Build 0)  -->
<svg version="1.1" id="レイヤー_1" xmlns="http://www.w3.org/2000/svg" xmlns:xlink="http://www.w3.org/1999/xlink" x="0px"
	 y="0px" viewBox="0 0 30 30" style="enable-background:new 0 0 30 30;" xml:space="preserve">
<path d="M12,8.9c0-0.2,0.1-0.5,0.3-0.6l0.1-0.1c0.5-0.4,1-0.4,1.6,0l7.7,6.1c0,0,0.1,0,0.1,0c0.2,0.2,0.3,0.4,0.3,0.7
	s-0.1,0.4-0.3,0.6l-7.7,6.1c-0.5,0.4-1.1,0.4-1.6,0c-0.3-0.2-0.4-0.4-0.4-0.6V8.9z M15,30c4.1,0,7.7-1.5,10.6-4.4
	C28.5,22.7,30,19.1,30,15s-1.5-7.7-4.4-10.6C22.7,1.5,19.1,0,15,0C10.9,0,7.3,1.5,4.4,4.4C1.5,7.3,0,10.9,0,15s1.5,7.7,4.4,10.6
	C7.3,28.5,10.9,30,15,30z"  fill="#ffffff"/>
</svg>
