<?xml version="1.0" encoding="utf-8"?>
<!-- Generator: Adobe Illustrator 22.0.0, SVG Export Plug-In . SVG Version: 6.00 Build 0)  -->
<svg version="1.0" id="レイヤー_1" xmlns="http://www.w3.org/2000/svg" xmlns:xlink="http://www.w3.org/1999/xlink" x="0px"
	 y="0px" viewBox="0 0 30 30" style="enable-background:new 0 0 30 30;" xml:space="preserve">
<g>
	<path d="M20.5,12.3c0,0.8-0.1,1.4-0.4,1.9l-3.9,8.2c-0.1,0.2-0.3,0.4-0.5,0.6c-0.2,0.1-0.5,0.2-0.7,0.2c-0.3,0-0.5-0.1-0.7-0.2
		c-0.2-0.1-0.4-0.3-0.5-0.6l-3.9-8.2c-0.2-0.5-0.4-1.1-0.4-1.9c0-1.5,0.5-2.8,1.6-3.9c1.1-1.1,2.4-1.6,3.9-1.6
		c1.5,0,2.8,0.5,3.9,1.6C19.9,9.5,20.5,10.8,20.5,12.3z M17.7,12.3c0-0.8-0.3-1.4-0.8-1.9c-0.5-0.5-1.2-0.8-1.9-0.8
		c-0.8,0-1.4,0.3-1.9,0.8c-0.5,0.5-0.8,1.2-0.8,1.9c0,0.8,0.3,1.4,0.8,1.9c0.5,0.5,1.2,0.8,1.9,0.8c0.8,0,1.4-0.3,1.9-0.8
		C17.5,13.7,17.7,13,17.7,12.3z" fill="#e60012" />
	<path d="M15,30C6.7,30,0,23.3,0,15S6.7,0,15,0s15,6.7,15,15S23.3,30,15,30z M15,1.8C7.7,1.8,1.8,7.7,1.8,15
		c0,7.3,5.9,13.2,13.2,13.2c7.3,0,13.2-5.9,13.2-13.2C28.2,7.7,22.3,1.8,15,1.8z" fill="#e60012"/>
</g>
</svg>
