<?xml version="1.0" encoding="utf-8"?>
<!-- Generator: Adobe Illustrator 22.0.0, SVG Export Plug-In . SVG Version: 6.00 Build 0)  -->
<svg version="1.0" id="レイヤー_1" xmlns="http://www.w3.org/2000/svg" xmlns:xlink="http://www.w3.org/1999/xlink" x="0px"
	 y="0px" viewBox="0 0 30 30" style="enable-background:new 0 0 30 30;" xml:space="preserve">
<g>
	<path d="M11.1,12.5c-0.2-0.6-0.8-1-1.4-1c-0.9,0-1.8,0.6-2,1.6c-0.1,0.9,0.4,1.3,1.1,1.6l0.4,0.2c0.5,0.3,1.1,0.5,0.9,1.2
		c-0.1,0.7-0.8,1.2-1.5,1.2c-0.7,0-1.1-0.5-1.1-1.1l-0.7,0.2c0,1,0.7,1.6,1.7,1.6c1.1,0,2.1-0.8,2.2-1.9c0.2-1-0.5-1.4-1.2-1.7
		l-0.4-0.2c-0.4-0.2-0.9-0.4-0.8-1c0.1-0.6,0.6-1,1.2-1c0.5,0,0.8,0.2,1,0.7L11.1,12.5z" fill="#fff" />
	<path d="M11.7,17.8h0.7l0.8-4.8l4,5l1-6.4h-0.7l-0.8,4.8l-4-5L11.7,17.8z" fill="#fff"/>
	<path d="M23,12.5c-0.2-0.6-0.8-1-1.4-1c-0.9,0-1.8,0.6-2,1.6c-0.1,0.9,0.4,1.3,1.1,1.6l0.4,0.2c0.5,0.3,1.1,0.5,0.9,1.2
		c-0.1,0.7-0.8,1.2-1.5,1.2c-0.7,0-1.1-0.5-1.1-1.1l-0.7,0.2c0,1,0.7,1.6,1.7,1.6c1.1,0,2.1-0.8,2.2-1.9c0.2-1-0.5-1.4-1.2-1.7
		L21,14.1c-0.4-0.2-0.9-0.4-0.8-1c0.1-0.6,0.6-1,1.2-1c0.5,0,0.8,0.2,1,0.7L23,12.5z" fill="#fff"/>
	<path d="M15,30C6.7,30,0,23.3,0,15S6.7,0,15,0s15,6.7,15,15S23.3,30,15,30z M15,1.8C7.7,1.8,1.8,7.7,1.8,15
		c0,7.3,5.9,13.2,13.2,13.2c7.3,0,13.2-5.9,13.2-13.2C28.2,7.7,22.3,1.8,15,1.8z" fill="#fff"/>
</g>
</svg>
