<?xml version="1.0" encoding="utf-8"?>
<!-- Generator: Adobe Illustrator 22.0.0, SVG Export Plug-In . SVG Version: 6.00 Build 0)  -->
<svg version="1.0" id="レイヤー_1" xmlns="http://www.w3.org/2000/svg" xmlns:xlink="http://www.w3.org/1999/xlink" x="0px"
	 y="0px" viewBox="0 0 30 30" style="enable-background:new 0 0 30 30;" xml:space="preserve">
<g>
	<path d="M11.8,19.6c0.4,0,0.7,0.1,1,0.4c0.3,0.3,0.4,0.6,0.4,1c0,0.4-0.1,0.7-0.4,0.9c-0.3,0.3-0.6,0.4-1,0.4
		c-0.4,0-0.7-0.1-0.9-0.4c-0.3-0.3-0.4-0.6-0.4-0.9c0-0.4,0.1-0.7,0.4-1C11.1,19.7,11.5,19.6,11.8,19.6z M7.7,8.6H10l0.6,1.3h10.1
		c0.2,0,0.4,0.1,0.5,0.2c0.1,0.1,0.2,0.3,0.2,0.5c0,0.1,0,0.2-0.1,0.3l-2.4,4.4c-0.3,0.5-0.6,0.7-1.2,0.7h-5.1L12,17.2l0,0.1
		c0,0.1,0.1,0.2,0.2,0.2H20v1.4h-8.2c-0.4,0-0.7-0.1-0.9-0.4c-0.3-0.3-0.4-0.6-0.4-1c0-0.2,0.1-0.4,0.2-0.6l0.9-1.7L9.1,10H7.7V8.6z
		 M18.6,19.6c0.4,0,0.7,0.1,0.9,0.4c0.3,0.3,0.4,0.6,0.4,1c0,0.4-0.1,0.7-0.4,0.9c-0.3,0.3-0.6,0.4-0.9,0.4c-0.4,0-0.7-0.1-1-0.4
		c-0.3-0.3-0.4-0.6-0.4-0.9c0-0.4,0.1-0.7,0.4-1C18,19.7,18.3,19.6,18.6,19.6z" fill="#fff"/>
	<path d="M15,30C6.7,30,0,23.3,0,15S6.7,0,15,0s15,6.7,15,15S23.3,30,15,30z M15,1.8C7.7,1.8,1.8,7.7,1.8,15S7.7,28.2,15,28.2
		c7.3,0,13.2-5.9,13.2-13.2S22.3,1.8,15,1.8z" fill="#fff"/>
</g>
</svg>
