<?xml version="1.0" encoding="utf-8"?>
<!-- Generator: Adobe Illustrator 22.0.0, SVG Export Plug-In . SVG Version: 6.00 Build 0)  -->
<svg version="1.0" id="レイヤー_1" xmlns="http://www.w3.org/2000/svg" xmlns:xlink="http://www.w3.org/1999/xlink" x="0px"
	 y="0px" viewBox="0 0 30 30" style="enable-background:new 0 0 30 30;" xml:space="preserve">
<path d="M0.7,29.3c1,1,1.9,1,2.9-0.1L15,17.9l11.4,11.3c0.9,1,1.9,1,2.9,0.1c1-1,1-1.9-0.1-2.9L17.9,15L29.2,3.6
	c1-0.9,1-1.9,0.1-2.9c-1-1-1.9-1-2.9,0.1L15,12.1L3.6,0.8c-0.9-1-1.9-1-2.9-0.1c-1,1-1,1.9,0.1,2.9L12.1,15L0.8,26.4
	C-0.2,27.3-0.3,28.3,0.7,29.3z" fill="#e60012"/>
</svg>
