<?xml version="1.0" encoding="utf-8"?>
<!-- Generator: Adobe Illustrator 23.0.0, SVG Export Plug-In . SVG Version: 6.00 Build 0)  -->
<svg version="1.1" id="レイヤー_1" xmlns="http://www.w3.org/2000/svg" xmlns:xlink="http://www.w3.org/1999/xlink" x="0px"
	 y="0px" viewBox="0 0 100 100" style="enable-background:new 0 0 100 100;" xml:space="preserve">
<style type="text/css">
	.st0{fill-rule:evenodd;clip-rule:evenodd;fill:#e60012;}
</style>
<g>
	<polygon class="st0" points="50.8,59 42.6,53.6 28.6,67.3 73,67.3 59,53.6 	"/>
	<polygon class="st0" points="26,42.5 26,64.8 39.6,51.6 	"/>
	<polygon class="st0" points="75.5,64.8 75.5,42.3 61.9,51.5 	"/>
	<polygon class="st0" points="26,38.3 50.8,54.9 75.4,38.2 75.5,38.3 75.5,32.7 26,32.7 	"/>
	<path class="st0" d="M50,0C22.4,0,0,22.4,0,50c0,27.6,22.4,50,50,50s50-22.4,50-50C100,22.4,77.6,0,50,0z M79.1,67.3
		c0,0.9-0.4,1.8-1,2.4c-0.7,0.7-1.5,1-2.5,1H26c-1,0-1.8-0.3-2.5-1c-0.7-0.7-1-1.5-1-2.4V32.7c0-0.9,0.3-1.8,1-2.4
		c0.7-0.7,1.5-1,2.5-1h49.5c1,0,1.8,0.3,2.5,1c0.7,0.7,1,1.5,1,2.4V67.3z"/>
</g>
</svg>
