<?xml version="1.0" encoding="utf-8"?>
<!-- Generator: Adobe Illustrator 22.0.0, SVG Export Plug-In . SVG Version: 6.00 Build 0)  -->
<svg version="1.0" id="レイヤー_1" xmlns="http://www.w3.org/2000/svg" xmlns:xlink="http://www.w3.org/1999/xlink" x="0px"
	 y="0px" viewBox="0 0 30 30" style="enable-background:new 0 0 30 30;" xml:space="preserve">
<path d="M15,0L15,0C15,0,15,0,15,0C6.7,0,0,6.7,0,15c0,8.3,6.7,15,15,15s15-6.7,15-15C30,6.7,23.3,0,15,0z M7.2,14.4h-6
	c0.1-2.9,1.2-5.6,2.8-7.8c1.2,0.6,2.5,1.1,4,1.5C7.5,10,7.3,12.1,7.2,14.4z M9.2,8.4C10.9,8.7,12.6,9,14.4,9v5.4h-6
	C8.5,12.2,8.7,10.2,9.2,8.4z M7.2,15.6c0,2.3,0.3,4.4,0.8,6.3c-1.5,0.4-2.8,0.9-4,1.5c-1.7-2.2-2.7-4.9-2.9-7.8H7.2z M8.4,15.6h6V21
	c-1.8,0-3.5,0.2-5.2,0.6C8.7,19.8,8.5,17.7,8.4,15.6z M15.6,9c1.8,0,3.5-0.2,5.2-0.6c0.5,1.8,0.8,3.8,0.8,6h-6V9z M15.6,15.6h6
	c0,2.2-0.3,4.2-0.8,6c-1.6-0.3-3.4-0.6-5.2-0.6V15.6z M22.8,15.6h6c-0.1,2.9-1.2,5.6-2.8,7.8c-1.2-0.6-2.5-1.1-4-1.5
	C22.5,20,22.7,17.9,22.8,15.6z M22.8,14.4c0-2.3-0.3-4.4-0.8-6.3c1.5-0.4,2.8-0.9,4-1.5c1.7,2.2,2.7,4.9,2.9,7.8H22.8z M25.1,5.6
	c-1,0.5-2.2,1-3.5,1.3c-0.7-2.2-1.7-4.1-3-5.3C21.2,2.4,23.4,3.8,25.1,5.6z M20.4,7.3c-1.5,0.3-3.1,0.5-4.8,0.5V1.3
	C17.6,1.7,19.3,4,20.4,7.3z M14.4,1.3v6.5c-1.7,0-3.3-0.2-4.8-0.5C10.7,4,12.4,1.7,14.4,1.3z M11.3,1.7c-1.2,1.2-2.2,3-3,5.3
	C7.1,6.6,5.9,6.2,4.9,5.6C6.6,3.8,8.8,2.4,11.3,1.7z M4.9,24.4c1-0.5,2.2-1,3.5-1.3c0.7,2.2,1.7,4.1,3,5.3
	C8.8,27.6,6.6,26.2,4.9,24.4z M9.6,22.7c1.5-0.3,3.1-0.5,4.8-0.5v6.5C12.4,28.3,10.7,26,9.6,22.7z M15.6,28.7v-6.5
	c1.7,0,3.3,0.2,4.8,0.5C19.3,26,17.6,28.3,15.6,28.7z M18.7,28.3c1.2-1.2,2.2-3,3-5.3c1.3,0.3,2.5,0.8,3.5,1.3
	C23.4,26.2,21.2,27.6,18.7,28.3z" fill="#e60012"/>
</svg>
