<?xml version="1.0" encoding="utf-8"?>
<!-- Generator: Adobe Illustrator 22.0.0, SVG Export Plug-In . SVG Version: 6.00 Build 0)  -->
<svg version="1.0" id="レイヤー_1" xmlns="http://www.w3.org/2000/svg" xmlns:xlink="http://www.w3.org/1999/xlink" x="0px"
	 y="0px" viewBox="0 0 30 30" style="enable-background:new 0 0 30 30;" xml:space="preserve">
<style type="text/css">
	.st0{fill-rule:evenodd;clip-rule:evenodd;}
</style>
<g>
	<g>
		<path class="st0" d="M28.1,23.8H1.9c-1,0-1.9,0.8-1.9,1.9c0,1,0.8,1.9,1.9,1.9h26.2c1,0,1.9-0.8,1.9-1.9
			C30,24.6,29.2,23.8,28.1,23.8z M28.1,13.1H1.9C0.8,13.1,0,14,0,15c0,1,0.8,1.9,1.9,1.9h26.2c1,0,1.9-0.8,1.9-1.9
			C30,14,29.2,13.1,28.1,13.1z M1.9,6.3h26.2c1,0,1.9-0.8,1.9-1.9s-0.8-1.9-1.9-1.9H1.9C0.8,2.5,0,3.3,0,4.4S0.8,6.3,1.9,6.3z" fill="#fff"/>
	</g>
</g>
</svg>
