<svg xmlns="http://www.w3.org/2000/svg" width="34.962" height="24.191" viewBox="0 0 34.962 24.191">
  <g id="グループ_129" data-name="グループ 129" transform="translate(-4375.504 -900.338)">
    <path id="パス_107" data-name="パス 107" d="M4410.466,921.131a.653.653,0,0,1-.346.614c-2.281,1.176-9.817,2.784-17.13,2.784s-14.858-1.608-17.144-2.784a.666.666,0,0,1-.342-.614.635.635,0,0,1,.648-.609H4387.6c-4.472-2.587-6.944-8.632-6.944-17.46,0-1.506,5.607-2.724,12.522-2.724s12.523,1.218,12.523,2.724c0,1.158-.046,2.253-.135,3.311l2.552-.2.007.027a.7.7,0,0,1,.164-.045,1.775,1.775,0,0,1,.953,3.246l0,.023-5.108,4.075a12.715,12.715,0,0,1-5.388,7.02h11.081A.625.625,0,0,1,4410.466,921.131Zm-6.451-16.709c-2.162-.81-6.2-1.36-10.839-1.36a35.093,35.093,0,0,0-10.834,1.36c2.17.81,6.2,1.356,10.834,1.356s8.677-.546,10.839-1.356" fill="#e60012"/>
  </g>
</svg>
