<?xml version="1.0" encoding="utf-8"?>
<!-- Generator: Adobe Illustrator 23.1.0, SVG Export Plug-In . SVG Version: 6.00 Build 0)  -->
<svg version="1.1" id="icn-customer-voice" xmlns="http://www.w3.org/2000/svg" xmlns:xlink="http://www.w3.org/1999/xlink" x="0px"
	 y="0px" width="50px" height="49.6px" viewBox="0 0 50 49.6" enable-background="new 0 0 50 49.6" xml:space="preserve">
<path id="bg" fill="#E60012" d="M50,44.8c-4.3,0.5-5.6-3.8-6-5.7c3-4.2,4.5-9.2,4.5-14.4C48.3,11.4,37.2,0.7,23.8,1
	C10.4,1.2-0.3,12.3,0,25.7C0.3,39,11.1,49.5,24.3,49.6c4.7,0,9.3-1.4,13.2-4C41.5,47.6,46.2,47.3,50,44.8z"/>
<path id="char" fill="#FFFFFF" d="M17.6,10.1L21,9l0.8,2.4L35,6.9l1,3l-13.2,4.4l0.8,2.5L35.1,13l1,2.9L9.8,24.6l-1-2.9l11.4-3.8
	l-0.8-2.5L6.3,19.9l-1-3l13.1-4.4L17.6,10.1z M17.6,35c0.3,2.5,0.5,5.7-0.6,8.5l-3.5-1.4c0.5-1.2,1.8-4.6,0-9.9l-1.9-5.8L36,18.3
	l3.5,10.4l-3.3,1.1L36,28.9L17.6,35z M24.1,29.6l-1.3-3.8l-7.2,2.4l1.3,3.8L24.1,29.6z M35,26l-1.3-3.8L26,24.8l1.3,3.8L35,26z"/>
</svg>
