<?xml version="1.0" encoding="utf-8"?>
<!-- Generator: Adobe Illustrator 22.0.0, SVG Export Plug-In . SVG Version: 6.00 Build 0)  -->
<svg version="1.1" id="レイヤー_1" xmlns="http://www.w3.org/2000/svg" xmlns:xlink="http://www.w3.org/1999/xlink" x="0px"
	 y="0px" viewBox="0 0 60 60" style="enable-background:new 0 0 60 60;" xml:space="preserve">
<style type="text/css">
	.st0{fill-rule:evenodd;clip-rule:evenodd;fill:#FFFFFF;}
	.st1{fill:#E60012;}
</style>
<g>
	<path class="st0" d="M30,1.2c15.9,0,28.8,12.9,28.8,28.8c0,15.9-12.9,28.8-28.8,28.8C14.1,58.8,1.2,45.9,1.2,30
		C1.2,14.1,14.1,1.2,30,1.2z"/>
	<path class="st1" d="M30,0C13.4,0,0,13.4,0,30c0,16.6,13.4,30,30,30c16.6,0,30-13.4,30-30C60,13.4,46.6,0,30,0z M17.4,43.4
		c0,0.3-0.2,0.5-0.5,0.5h-5.8c-0.3,0-0.5-0.2-0.5-0.5v-4.6c0-0.3-0.2-0.5-0.5-0.5H8.7c-0.3,0-0.5-0.2-0.5-0.5v-4.5
		c0-0.3,0.2-0.5,0.5-0.5h8.2c0.3,0,0.5,0.2,0.5,0.5V43.4z M28.9,43.4c0,0.3-0.2,0.5-0.5,0.5h-8.5c-0.3,0-0.5-0.2-0.5-0.5v-4
		c0-0.3,0.2-0.5,0.5-0.5h8.5c0.3,0,0.5,0.2,0.5,0.5V43.4z M43.2,43.4c0,0.3-0.2,0.5-0.5,0.5h-3.5c-0.3,0-0.5-0.2-0.5-0.5v-2.1
		c0-0.3-0.2-0.5-0.5-0.5h-1.1c-0.3,0-0.5,0.2-0.5,0.5v2.1c0,0.3-0.2,0.5-0.5,0.5h-4.9c-0.3,0-0.5-0.2-0.5-0.5v-5.9
		c0-0.3-0.2-0.5-0.5-0.5H19.9c-0.3,0-0.5-0.2-0.5-0.5v-3.3c0-0.3,0.2-0.5,0.5-0.5h13.2c0.3,0,0.5-0.2,0.5-0.5v-8.6
		c0-0.3,0.2-0.5,0.5-0.5h8.6c0.3,0,0.5,0.2,0.5,0.5V43.4z M45.3,18.9c0,0.3-0.2,0.5-0.5,0.5h-5.7c-0.3,0-0.5,0.2-0.5,0.5v0.8
		c0,0.3-0.2,0.5-0.5,0.5h-4c-0.3,0-0.5-0.2-0.5-0.5v-5.9c0-0.3,0.2-0.5,0.5-0.5h0.6c0.3,0,0.5-0.2,0.5-0.5v-3c0-0.3,0.2-0.5,0.5-0.5
		h9.1c0.3,0,0.5,0.2,0.5,0.5V18.9z"/>
</g>
</svg>
