<?xml version="1.0" encoding="utf-8"?>
<!-- Generator: Adobe Illustrator 22.0.0, SVG Export Plug-In . SVG Version: 6.00 Build 0)  -->
<svg version="1.1" id="レイヤー_1" xmlns="http://www.w3.org/2000/svg" xmlns:xlink="http://www.w3.org/1999/xlink" x="0px"
	 y="0px" viewBox="0 0 60 60" style="enable-background:new 0 0 60 60;" xml:space="preserve">
<style type="text/css">
	.st0{fill-rule:evenodd;clip-rule:evenodd;fill:#FFFFFF;}
	.st1{fill:#E60012;}
</style>
<g>
	<path class="st0" d="M30,1.2c15.9,0,28.8,12.9,28.8,28.8c0,15.9-12.9,28.8-28.8,28.8C14.1,58.8,1.2,45.9,1.2,30
		C1.2,14.1,14.1,1.2,30,1.2z"/>
	<path class="st1" d="M35.1,36.8c0-0.3,0.1-0.6,0.1-1c0-2.1-1-4.2-2.6-5.5l-0.1-0.1h-8.7l-0.1,0.1c-1.7,1.4-2.6,3.4-2.6,5.5
		c0,0.3,0,0.7,0.1,1l0.1,0.5h14L35.1,36.8z M28.1,35.5c-0.7,0-1.4-0.6-1.4-1.4c0-0.6,0.8-1.9,1.4-2.6c0.5,0.7,1.4,2,1.4,2.6
		C29.4,34.8,28.8,35.5,28.1,35.5z"/>
	<path class="st1" d="M28.1,19.7c1.1,0.4,2,0.5,2.9,0.5c1.5,0,2.2-0.6,2.3-0.7l0.1-0.1l0.3-9.3H22.3l0.3,9.9l0.6-0.4
		c0,0,0.7-0.4,2.1-0.4C26.2,19.2,27.2,19.3,28.1,19.7z"/>
	<path class="st1" d="M24.4,27.4h7.2v-2h-7.2V27.4z"/>
	<path class="st1" d="M30,0C13.4,0,0,13.4,0,30c0,16.6,13.4,30,30,30c16.6,0,30-13.4,30-30C60,13.4,46.6,0,30,0z M19.6,35.8
		c0-2.3,0.9-4.5,2.6-6.1l0.2-0.2v-2.3l0.5,0.1h0.5v-2h-1.9c-0.1,0-0.3-0.1-0.3-0.3L20.6,8.7l0.2-0.2h14.4l0.2,0.2l-0.7,16.4
		c0,0.1-0.1,0.3-0.3,0.3h-1.9v2h1.1l0.1,0.3l0.3,0H39c2.1,0,3.7,1.7,3.7,3.7v2.1h-2v-2.1c0-0.9-0.8-1.7-1.7-1.7h-5.1l0.7,0.9
		c1.2,1.5,1.9,3.4,1.9,5.3c0,4.6-3.8,8.4-8.4,8.4C23.4,44.2,19.6,40.5,19.6,35.8z M42.7,51.3c0,0.1-0.1,0.2-0.2,0.2H22.2l0.4-1.4
		c0.1-0.2,0.3-0.3,0.5-0.3h17.6v-3.3h2V51.3z M44.2,44.4c0,0.4-0.3,0.7-0.7,0.7H40c-0.4,0-0.8-0.3-0.8-0.7v-9c0-0.4,0.3-0.7,0.8-0.7
		h3.5c0.4,0,0.7,0.3,0.7,0.7V44.4z"/>
</g>
</svg>
