<?xml version="1.0" encoding="utf-8"?>
<!-- Generator: Adobe Illustrator 22.0.0, SVG Export Plug-In . SVG Version: 6.00 Build 0)  -->
<svg version="1.1" id="レイヤー_1" xmlns="http://www.w3.org/2000/svg" xmlns:xlink="http://www.w3.org/1999/xlink" x="0px"
	 y="0px" viewBox="0 0 60 60" style="enable-background:new 0 0 60 60;" xml:space="preserve">
<style type="text/css">
	.st0{fill:#E60012;}
</style>
<g>
	<g>
		<path class="st0" d="M20.4,26.5c0.5-3.6-0.8-5.6-2.9-5.9c-2-0.3-3.9,1.1-4.5,4.8c-0.5,3.6,0.8,5.6,2.9,5.9
			C18,31.6,19.9,30.1,20.4,26.5z M16.8,30.2L16.8,30.2L16.8,30.2c-0.1,0.4-0.4,0.6-0.8,0.6c-0.4-0.1-0.6-0.4-0.6-0.7l0,0l0,0
			l1.3-8.6l0,0c0.1-0.3,0.4-0.5,0.7-0.4c0.3,0,0.6,0.3,0.6,0.6l0,0L16.8,30.2z M19.5,37.1c-1.4,0-2.5,1.1-2.5,2.5
			c0,1.4,1.1,2.5,2.5,2.5c1.4,0,2.5-1.1,2.5-2.5C22,38.2,20.9,37.1,19.5,37.1z M27.5,25c3.6-0.3,5.2-2.1,5-4.1c-0.2-2-2-3.5-5.7-3.2
			c-3.6,0.3-5.2,2.1-5,4.1C22,23.8,23.8,25.3,27.5,25z M23,22.4L23,22.4c-0.4,0-0.7-0.2-0.7-0.6c0-0.4,0.2-0.7,0.6-0.7l0,0l0,0
			l8.7-0.7l0,0c0.3,0,0.6,0.3,0.6,0.6c0,0.3-0.2,0.6-0.5,0.7l0,0L23,22.4L23,22.4z M30.2,27.5c-3.3-1.6-5.5-0.9-6.4,1
			c-0.9,1.8-0.1,4.1,3.2,5.7c3.3,1.6,5.6,0.9,6.5-1C34.3,31.3,33.5,29.1,30.2,27.5z M32.7,32L32.7,32c0.3,0.2,0.5,0.5,0.3,0.9
			c-0.2,0.3-0.5,0.5-0.8,0.3l0,0l0,0l-7.8-3.8l0,0c-0.3-0.2-0.3-0.5-0.2-0.8c0.1-0.3,0.5-0.4,0.8-0.3l0,0L32.7,32L32.7,32z
			 M45.6,22.7c-0.3-1.1-0.9-1.1-1-1.1h-4.2V27h6.3L45.6,22.7z M30,0C13.4,0,0,13.4,0,30c0,16.6,13.4,30,30,30c16.6,0,30-13.4,30-30
			C60,13.4,46.6,0,30,0z M51.3,40.1h-1.8c-0.3,2.6-2.4,4.5-5,4.5c-2.6,0-4.8-2-5-4.5h-15c-0.3,2.6-2.4,4.5-5,4.5c-2.6,0-4.8-2-5-4.5
			h-3.3c-1.1,0-2-0.9-2-2V16.9c0-1.1,0.9-2,2-2h27.2c1.1,0,2,0.9,2,2v2.2h4.2c1.8,0,3.1,1.2,3.5,3.4l1.1,4.6
			c1.9,0.5,3.3,2.2,3.3,4.2v7.6C52.5,39.6,51.9,40.1,51.3,40.1z M44.4,37.1c-1.4,0-2.5,1.1-2.5,2.5c0,1.4,1.1,2.5,2.5,2.5
			c1.4,0,2.5-1.1,2.5-2.5C47,38.2,45.8,37.1,44.4,37.1z"/>
	</g>
</g>
</svg>
