<?xml version="1.0" encoding="utf-8"?>
<!-- Generator: Adobe Illustrator 23.1.1, SVG Export Plug-In . SVG Version: 6.00 Build 0)  -->
<svg version="1.1" id="icn-q-balloon" xmlns="http://www.w3.org/2000/svg" xmlns:xlink="http://www.w3.org/1999/xlink" x="0px"
	 y="0px" width="40px" height="41.4px" viewBox="0 0 40 41.4" style="enable-background:new 0 0 40 41.4;" xml:space="preserve">
<style type="text/css">
	.st0{fill:#E60012;}
	.st1{fill:#FFFFFF;}
</style>
<path id="circle" class="st0" d="M20,0c11,0,20,8.9,20,19.9c0,3.7-1,7.3-2.9,10.4l1.6,11l-11-2.9C17.5,42.7,5.8,37.9,1.6,27.7
	C-2.7,17.5,2.1,5.8,12.3,1.6C14.7,0.5,17.4,0,20,0L20,0z"/>
<path id="path1" class="st1" d="M26.6,26.3l3.3,4.3h-4.3l-1.7-2.2c-3.9,2-8.7,1.3-11.8-1.8c-3.9-4-3.8-10.3,0.1-14.2
	c0.6-0.6,1.3-1.1,2-1.5c1.5-0.9,3.2-1.4,5-1.4c2.6,0,5.2,1,7,2.9C29.9,16.3,30.1,22.3,26.6,26.3L26.6,26.3z M24.3,23.4
	c0.8-1.1,1.2-2.4,1.2-3.8c0-1.7-0.6-3.4-1.8-4.6c-1.1-1.2-2.8-1.9-4.4-1.9c-1.7,0-3.3,0.6-4.5,1.8c-1.2,1.3-1.9,2.9-1.8,4.7
	c-0.1,1.9,0.8,3.8,2.3,5c1.1,0.9,2.6,1.5,4,1.4c0.8,0,1.7-0.2,2.4-0.5l-3.4-4.4h4.3L24.3,23.4z"/>
</svg>
