<?xml version="1.0" encoding="utf-8"?>
<!-- Generator: Adobe Illustrator 22.0.0, SVG Export Plug-In . SVG Version: 6.00 Build 0)  -->
<svg version="1.1" id="レイヤー_1" xmlns="http://www.w3.org/2000/svg" xmlns:xlink="http://www.w3.org/1999/xlink" x="0px"
	 y="0px" viewBox="0 0 46 46" style="enable-background:new 0 0 46 46;" xml:space="preserve">
<style type="text/css">
	.st0{fill-rule:evenodd;clip-rule:evenodd;fill:#80432D;}
</style>
<g>
	<g>
		<path class="st0" d="M30.3,25.9h0.5c0.3,0,0.5-0.2,0.5-0.5v-7.1c0-0.3-0.2-0.5-0.5-0.5h-0.5c-0.3,0-0.5,0.2-0.5,0.5v7.1
			C29.8,25.7,30,25.9,30.3,25.9z M14.7,22.6h5.6c0.3,0,0.5-0.2,0.5-0.5v-3.7c0-0.3-0.2-0.5-0.5-0.5h-5.6c-0.3,0-0.5,0.2-0.5,0.5v3.7
			C14.2,22.4,14.5,22.6,14.7,22.6z M22.6,22.6h5.6c0.3,0,0.5-0.2,0.5-0.5v-3.7c0-0.3-0.2-0.5-0.5-0.5h-5.6c-0.3,0-0.5,0.2-0.5,0.5
			v3.7C22.1,22.4,22.3,22.6,22.6,22.6z M37.6,26.5c-0.5,0-0.9,0.4-0.9,0.9c0,0.5,0.4,0.9,0.9,0.9c0.5,0,0.9-0.4,0.9-0.9
			C38.5,27,38.1,26.5,37.6,26.5z M32.2,25.9h0.5c0.3,0,0.5-0.2,0.5-0.5v-7.1c0-0.3-0.2-0.5-0.5-0.5h-0.5c-0.3,0-0.5,0.2-0.5,0.5v7.1
			C31.7,25.7,31.9,25.9,32.2,25.9z M13.2,26.5c-0.5,0-0.9,0.4-0.9,0.9c0,0.5,0.4,0.9,0.9,0.9c0.5,0,0.9-0.4,0.9-0.9
			C14.1,27,13.7,26.5,13.2,26.5z M34.5,18.1c-0.3,0-0.5,0.2-0.5,0.5v3.5c0,0.3,0.2,0.5,0.5,0.5h6.8l-1.5-4.6L34.5,18.1z M6,22.6h6.4
			c0.3,0,0.5-0.2,0.5-0.5v-3.7c0-0.3-0.2-0.5-0.5-0.5H6c-0.3,0-0.5,0.2-0.5,0.5v3.7C5.5,22.4,5.8,22.6,6,22.6z M23,0
			C10.3,0,0,10.3,0,23s10.3,23,23,23s23-10.3,23-23S35.7,0,23,0z M13.2,29.8c-1.3,0-2.3-1-2.3-2.3c0-1.3,1-2.3,2.3-2.3
			c1.3,0,2.3,1,2.3,2.3C15.5,28.7,14.4,29.8,13.2,29.8z M37.6,29.8c-1.3,0-2.3-1-2.3-2.3c0-1.3,1-2.3,2.3-2.3c1.3,0,2.3,1,2.3,2.3
			C39.9,28.7,38.9,29.8,37.6,29.8z M41.5,28.4h-0.8c-0.2,0-0.3-0.1-0.4-0.2c0.1-0.2,0.1-0.5,0.1-0.8c0-1.6-1.3-2.8-2.8-2.8
			c-1.6,0-2.8,1.3-2.8,2.8c0,0.1,0,0.2,0,0.3H16c0-0.1,0-0.2,0-0.3c0-1.6-1.3-2.8-2.8-2.8c-1.6,0-2.8,1.3-2.8,2.8c0,0.1,0,0.2,0,0.3
			H4.8C4.4,27.7,4,27.4,4,27V17c0-0.4,0.3-0.8,0.8-0.8h35.5c0.4,0,0.8,0.3,0.8,0.8v1.1h-0.8l1.5,4.6v2.8c0,0.2,0.1,0.3,0.2,0.4
			c0.1,0,0.1,0.1,0.1,0.4v1.7C42,28.2,41.8,28.4,41.5,28.4z M28.7,23.8v-0.2H4.9v0.2C4.9,23.9,5,24,5.1,24h23.3
			C28.6,24,28.7,23.9,28.7,23.8z M36.1,23.8c-1,0.3-1.8,1.2-2.2,2.3c0,0.1-0.1,0.2-0.2,0.2H16.6v0.1c0,0.1,0.1,0.3,0.3,0.3h17.4
			c0.1,0,0.2-0.1,0.2-0.2c0.1-0.9,1.1-1.8,1.9-2.2C36.6,24.1,36.4,23.7,36.1,23.8z"/>
	</g>
</g>
</svg>
