<?xml version="1.0" encoding="utf-8"?>
<!-- Generator: Adobe Illustrator 23.1.0, SVG Export Plug-In . SVG Version: 6.00 Build 0)  -->
<svg version="1.1" id="icon-customer-sorry" xmlns="http://www.w3.org/2000/svg" xmlns:xlink="http://www.w3.org/1999/xlink"
	 x="0px" y="0px" width="31.2px" height="63.9px" viewBox="0 0 31.2 63.9" enable-background="new 0 0 31.2 63.9"
	 xml:space="preserve">
<path id="path3" fill="#E60012" d="M19.9,48.2c-1.7,0-3-1.4-3-3c0-0.4,0.1-0.8,0.2-1.1l4.8-12.2c0.3-0.7-0.1-1.4-0.7-1.7l0,0
	c-0.2-0.1-0.3-0.1-0.5-0.1c-0.5,0-1,0.3-1.2,0.8l-3.9,10l-3.9-10c-0.3-0.7-1-1-1.7-0.7s-1,1-0.7,1.7l4.8,12.2
	c0.6,1.6-0.2,3.3-1.7,3.9c-0.4,0.1-0.7,0.2-1.1,0.2l0,0c-1.2,0-2.3-0.8-2.8-1.9L1.1,27.4c-1.9-4-1.2-8.6,1.6-12
	c2.4,7.1,10.1,10.9,17.2,8.5c4.1-1.4,7.3-4.6,8.6-8.7l0.1,0.1c1.7,2.1,2.5,3.2,2.7,6.6c0.1,3.8-0.8,5.3-0.8,5.4l-7.6,19
	C22.3,47.4,21.2,48.2,19.9,48.2L19.9,48.2z"/>
<path id="path2" fill="#E60012" d="M15.5,22.1c-6.1,0-11-4.9-11-11s4.9-11,11-11s11,4.9,11,11c0,0.5,0,1-0.1,1.6
	C25.6,18,21,22,15.5,22.1z"/>
<path id="path1" fill="#E60012" d="M13.6,63.9c-4.8,0-9.7-2.8-9.7-7.5l-1-17.5l3.3,8.3c1.1,2.9,4.4,4.3,7.2,3.2l0,0
	c0.9-0.4,1.7-0.9,2.3-1.7c0.6,0.8,1.4,1.3,2.3,1.7c2.9,1.1,6.1-0.3,7.3-3.1l2.5-6.3l-1.3,15.4c0,5-4.6,7.6-9.2,7.6L13.6,63.9z"/>
</svg>
