<?xml version="1.0" encoding="utf-8"?>
<!-- Generator: Adobe Illustrator 22.0.0, SVG Export Plug-In . SVG Version: 6.00 Build 0)  -->
<svg version="1.1" id="レイヤー_1" xmlns="http://www.w3.org/2000/svg" xmlns:xlink="http://www.w3.org/1999/xlink" x="0px"
	 y="0px" viewBox="0 0 46 46" style="enable-background:new 0 0 46 46;" xml:space="preserve">
<style type="text/css">
	.st0{fill-rule:evenodd;clip-rule:evenodd;fill:#58AFE3;}
</style>
<g>
	<g>
		<path class="st0" d="M23,11c-6.6,0-12,5.4-12,12c0,6.6,5.4,12,12,12c6.6,0,12-5.4,12-12C35,16.4,29.6,11,23,11z M27.4,24.8
			c-1.4,1.1-3,1.1-5.2,1.1H20v5.7h-3.4V14.5c2,0,8-0.1,9.4,0.3C30.1,16,30.4,22.5,27.4,24.8z M23,0C10.3,0,0,10.3,0,23
			c0,12.7,10.3,23,23,23c12.7,0,23-10.3,23-23C46,10.3,35.7,0,23,0z M23,37.8c-8.2,0-14.8-6.6-14.8-14.8c0-8.2,6.6-14.8,14.8-14.8
			c8.2,0,14.8,6.6,14.8,14.8C37.8,31.2,31.2,37.8,23,37.8z M24,17.7c-0.8-0.2-2.9-0.1-4-0.1v5.2c1.3,0,3.7,0.1,4.5-0.3
			C26.5,21.6,26.4,18.2,24,17.7z"/>
	</g>
</g>
</svg>
