<svg
 xmlns="http://www.w3.org/2000/svg"
 xmlns:xlink="http://www.w3.org/1999/xlink"
 width="81px" height="82px">
<path fill-rule="evenodd"  fill="rgb(255, 255, 255)"
 d="M80.527,12.083 L79.474,13.136 L80.527,14.190 C80.820,14.483 80.984,14.881 80.984,15.296 L80.984,37.452 C80.984,37.866 80.820,38.264 80.527,38.557 L65.182,53.912 C64.572,54.522 63.582,54.522 62.972,53.912 C62.362,53.301 62.362,52.311 62.972,51.700 L77.859,36.803 L77.859,15.944 L77.264,15.348 L75.213,17.400 C75.506,18.012 75.671,18.698 75.671,19.421 C75.671,22.008 73.568,24.112 70.983,24.112 C68.398,24.112 66.295,22.008 66.295,19.421 C66.295,16.835 68.398,14.730 70.983,14.730 C71.706,14.730 72.391,14.895 73.003,15.189 L75.054,13.137 L74.459,12.541 L53.612,12.541 L13.271,52.908 C12.799,53.381 12.538,54.010 12.538,54.679 C12.538,55.348 12.799,55.977 13.271,56.449 L33.979,77.171 C34.452,77.643 35.080,77.904 35.748,77.904 C36.417,77.904 37.045,77.643 37.518,77.171 L53.027,61.651 C53.637,61.041 54.627,61.041 55.237,61.651 C55.848,62.262 55.848,63.252 55.237,63.863 L39.728,79.382 C38.665,80.446 37.252,81.031 35.748,81.031 C34.245,81.031 32.832,80.446 31.769,79.382 L11.061,58.661 C9.998,57.597 9.413,56.183 9.413,54.679 C9.413,53.175 9.998,51.760 11.061,50.697 L20.216,41.535 L6.602,41.535 C3.499,41.535 0.974,39.009 0.974,35.904 L0.974,6.600 C0.974,3.495 3.499,0.969 6.602,0.969 L64.300,0.969 C64.715,0.969 65.112,1.133 65.405,1.427 L73.387,9.414 L75.106,9.414 C75.520,9.414 75.918,9.578 76.211,9.872 L77.264,10.925 L78.317,9.871 C78.927,9.260 79.917,9.260 80.527,9.871 C81.137,10.482 81.137,11.472 80.527,12.083 ZM72.222,18.472 C72.168,18.431 72.115,18.387 72.066,18.337 C72.016,18.288 71.972,18.235 71.931,18.181 C71.667,17.979 71.339,17.857 70.983,17.857 C70.121,17.857 69.420,18.559 69.420,19.421 C69.420,20.283 70.121,20.985 70.983,20.985 C71.844,20.985 72.545,20.283 72.545,19.421 C72.545,19.064 72.424,18.736 72.222,18.472 ZM63.653,4.096 L6.602,4.096 C5.222,4.096 4.100,5.219 4.100,6.600 L4.100,35.904 C4.100,37.285 5.222,38.408 6.602,38.408 L23.342,38.408 L51.860,9.872 C52.153,9.579 52.550,9.414 52.965,9.414 L68.967,9.414 L63.653,4.096 ZM22.214,28.155 C19.051,26.780 17.646,23.022 20.116,17.361 C22.577,11.696 26.294,10.171 29.458,11.553 C32.614,12.928 34.029,16.691 31.560,22.359 C29.093,28.016 25.376,29.541 22.214,28.155 ZM29.095,12.221 C28.530,11.977 27.887,12.203 27.654,12.726 L27.641,12.784 L27.620,12.805 L21.767,26.244 L21.783,26.250 C21.631,26.740 21.906,27.298 22.421,27.524 C22.951,27.760 23.528,27.574 23.810,27.130 L23.820,27.132 L29.671,13.692 L29.674,13.671 L29.710,13.618 C29.932,13.101 29.659,12.468 29.095,12.221 ZM15.621,29.211 C12.704,29.594 10.011,27.460 9.327,22.225 C8.643,16.997 10.691,14.246 13.620,13.862 C15.649,13.592 17.553,14.577 18.763,16.944 C17.892,18.983 17.443,20.892 17.443,22.618 C17.442,24.409 17.944,25.970 18.847,27.210 C18.056,28.355 16.939,29.039 15.621,29.211 ZM16.422,27.511 L16.416,27.488 L14.789,15.072 L14.781,15.071 C14.668,14.639 14.224,14.356 13.747,14.421 C13.260,14.481 12.910,14.868 12.907,15.313 L12.893,15.316 L14.524,27.738 L14.532,27.757 L14.527,27.807 C14.592,28.288 15.072,28.629 15.590,28.563 C16.115,28.496 16.489,28.046 16.423,27.555 L16.422,27.511 ZM43.987,40.707 C44.773,40.584 45.550,40.906 46.091,41.469 C46.583,41.982 46.873,42.704 46.791,43.411 C46.700,44.175 46.217,44.765 45.686,45.272 L45.172,45.763 L47.834,48.538 L47.126,49.215 L41.043,42.874 L42.088,41.876 C42.636,41.353 43.217,40.830 43.987,40.707 ZM44.542,45.107 L45.014,44.656 C45.798,43.908 46.238,43.037 45.367,42.128 C44.374,41.094 43.467,41.816 42.641,42.604 L42.380,42.854 L44.542,45.107 ZM38.100,57.837 L35.623,56.754 L32.909,59.346 L33.869,61.878 L33.094,62.619 L29.652,53.174 L38.883,57.088 L38.100,57.837 ZM31.217,54.838 L32.566,58.417 L34.716,56.364 L31.217,54.838 ZM30.041,64.488 C30.757,63.803 31.134,62.799 31.155,61.811 L31.994,62.686 C31.826,63.604 31.369,64.475 30.695,65.119 C28.900,66.834 25.987,66.829 24.260,65.029 C22.518,63.212 22.581,60.299 24.402,58.560 C25.110,57.884 25.927,57.490 26.895,57.371 L27.734,58.246 C26.728,58.207 25.722,58.556 24.989,59.257 C23.573,60.609 23.605,62.932 24.944,64.328 C26.283,65.723 28.616,65.848 30.041,64.488 ZM46.317,49.988 L45.592,50.680 L40.660,47.172 L40.643,47.188 L42.960,53.694 L36.555,51.093 L36.539,51.109 L39.836,56.179 L39.111,56.871 L33.970,48.937 L41.387,52.054 L38.597,44.518 L46.317,49.988 ZM52.463,40.669 L49.749,43.261 L50.709,45.793 L49.933,46.534 L46.492,37.089 L55.723,41.003 L54.939,41.752 L52.463,40.669 ZM48.056,38.753 L49.406,42.331 L51.555,40.279 L48.056,38.753 ZM51.055,33.310 L57.139,39.650 L56.431,40.326 L50.347,33.986 L51.055,33.310 ZM59.105,56.217 C59.516,56.217 59.919,56.385 60.210,56.676 C60.500,56.966 60.668,57.370 60.668,57.781 C60.668,58.192 60.500,58.596 60.210,58.886 C59.919,59.178 59.516,59.345 59.105,59.345 C58.692,59.345 58.291,59.177 58.000,58.886 C57.709,58.596 57.542,58.192 57.542,57.781 C57.542,57.370 57.709,56.966 58.000,56.676 C58.291,56.385 58.692,56.217 59.105,56.217 ZM54.854,35.903 C53.111,34.087 53.175,31.190 55.003,29.443 C56.116,28.380 57.494,28.015 59.007,28.246 L58.953,29.216 C57.704,28.975 56.560,29.214 55.624,30.107 C54.175,31.492 54.199,33.806 55.570,35.235 C56.216,35.908 57.099,36.290 58.031,36.318 C58.938,36.338 59.943,36.038 60.608,35.403 C61.713,34.348 62.101,32.430 60.972,31.253 L59.084,33.056 L58.454,32.400 L61.101,29.872 C61.941,30.714 62.526,31.508 62.590,32.737 C62.653,33.965 62.140,35.197 61.255,36.042 C59.468,37.749 56.565,37.686 54.854,35.903 ZM64.867,32.382 L58.525,25.773 L68.451,26.219 L63.739,21.309 L64.447,20.632 L70.805,27.258 L60.887,26.821 L65.575,31.706 L64.867,32.382 Z"/>
</svg>
