<?xml version="1.0" encoding="utf-8"?>
<!-- Generator: Adobe Illustrator 23.1.1, SVG Export Plug-In . SVG Version: 6.00 Build 0)  -->
<svg version="1.1" id="icn-a-balloon" xmlns="http://www.w3.org/2000/svg" xmlns:xlink="http://www.w3.org/1999/xlink" x="0px"
	 y="0px" width="40px" height="41.4px" viewBox="0 0 40 41.4" style="enable-background:new 0 0 40 41.4;" xml:space="preserve">
<style type="text/css">
	.st0{fill:#707070;}
	.st1{fill:#FFFFFF;}
</style>
<path id="bg" class="st0" d="M20,0c11,0,20,8.9,20,19.9c0,3.7-1,7.3-2.9,10.4l1.6,11l-11-2.9C17.5,42.7,5.8,37.9,1.6,27.7
	C-2.7,17.5,2.1,5.8,12.3,1.6C14.7,0.5,17.4,0,20,0L20,0z"/>
<path id="path" class="st1" d="M18.5,9.5h4.1l8.1,21.1h-4.2l-1.7-4.3h-8.6l-1.7,4.3h-4.2L18.5,9.5z M20.5,15.1l-2.8,7.2h5.6
	L20.5,15.1z"/>
</svg>
