<?xml version="1.0" encoding="utf-8"?>
<!-- Generator: Adobe Illustrator 22.0.0, SVG Export Plug-In . SVG Version: 6.00 Build 0)  -->
<svg version="1.1" id="レイヤー_1" xmlns="http://www.w3.org/2000/svg" xmlns:xlink="http://www.w3.org/1999/xlink" x="0px"
	 y="0px" viewBox="0 0 22 20" style="enable-background:new 0 0 22 20;" xml:space="preserve">
<style type="text/css">
	.st0{fill:#F29600;}
	.st1{fill:#EFECEA;}
	.st2{fill:#FFFFFF;}
</style>
<g>
	<g id="ショップ_1_">
		<g>
			<g>
				<path class="st0" d="M19.4,11.3c-0.9,3.7-4.9,6.7-9,6.7c-4.1,0-7.6-4-7.8-9c-0.2-5,3.8-8,9-6.7C16.7,3.5,20.2,7.5,19.4,11.3z"/>
				<path class="st1" d="M9.2,2c0.7,0,1.5,0.1,2.3,0.3c5.2,1.2,8.7,5.3,7.8,9c-0.9,3.7-4.9,6.7-9,6.7c-4.1,0-7.6-4-7.8-9
					C2.3,4.8,5.2,2,9.2,2 M9.2,0.5L9.2,0.5c-2.4,0-4.6,0.9-6.1,2.4C1.7,4.5,0.9,6.7,1,9.1c0.2,5.7,4.4,10.4,9.3,10.4
					c4.9,0,9.5-3.5,10.5-7.9c1.1-4.6-2.9-9.3-9-10.8C11,0.6,10.1,0.5,9.2,0.5L9.2,0.5z"/>
			</g>
		</g>
	</g>
	<polygon class="st2" points="13.3,14.6 15,14.5 14.9,13.1 14.1,13.1 12.1,9.5 14.9,6 12.7,5.8 9.7,9.3 9.1,4.3 6,4.1 6.3,5.4 
		7.2,5.4 8.7,13.6 7.8,13.6 8,15 11.6,14.6 11.4,13.3 10.3,13.3 10.1,11.9 10.9,11 	"/>
</g>
</svg>
