<?xml version="1.0" encoding="utf-8"?>
<!-- Generator: Adobe Illustrator 22.0.0, SVG Export Plug-In . SVG Version: 6.00 Build 0)  -->
<svg version="1.0" id="レイヤー_1" xmlns="http://www.w3.org/2000/svg" xmlns:xlink="http://www.w3.org/1999/xlink" x="0px"
	 y="0px" viewBox="0 0 30 30" style="enable-background:new 0 0 30 30;" xml:space="preserve">
<style type="text/css">
	.st0{fill:#FF0000;}
</style>
<path class="st0" d="M15,10.7c-0.3,0-0.4-0.1-0.4-0.4V7.2c0-0.3,0.1-0.4,0.4-0.4c0.3,0,0.4,0.1,0.4,0.4v3.1
	C15.4,10.5,15.3,10.7,15,10.7z M23,24.3c0.3-0.2,0.5-0.8,0.6-1.6c0.1-0.8,0.2-1.6,0.2-2.3l0-1c0-2.7-0.3-4.4-0.9-4.9
	c-0.3-0.2-1.1-0.4-2.4-0.6c-1.3-0.1-2.6-0.2-3.8-0.2l-1.8,0c-4.7,0-7.4,0.3-7.9,0.8c-0.2,0.2-0.4,0.8-0.6,1.6
	c-0.1,0.8-0.2,1.6-0.3,2.3l0,1.1c0,2.7,0.3,4.3,0.9,4.9c0.3,0.2,1.1,0.4,2.4,0.6c1.3,0.1,2.6,0.2,3.8,0.3H15
	C19.8,25.1,22.4,24.8,23,24.3z M10,3.8H8.5l1.6,4.5v3.2h1.5V8.3l1.5-4.5h-1.5l-0.8,2.9L10,3.8z M13.4,7.3v2.8c0,0.4,0.2,0.8,0.5,1.2
	c0.3,0.3,0.7,0.5,1.1,0.5c0.4,0,0.8-0.2,1.2-0.5c0.3-0.3,0.5-0.7,0.5-1.2V7.3c0-0.4-0.2-0.8-0.5-1.2c-0.3-0.3-0.7-0.5-1.2-0.5
	c-0.4,0-0.8,0.2-1.1,0.5C13.6,6.5,13.4,6.9,13.4,7.3z M18.5,11.6c0.4,0,0.8-0.2,1.3-0.5v0.5H21V5.8h-1.3v4.3
	c-0.2,0.2-0.4,0.4-0.6,0.4c-0.1,0-0.2-0.1-0.2-0.3V5.8h-1.3v4.8C17.6,11.3,17.9,11.6,18.5,11.6z M15,0.3c4.1,0,7.6,1.4,10.5,4.3
	c2.9,2.9,4.3,6.3,4.3,10.4c0,4.1-1.4,7.5-4.3,10.4c-2.9,2.9-6.4,4.3-10.5,4.3c-4.1,0-7.6-1.4-10.5-4.3C1.6,22.5,0.2,19.1,0.2,15
	c0-4.1,1.4-7.5,4.3-10.4C7.4,1.7,10.9,0.3,15,0.3z M20.2,19v0.5h1V19c0-0.4-0.2-0.6-0.5-0.6C20.3,18.5,20.2,18.6,20.2,19z
	 M20.7,17.5c0.4,0,0.8,0.1,1,0.4c0.3,0.3,0.4,0.6,0.4,1.1v1.3h-2v1c0,0.3,0.1,0.5,0.2,0.6c0.2,0.1,0.3,0.1,0.5,0
	c0.2-0.1,0.3-0.3,0.3-0.6v-0.2h1v0.2c0,0.7-0.3,1.1-0.8,1.4c-0.5,0.3-1,0.3-1.5,0c-0.5-0.3-0.8-0.7-0.8-1.4V19
	c0-0.4,0.1-0.8,0.4-1.1C19.9,17.7,20.2,17.5,20.7,17.5z M17.4,21.6v-2.7c0-0.3-0.1-0.5-0.3-0.5c-0.2-0.1-0.4,0-0.6,0.2v3.2
	c0.1,0.1,0.2,0.2,0.4,0.2c0.1,0,0.3,0,0.4,0C17.3,21.9,17.4,21.8,17.4,21.6z M17.5,17.6c0.6,0,0.9,0.4,0.9,1.3v2.8
	c0,0.3-0.1,0.6-0.3,0.8c-0.2,0.2-0.4,0.3-0.7,0.3c-0.2,0-0.4,0-0.5-0.1c-0.2-0.1-0.3-0.2-0.3-0.2l-0.1-0.1v0.4h-1v-6.9h1v2.2
	C16.8,17.8,17.1,17.6,17.5,17.6z M13.7,21.6v-3.9h1v5.1h-1v-0.5c-0.2,0.2-0.5,0.4-0.8,0.5c-0.3,0.1-0.6,0.1-0.8,0
	c-0.2-0.1-0.4-0.4-0.4-0.8v-4.3h1v3.9c0.1,0.3,0.2,0.4,0.4,0.3C13.4,21.9,13.5,21.7,13.7,21.6z M7.6,16.9v-1h3.6v1H10v5.9H8.8v-5.9
	H7.6z"/>
</svg>
