<svg xmlns="http://www.w3.org/2000/svg" width="24.015" height="17.154" viewBox="0 0 24.015 17.154">
  <g id="Icons_with_numbers" data-name="Icons with numbers" transform="translate(-681.124 -401.934)">
    <g id="Group" transform="translate(681.124 401.934)">
      <path id="Shape" d="M696.1,411.342l8.49,7.277a1.731,1.731,0,0,1-1.18.468h-20.56a1.748,1.748,0,0,1-1.186-.466l8.5-7.28,2.97,2.6Zm-2.97.883L681.671,402.4a1.719,1.719,0,0,1,1.181-.468h20.56a1.723,1.723,0,0,1,1.183.466Zm12.007,5.466-8.29-7.045,8.29-7.21v14.254Zm-24.015,0V403.442l8.29,7.2-8.29,7.045Z" transform="translate(-681.124 -401.934)" fill="#fff"/>
    </g>
  </g>
</svg>
