<svg xmlns="http://www.w3.org/2000/svg" width="38" height="48.485" viewBox="0 0 38 48.485">
  <g id="グループ_31" data-name="グループ 31" transform="translate(-55.488 -510.481)">
    <path id="パス_53" data-name="パス 53" d="M62.313,526.954a1.691,1.691,0,0,0,1.527-1.816c0-1.012-1.07-3.5-1.527-3.5s-1.527,2.492-1.527,3.5A1.691,1.691,0,0,0,62.313,526.954Z" transform="translate(10.048 21.319)" fill="#e60012"/>
    <path id="パス_54" data-name="パス 54" d="M93.445,550.085c-.014-.108-.368-2.727-.939-5.389-.907-4.235-1.841-6.685-3.939-6.685H82.343L83.4,534.2h2.287a4.229,4.229,0,0,0,3.377-1.453c1.67-1.984,1.2-5.176,1.142-5.532a1.21,1.21,0,0,0-1.194-1.019H85.134l.348-1.526h1.145c4.424,0,6.232-3.091,6.232-5.995,0-2.45-1.116-5.089-4.815-5.089h-.032l.368-1.611a1.22,1.22,0,0,0-1.18-1.491H58.6a1.207,1.207,0,0,0-.948.46,1.22,1.22,0,0,0-.235,1.031l3.25,14.221H56.787a1.213,1.213,0,0,0-1.194,1.019c-.058.355-.528,3.548,1.145,5.532a4.218,4.218,0,0,0,3.374,1.453H62.4l1.139,4.113v2.022a21.7,21.7,0,0,0-5.945,9.222c-.577,1.611-1.774,4.963-.119,7.326.968,1.384,2.684,2.086,5.1,2.086H83.221c2.421,0,4.137-.7,5.1-2.086,1.652-2.362.455-5.715-.206-7.565a22.106,22.106,0,0,0-4.525-7.676h4.684c.759,0,1.925,5.162,2.429,8.931.136.99.7,1.687,1.681,1.506C93.459,551.873,93.575,551.072,93.445,550.085Zm-5.4-33.446c1.623,0,2.1.8,2.1,2.034,0,1.462-.829,2.942-3.513,2.942h-.446l1.136-4.975ZM60.12,512.916H85.676l-3.032,13.277H63.152ZM58.59,531.171a4.14,4.14,0,0,1-.675-2.54H87.882a4.179,4.179,0,0,1-.67,2.537,1.81,1.81,0,0,1-1.528.594H60.112A1.8,1.8,0,0,1,58.59,531.171Zm21.289,6.647a.866.866,0,0,0-.02.151H65.941a1.261,1.261,0,0,0-.023-.151l-.954-3.434H80.832Zm6.461,17.661c-.487.7-1.536,1.049-3.119,1.049H62.576c-1.583,0-2.632-.352-3.119-1.049-.931-1.328.017-3.973.507-5.354a18.1,18.1,0,0,1,5.493-8.217,1.193,1.193,0,0,0,.194-.224h14.5a1.179,1.179,0,0,0,.191.224c.038.026,3.516,2.592,5.583,8.468C86.326,551.506,87.273,554.151,86.34,555.479Z" transform="translate(0 0)" fill="#e60012"/>
    <path id="パス_55" data-name="パス 55" d="M60.686,528.491h17.54c4.349,0,3.919-2.237,3.331-3.927h-24.2C56.768,526.255,56.335,528.491,60.686,528.491Z" transform="translate(2.893 26.91)" fill="#e60012"/>
  </g>
</svg>
