<?xml version="1.0" encoding="utf-8"?>
<!-- Generator: Adobe Illustrator 22.0.0, SVG Export Plug-In . SVG Version: 6.00 Build 0)  -->
<svg version="1.1" id="レイヤー_1" xmlns="http://www.w3.org/2000/svg" xmlns:xlink="http://www.w3.org/1999/xlink" x="0px"
	 y="0px" viewBox="0 0 30 30" style="enable-background:new 0 0 30 30;" xml:space="preserve">
<style type="text/css">
	.st0{fill:#1EA2F2;}
</style>
<path class="st0" d="M22.2,11.8c0,0.2,0.1,0.3,0.1,0.5c0,2.6-0.9,4.9-2.8,7c-1.9,2.1-4.3,3.1-7.4,3.1c-2,0-3.8-0.5-5.4-1.6
	c0.3,0,0.5,0.1,0.8,0.1c1.6,0,3.1-0.5,4.4-1.5c-0.8,0-1.5-0.3-2.1-0.7c-0.6-0.5-1-1-1.2-1.8c0.2,0,0.5,0.1,0.7,0.1
	c0.3,0,0.6,0,1-0.1c-0.8-0.2-1.5-0.6-2.1-1.2c-0.5-0.6-0.8-1.4-0.8-2.3v-0.1c0.5,0.3,1,0.5,1.6,0.5c-1.1-0.7-1.6-1.7-1.6-2.9
	c0-0.6,0.2-1.2,0.5-1.8c1.9,2.3,4.3,3.6,7.4,3.7c-0.1-0.3-0.1-0.5-0.1-0.9c0-1,0.3-1.8,1-2.5c0.7-0.7,1.5-1,2.5-1
	c1.1,0,1.9,0.4,2.6,1.1c0.8-0.2,1.6-0.4,2.3-0.9c-0.3,0.9-0.8,1.5-1.5,2c0.7-0.1,1.4-0.3,2-0.6C23.5,10.6,22.9,11.2,22.2,11.8z
	 M15,0.5c-4,0-7.4,1.4-10.3,4.2C1.9,7.6,0.5,11,0.5,15c0,4,1.4,7.4,4.2,10.3c2.8,2.8,6.3,4.2,10.3,4.2c4,0,7.4-1.4,10.3-4.2
	c2.8-2.8,4.2-6.3,4.2-10.3c0-4-1.4-7.4-4.2-10.3C22.4,1.9,19,0.5,15,0.5z"/>
</svg>
