<svg xmlns="http://www.w3.org/2000/svg" width="32.988" height="34.24" viewBox="0 0 32.988 34.24">
  <g id="グループ_35" data-name="グループ 35" transform="translate(-267.82 -512.568)">
    <g id="グループ_34" data-name="グループ 34" transform="translate(267.82 512.568)">
      <g id="グループ_33" data-name="グループ 33">
        <path id="パス_61" data-name="パス 61" d="M288.142,517.608c2.579,2.575,2.608,6.531-1.817,10.483s-8.578,3.718-11.168,1.117c-2.593-2.56-2.608-6.512,1.813-10.465,4.417-3.97,8.582-3.718,11.172-1.135m-12.728,9.736a1.045,1.045,0,0,0,.176,1.407,1.217,1.217,0,0,0,1.487.238l.011.011,10.49-9.406.029,0,.037-.037a1.028,1.028,0,0,0-.1-1.505,1.16,1.16,0,0,0-1.571-.172l-.044.048h-.015l-10.5,9.391,0,.029" transform="translate(-256.915 -496.882)" fill="#e60012"/>
        <path id="パス_62" data-name="パス 62" d="M277.146,510.814c3.505-.985,6.97.927,8.249,6.718s-.963,9.3-4.5,10.289c-3.5,1-6.952-.92-8.234-6.71s.96-9.3,4.483-10.3m2.249,15.867a1.055,1.055,0,0,0,1.315.539,1.222,1.222,0,0,0,.938-1.179l.015-.007L278.6,512.279l.011-.026-.015-.048a1.031,1.031,0,0,0-1.366-.648,1.16,1.16,0,0,0-.919,1.286l.022.059-.007.015,3.044,13.758.026.007" transform="translate(-259.837 -510.568)" fill="#e60012"/>
        <path id="パス_63" data-name="パス 63" d="M273.574,532.225c-3.491-1.084-5.663-4.637-4.242-10.424,1.4-5.772,4.893-7.6,8.381-6.531s5.648,4.652,4.234,10.413c-1.4,5.776-4.886,7.615-8.373,6.542m4.959-15.1a1.237,1.237,0,0,0-.9-1.212,1.067,1.067,0,0,0-1.352.527l-.018-.011-3.333,13.706,0,.037-.026.04a1.2,1.2,0,0,0,.9,1.319,1.031,1.031,0,0,0,1.374-.626l.018-.062,0-.018,3.344-13.7h-.008" transform="translate(-268.892 -498.815)" fill="#e60012"/>
      </g>
    </g>
  </g>
</svg>
