<?xml version="1.0" encoding="utf-8"?>
<!-- Generator: Adobe Illustrator 22.0.0, SVG Export Plug-In . SVG Version: 6.00 Build 0)  -->
<svg version="1.1" id="レイヤー_1" xmlns="http://www.w3.org/2000/svg" xmlns:xlink="http://www.w3.org/1999/xlink" x="0px"
	 y="0px" viewBox="0 0 60 60" style="enable-background:new 0 0 60 60;" xml:space="preserve">
<style type="text/css">
	.st0{fill:#E60012;}
</style>
<g>
	<g>
		<path class="st0" d="M44.3,16.4c-1-0.4-2.1,0-2.5,0.9l0,0.1l0,0l-10,22.9l0,0c-0.3,0.8,0.2,1.8,1.1,2.2c0.9,0.4,1.9,0.1,2.4-0.7
			l0,0l10-22.9l0,0l0.1-0.1C45.7,17.9,45.2,16.9,44.3,16.4z M22.6,42.5L22.6,42.5l-2.8-21.2l0,0c-0.2-0.7-1-1.2-1.8-1.1
			c-0.8,0.1-1.4,0.8-1.4,1.5l0,0l2.8,21.2l0,0l0,0.1c0.1,0.8,0.9,1.4,1.8,1.3C22.1,44.2,22.7,43.4,22.6,42.5L22.6,42.5z M30,0
			C13.4,0,0,13.4,0,30c0,16.6,13.4,30,30,30c16.6,0,30-13.4,30-30C60,13.4,46.6,0,30,0z M21.3,45.4c-5,0.7-9.6-3-10.7-11.9
			c-1.2-8.9,2.3-13.6,7.3-14.3c3.5-0.5,6.7,1.2,8.8,5.3c-1.5,3.5-2.3,6.7-2.3,9.7c0,3.1,0.9,5.7,2.4,7.8
			C25.4,44,23.5,45.1,21.3,45.4z M48.5,33.7c-4.2,9.7-10.6,12.3-16,9.9c-5.4-2.3-7.8-8.8-3.6-18.4c4.2-9.7,10.5-12.3,15.9-9.9
			C50.3,17.7,52.7,24.1,48.5,33.7z"/>
	</g>
</g>
</svg>
