<?xml version="1.0" encoding="utf-8"?>
<!-- Generator: Adobe Illustrator 22.0.0, SVG Export Plug-In . SVG Version: 6.00 Build 0)  -->
<svg version="1.1" id="レイヤー_1" xmlns="http://www.w3.org/2000/svg" xmlns:xlink="http://www.w3.org/1999/xlink" x="0px"
	 y="0px" viewBox="0 0 60 60" style="enable-background:new 0 0 60 60;" xml:space="preserve">
<style type="text/css">
	.st0{fill-rule:evenodd;clip-rule:evenodd;fill:none;}
	.st1{fill:#E60012;}
</style>
<g>
	<path class="st0" d="M30,1.2c15.9,0,28.8,12.9,28.8,28.8c0,15.9-12.9,28.8-28.8,28.8S1.2,45.9,1.2,30C1.2,14.1,14.1,1.2,30,1.2z"/>
	<path class="st1" d="M30,0C13.4,0,0,13.4,0,30c0,16.6,13.4,30,30,30c16.6,0,30-13.4,30-30C60,13.4,46.6,0,30,0z M29.7,14.7
		c1-2.5,1-4.5,0.1-7.5c1.2,0.5,2,1.7,2.3,2.7c0.6,2,0.6,3.7-0.6,6.4c-0.8,1.8-0.7,3.2-0.1,5.5C29.7,21,28.6,17.4,29.7,14.7z
		 M46.8,46c-2.2,1.2-9.6,3-16.8,3c-7.2,0-14.6-1.7-16.8-3c-0.2-0.1-0.3-0.4-0.3-0.6c0-0.4,0.3-0.6,0.6-0.6h11.3
		c-4.4-2.7-6.8-9.2-6.8-18.6c0-1.6,5.5-2.9,12.3-2.9c6.8,0,12.3,1.3,12.3,2.9c0,1.2-0.1,2.4-0.1,3.5l2.5-0.2l0,0c0.1,0,0.1,0,0.2,0
		c0.9,0,1.7,0.8,1.7,1.9c0,0.6-0.3,1.2-0.8,1.5l0,0l-5,4.3c-1.2,3.5-2.9,6-5.3,7.5h10.9c0.3,0,0.6,0.3,0.6,0.6
		C47.2,45.7,47.1,45.9,46.8,46z"/>
	<path class="st1" d="M30.2,26.2c-4.5,0-8.5,0.6-10.6,1.5c2.1,0.9,6.1,1.4,10.6,1.4c4.5,0,8.5-0.6,10.6-1.4
		C38.7,26.7,34.7,26.2,30.2,26.2z"/>
</g>
</svg>
