<?xml version="1.0" encoding="utf-8"?>
<!-- Generator: Adobe Illustrator 22.0.0, SVG Export Plug-In . SVG Version: 6.00 Build 0)  -->
<svg version="1.1" id="レイヤー_1" xmlns="http://www.w3.org/2000/svg" xmlns:xlink="http://www.w3.org/1999/xlink" x="0px"
	 y="0px" viewBox="0 0 60 60" style="enable-background:new 0 0 60 60;" xml:space="preserve">
<style type="text/css">
	.st0{fill-rule:evenodd;clip-rule:evenodd;fill:#FFFFFF;}
	.st1{fill:#E60012;}
</style>
<g>
	<path class="st0" d="M30.1,1.5c15.9,0,28.8,12.9,28.8,28.8c0,15.9-12.9,28.8-28.8,28.8S1.3,46.2,1.3,30.3
		C1.3,14.4,14.2,1.5,30.1,1.5z"/>
	<path class="st1" d="M47.1,28.5l-1.9-0.3c-1.3-0.2-2.7-1.3-3.1-2.5l-0.6-1.4c-0.6-1.1-0.4-2.8,0.4-3.9l1.2-1.6
		c0.1-0.2,0.1-0.6-0.1-0.7l-1.3-1.3c-0.1-0.1-0.2-0.1-0.4-0.1c-0.1,0-0.2,0-0.3,0.1l-1.6,1.2c-0.6,0.5-1.5,0.7-2.3,0.7
		c-0.6,0-1.2-0.1-1.6-0.4c-0.8-0.4-3.6-2-3.8-3.6l-0.2-2c0-0.2-0.3-0.5-0.5-0.5h-1.9c-0.2,0-0.5,0.2-0.5,0.5l-0.3,2
		c-0.2,1.3-1.3,2.7-2.6,3.1l-1.4,0.6c-0.4,0.2-1,0.3-1.6,0.3c-0.9,0-1.7-0.3-2.3-0.7l-1.6-1.2c-0.1-0.1-0.2-0.1-0.3-0.1
		c-0.2,0-0.3,0.1-0.4,0.1l-1.3,1.3c-0.2,0.2-0.2,0.5,0,0.7l1.2,1.5c0.8,1.1,1,2.8,0.4,4l-0.6,1.4c-0.4,1.2-1.7,2.3-3,2.5l-1.9,0.2
		c-0.2,0-0.5,0.3-0.5,0.5v1.9c0,0.2,0.2,0.5,0.5,0.5l1.9,0.2c1.3,0.2,2.7,1.3,3.1,2.6l0.6,1.4c0.6,1.1,0.4,2.8-0.3,3.9l-1.1,1.6
		c-0.1,0.2-0.1,0.6,0.1,0.8l1.3,1.2c0.1,0.1,0.2,0.1,0.4,0.1c0.1,0,0.2,0,0.3-0.1l1.5-1.2c0.6-0.5,1.4-0.7,2.3-0.7
		c0.6,0,1.2,0.1,1.7,0.4c0.8,0.4,3.6,2,3.8,3.6l0.2,1.9c0,0.2,0.3,0.5,0.5,0.5h1.9c0.2,0,0.5-0.2,0.5-0.5l0.3-1.9
		c0.2-1.3,1.3-2.7,2.6-3.1l1.4-0.6c0.4-0.2,1-0.3,1.6-0.3c0.9,0,1.7,0.3,2.3,0.7l1.6,1.1c0.1,0.1,0.2,0.1,0.3,0.1
		c0.2,0,0.3-0.1,0.4-0.2l1.3-1.3c0.2-0.2,0.2-0.5,0-0.7L42,39.5c-0.8-1.1-1-2.8-0.3-4c0.3-0.6,0.5-1.2,0.5-1.2
		c0.4-1.3,1.7-2.4,3.1-2.6l1.9-0.2c0.2,0,0.5-0.3,0.5-0.5v-1.9C47.6,28.8,47.4,28.6,47.1,28.5z M30,37.9c-4.3,0-7.9-3.5-7.9-7.9
		c0-4.3,3.5-7.9,7.9-7.9c4.3,0,7.9,3.5,7.9,7.9C37.9,34.3,34.3,37.9,30,37.9z"/>
	<path class="st1" d="M30,0C13.4,0,0,13.4,0,30c0,16.6,13.4,30,30,30c16.6,0,30-13.4,30-30C60,13.4,46.6,0,30,0z M50.1,30.9
		c0,1.5-1.2,2.8-2.6,3l-1.9,0.2c-0.4,0-0.9,0.5-1,0.8c0,0.1-0.3,0.9-0.7,1.7c-0.2,0.3-0.1,1,0.1,1.3l1.2,1.5c0.9,1.2,0.8,2.9-0.3,4
		l-1.3,1.3c-0.6,0.6-1.4,0.9-2.2,0.9c-0.7,0-1.3-0.2-1.8-0.6l-1.6-1.1c-0.2-0.1-0.5-0.2-0.8-0.2c-0.2,0-0.4,0-0.5,0.1l-1.6,0.7
		c-0.4,0.1-0.9,0.7-0.9,1L34,47.5c-0.2,1.5-1.5,2.6-3,2.6h-1.9c-1.5,0-2.8-1.2-3-2.6l-0.2-1.9c-0.1-0.1-1.3-1-2.5-1.7
		c-0.1-0.1-0.3-0.1-0.5-0.1c-0.3,0-0.6,0.1-0.8,0.2l-1.5,1.2c-0.5,0.4-1.2,0.6-1.8,0.6c-0.8,0-1.6-0.3-2.2-0.9l-1.3-1.2
		c-1.1-1-1.2-2.8-0.3-4l1.1-1.6c0.2-0.3,0.3-1,0.1-1.3l-0.7-1.6c-0.2-0.5-0.7-0.9-1-0.9l-1.9-0.2c-1.5-0.2-2.7-1.5-2.7-3v-1.9
		c0-1.5,1.2-2.8,2.6-3l1.9-0.2c0.4,0,0.9-0.5,1-0.8l0.7-1.6c0.2-0.5,0.2-1.1-0.1-1.4l-1.2-1.5c-0.9-1.2-0.8-2.9,0.2-4l1.3-1.3
		c0.6-0.6,1.3-0.9,2.2-0.9c0.7,0,1.3,0.2,1.8,0.6l1.6,1.2c0.2,0.1,0.5,0.2,0.8,0.2c0.2,0,0.4,0,0.5-0.1l1.6-0.7
		c0.4-0.1,0.9-0.7,0.9-1l0.3-2c0.2-1.5,1.5-2.6,3-2.6h1.9c1.5,0,2.8,1.2,3,2.7l0.2,2c0.1,0.1,1.3,1,2.5,1.7c0.1,0.1,0.3,0.1,0.5,0.1
		c0.3,0,0.6-0.1,0.8-0.2l1.6-1.2c0.5-0.4,1.2-0.6,1.8-0.6c0.8,0,1.6,0.3,2.2,0.9l1.3,1.3c1.1,1.1,1.2,2.8,0.3,4l-1.2,1.6
		c-0.2,0.3-0.3,1-0.1,1.3l0.7,1.6c0.2,0.5,0.7,0.9,1.1,0.9l1.9,0.3c1.5,0.2,2.6,1.5,2.6,3V30.9z"/>
	<path class="st1" d="M30,23.7c-3.5,0-6.3,2.8-6.3,6.3c0,3.5,2.8,6.3,6.3,6.3c3.5,0,6.3-2.8,6.3-6.3C36.3,26.5,33.5,23.7,30,23.7z"
		/>
</g>
</svg>
