<?xml version="1.0" encoding="utf-8"?>
<!-- Generator: Adobe Illustrator 22.0.0, SVG Export Plug-In . SVG Version: 6.00 Build 0)  -->
<svg version="1.1" id="レイヤー_1" xmlns="http://www.w3.org/2000/svg" xmlns:xlink="http://www.w3.org/1999/xlink" x="0px"
	 y="0px" viewBox="0 0 60 60" style="enable-background:new 0 0 60 60;" xml:space="preserve">
<style type="text/css">
	.st0{fill:#FFFFFF;}
</style>
<g>
	<g>
		<path class="st0" d="M24,14c-0.2-0.1-0.4-0.1-0.6-0.1c-0.3,0-0.6,0.1-0.8,0.3c-0.2,0.3-0.1,0.7,0,1c0.5,1.9,3.3,3.1,5.1,3.7
			C26.9,16.3,25.7,14.8,24,14z M30,0C13.4,0,0,13.4,0,30c0,16.6,13.4,30,30,30c16.6,0,30-13.4,30-30C60,13.4,46.6,0,30,0z
			 M46.3,29.6h-1.9v13.3H15.6V29.6h-1.9V20h11.5c-1.9-0.8-3.9-2.2-4.6-4.3c-0.7-2.4,0.9-3.8,2.7-3.8c0.5,0,1,0.1,1.4,0.3
			c2.4,1.1,4.2,3.5,5.1,7.4c0,0,1.2-4.8,5.1-7.4c1-0.7,1.9-1,2.7-1h0c2.3,0,3.3,2.5,1.4,5.3c-1,1.5-2.4,2.7-3.9,3.5h11.1V29.6z
			 M36.1,13.8c-2.2,1.5-3.4,3.9-4,5.3c1.9-0.5,4-1.7,5.3-3.7c0.7-1,0.7-1.8,0.6-2.1c0,0-0.1-0.1-0.3-0.1v-2l0,2
			C37.5,13.2,36.9,13.3,36.1,13.8z M21.7,34.5c0.3,0,0.9,0.1,1.2,0.5c0.2,0.3,0.2,0.5,0.2,0.7h1.6c0-0.4,0-0.9-0.5-1.5
			c-0.6-0.6-1.5-0.9-2.4-0.9c-2.1,0-3.7,1.3-3.7,3.8c0,0.7,0.1,1.8,0.9,2.6c0.6,0.5,1.4,0.9,3,0.9c1.4,0,2.1-0.2,2.6-0.4v-3.5h-2.9
			V38H23v1.5c-0.2,0-0.4,0.1-1.1,0.1c-0.8,0-1.3-0.2-1.6-0.6c-0.5-0.6-0.6-1.4-0.6-1.9C19.6,36.1,20,34.5,21.7,34.5z M26.7,40.6h1.5
			v-7h-1.5V40.6z M30.5,40.6H32v-3h2.8v-1.2H32v-1.7h3v-1.1h-4.5V40.6z M38.4,40.6h1.5v-5.8H42v-1.2h-5.7v1.2h2.1V40.6z M28,27.6
			c-0.1-1.9-1-2.7-2-2.6c-1,0-1.8,1-1.8,2.8c0.1,1.9,1,2.7,2,2.6C27.3,30.4,28.1,29.5,28,27.6z M26.3,30.2c-0.2,0-0.3-0.1-0.4-0.3v0
			l0,0l-0.2-4.4h0c0-0.2,0.1-0.3,0.3-0.3c0.2,0,0.3,0.1,0.3,0.3h0l0.2,4.4v0l0,0C26.6,30.1,26.5,30.2,26.3,30.2z M30.8,28.3
			c-0.3,1,0.4,2.1,2.2,2.5c1.8,0.5,2.9-0.1,3.1-1.1c0.3-1-0.4-2.1-2.2-2.5C32.1,26.7,31.1,27.2,30.8,28.3z M35.7,29.2L35.7,29.2
			L35.7,29.2c0.2,0.1,0.3,0.2,0.2,0.4c0,0.2-0.2,0.3-0.4,0.2l0,0l0,0l-4.3-1.1v0c-0.1-0.1-0.2-0.2-0.2-0.4c0-0.2,0.2-0.3,0.4-0.3
			l0,0L35.7,29.2z M33.5,23.6c-0.3-1-1.4-1.6-3.2-1.1c-1.8,0.5-2.4,1.6-2.1,2.6c0.3,1,1.4,1.6,3.2,1.1
			C33.2,25.7,33.8,24.6,33.5,23.6z M28.9,25.3L28.9,25.3L28.9,25.3c-0.2,0.1-0.4-0.1-0.4-0.2c-0.1-0.2,0-0.4,0.2-0.4h0l0,0l4.3-1.2
			l0,0c0.2,0,0.3,0.1,0.4,0.2c0,0.2,0,0.3-0.2,0.4v0L28.9,25.3z"/>
	</g>
</g>
</svg>
