<?xml version="1.0" encoding="utf-8"?>
<!-- Generator: Adobe Illustrator 22.0.0, SVG Export Plug-In . SVG Version: 6.00 Build 0)  -->
<svg version="1.1" id="レイヤー_1" xmlns="http://www.w3.org/2000/svg" xmlns:xlink="http://www.w3.org/1999/xlink" x="0px"
	 y="0px" viewBox="0 0 60 60" style="enable-background:new 0 0 60 60;" xml:space="preserve">
<style type="text/css">
	.st0{fill:#FFFFFF;}
</style>
<path class="st0" d="M30,0C13.4,0,0,13.4,0,30c0,16.6,13.4,30,30,30c16.6,0,30-13.4,30-30C60,13.4,46.6,0,30,0z M14.5,43.8
	c-1,0-1.8-0.8-1.8-1.8c0-1,0.8-1.8,1.8-1.8c1,0,1.8,0.8,1.8,1.8C16.3,43,15.5,43.8,14.5,43.8z M18.2,50.9c-1,0-1.8-0.8-1.8-1.8
	c0-1,0.8-1.8,1.8-1.8c1,0,1.8,0.8,1.8,1.8C20,50.1,19.2,50.9,18.2,50.9z M18.2,36.7c-1,0-1.8-0.8-1.8-1.8c0-1,0.8-1.8,1.8-1.8
	c1,0,1.8,0.8,1.8,1.8C20,35.9,19.2,36.7,18.2,36.7z M21.9,43.8c-1,0-1.8-0.8-1.8-1.8c0-1,0.8-1.8,1.8-1.8c1,0,1.8,0.8,1.8,1.8
	C23.7,43,22.9,43.8,21.9,43.8z M51.4,20.5c-0.1,0-0.2,0.1-0.3,0.1l-25.7,4.8c-0.2,2.5-2.5,4.9-5.8,5.7c-3.9,0.9-9.4-0.3-10.1-3.4
	c-0.7-3,3.6-6.7,7.4-7.7c3.2-0.8,6.4,0.3,7.8,2.4l25-7.6c1.5-0.5,3.2,0.4,3.6,1.9C53.9,18.4,53,20,51.4,20.5z"/>
</svg>
