<svg xmlns="http://www.w3.org/2000/svg" width="28" height="66.699" viewBox="0 0 28 66.699">
  <g id="グループ_37" data-name="グループ 37" transform="translate(-373.662 -507.361)">
    <g id="グループ_36" data-name="グループ 36" transform="translate(373.662 507.361)">
      <rect id="長方形_49" data-name="長方形 49" width="11.474" height="3.793" transform="translate(8.262)" fill="#e60012"/>
      <path id="パス_64" data-name="パス 64" d="M393.4,514.5V509.45H381.925V514.5c0,5.969-8.263,8.263-8.263,18.815V565.7a3.9,3.9,0,0,0,3.9,3.9h20.194a3.905,3.905,0,0,0,3.9-3.9V533.312C401.662,522.76,393.4,520.465,393.4,514.5Zm5.266,48.962H376.659V532.377h22.006Z" transform="translate(-373.662 -502.902)" fill="#e60012"/>
    </g>
    <rect id="長方形_50" data-name="長方形 50" width="18.428" height="2.132" transform="translate(378.448 548.451)" fill="#e60012"/>
    <rect id="長方形_118" data-name="長方形 118" width="18.428" height="2.132" transform="translate(378.448 543.451)" fill="#e60012"/>
    <rect id="長方形_51" data-name="長方形 51" width="18.428" height="2.132" transform="translate(378.448 554.451)" fill="#e60012"/>
    <rect id="長方形_52" data-name="長方形 52" width="18.428" height="2.132" transform="translate(378.448 559.451)" fill="#e60012"/>
  </g>
</svg>
