<?xml version="1.0" encoding="utf-8"?>
<!-- Generator: Adobe Illustrator 23.1.0, SVG Export Plug-In . SVG Version: 6.00 Build 0)  -->
<svg version="1.1" id="free-dial" xmlns="http://www.w3.org/2000/svg" xmlns:xlink="http://www.w3.org/1999/xlink" x="0px" y="0px"
	 width="32px" height="20.9px" viewBox="0 0 32 20.9" enable-background="new 0 0 32 20.9" xml:space="preserve">
<path id="path" fill="#848079" d="M4.1,12.1c-0.1,2.2,1.6,4,3.8,4.1c2.2,0.1,4-1.6,4.1-3.8c0-0.1,0-0.2,0-0.3C12,9.9,9.8,8.2,8,7.2
	C6.2,8.2,4.1,9.9,4.1,12.1z M0,0v20.9h32V0L0,0z M32,5.1c-2.1,0-4.2,0.4-6.1,1.2c2,1.3,3.9,3.3,3.9,5.9c0,3.2-2.6,5.9-5.9,5.9
	c-3.2,0-5.8-2.7-5.8-5.9c0-2.5,1.8-4.5,3.8-5.9c-3.8-1.5-8-1.5-11.8,0c2,1.3,3.8,3.3,3.8,5.9c0,3.2-2.6,5.9-5.8,5.9
	c-3.3,0-5.9-2.6-5.9-5.9c0-2.5,2-4.5,3.9-5.9C4.2,5.5,2.1,5.1,0,5.1V3.2c2.8,0,5.6,0.6,8.1,1.8c5-2.4,10.8-2.4,15.8,0
	c2.5-1.2,5.3-1.9,8.1-1.8L32,5.1z M20.1,12c-0.1,2.2,1.6,4,3.8,4.1c2.2,0.1,4-1.6,4.1-3.8c0-0.1,0-0.2,0-0.3c0-2.1-2.1-3.9-3.9-4.9
	C22.2,8.2,20.1,9.9,20.1,12L20.1,12z"/>
</svg>
