<?xml version="1.0" encoding="utf-8"?>
<!-- Generator: Adobe Illustrator 22.0.0, SVG Export Plug-In . SVG Version: 6.00 Build 0)  -->
<svg version="1.1" id="レイヤー_1" xmlns="http://www.w3.org/2000/svg" xmlns:xlink="http://www.w3.org/1999/xlink" x="0px"
	 y="0px" viewBox="0 0 60 60" style="enable-background:new 0 0 60 60;" xml:space="preserve">
<style type="text/css">
	.st0{fill:#00B901;}
</style>
<g>
	<g>
		<path class="st0" d="M25.4,22.8c-0.6,0-1,0.5-1,1v7.6c0,0.6,0.5,1,1,1c0.6,0,1-0.5,1-1v-7.6C26.4,23.2,26,22.8,25.4,22.8z
			 M34.6,22.8c-0.6,0-1,0.5-1,1v4.7l-3.9-5.3c-0.2-0.3-0.5-0.4-0.8-0.4c-0.1,0-0.2,0-0.3,0.1c-0.4,0.1-0.7,0.5-0.7,1v7.6
			c0,0.6,0.5,1,1,1c0.6,0,1-0.5,1-1v-4.7l3.9,5.3c0.2,0.3,0.5,0.4,0.8,0.4c0.1,0,0.2,0,0.3-0.1c0.4-0.1,0.7-0.5,0.7-1v-7.6
			C35.6,23.2,35.2,22.8,34.6,22.8z M22.5,30.4h-2.8v-6.6c0-0.6-0.5-1-1-1c-0.6,0-1,0.5-1,1v7.6c0,0.6,0.5,1,1,1h3.8c0.6,0,1-0.5,1-1
			C23.5,30.8,23.1,30.4,22.5,30.4z M41.8,24.8c0.6,0,1-0.5,1-1c0-0.6-0.4-1-1-1H38c-0.6,0-1,0.5-1,1v3.8c0,0,0,0,0,0c0,0,0,0,0,0
			v3.8c0,0.6,0.5,1,1,1h3.8c0.6,0,1-0.5,1-1c0-0.6-0.5-1-1-1H39v-1.8h2.8c0.6,0,1-0.5,1-1c0-0.6-0.4-1-1-1H39v-1.8H41.8z M51.2,8.8
			C45.4,2.9,38.3,0,30,0C21.7,0,14.6,2.9,8.8,8.8C2.9,14.6,0,21.7,0,30c0,8.3,2.9,15.4,8.8,21.2C14.6,57.1,21.7,60,30,60
			c8.3,0,15.4-2.9,21.2-8.8C57.1,45.4,60,38.3,60,30C60,21.7,57.1,14.6,51.2,8.8z M45.1,36.9C41,41.5,32,47.1,30,48
			c-2,0.9-1.7-0.5-1.7-1c0-0.3,0.3-1.6,0.3-1.6c0.1-0.5,0.1-1.2-0.1-1.7c-0.2-0.5-1.1-0.8-1.7-0.9c-9.2-1.2-16-7.7-16-15.3
			c0-8.6,8.6-15.5,19.2-15.5c10.6,0,19.2,7,19.2,15.5C49.2,30.7,47.8,33.8,45.1,36.9L45.1,36.9z"/>
	</g>
</g>
</svg>
