<?xml version="1.0" encoding="utf-8"?>
<!-- Generator: Adobe Illustrator 22.0.0, SVG Export Plug-In . SVG Version: 6.00 Build 0)  -->
<svg version="1.1" id="レイヤー_1" xmlns="http://www.w3.org/2000/svg" xmlns:xlink="http://www.w3.org/1999/xlink" x="0px"
	 y="0px" viewBox="0 0 60 60" style="enable-background:new 0 0 60 60;" xml:space="preserve">
<style type="text/css">
	.st0{fill-rule:evenodd;clip-rule:evenodd;fill:#FFFFFF;}
</style>
<path class="st0" d="M30,0C13.4,0,0,13.4,0,30c0,16.6,13.4,30,30,30c16.6,0,30-13.4,30-30C60,13.4,46.6,0,30,0z M30,52.6
	c-2.7,0-4.8-2.2-4.8-4.8c0-2.7,4.8-9,4.8-9s4.8,6.4,4.8,9C34.8,50.5,32.7,52.6,30,52.6z M45.6,18.7c-0.8,1-0.9,2.3-0.9,2.3
	c0,0,0,0,0,0c-0.5,6.3-6.9,14.8-14.7,14.8c-7.8,0-14.2-8.5-14.7-14.8c0,0,0,0,0,0c0,0-0.1-1.3-0.9-2.3c-2.2-0.5-3.5-1-3.5-1.6
	c0-1.6,8.5-2.7,19.1-2.7c10.5,0,19.1,1.1,19.1,2.7C49.1,17.7,47.8,18.2,45.6,18.7z"/>
</svg>
