<?xml version="1.0" encoding="utf-8"?>
<!-- Generator: Adobe Illustrator 22.0.0, SVG Export Plug-In . SVG Version: 6.00 Build 0)  -->
<svg version="1.1" id="レイヤー_1" xmlns="http://www.w3.org/2000/svg" xmlns:xlink="http://www.w3.org/1999/xlink" x="0px"
	 y="0px" viewBox="0 0 60 60" style="enable-background:new 0 0 60 60;" xml:space="preserve" preserveAspectRatio="xMinYMin meet">
<style type="text/css">
	.st0{fill:#FFFFFF;}
	.st1{display:none;fill:none;}
</style>
<path class="st0" d="M30,0C13.4,0,0,13.4,0,30c0,16.6,13.4,30,30,30c16.6,0,30-13.4,30-30C60,13.4,46.6,0,30,0z M14,32.3
	c-1.7,0,0.9-2.8,0.9-5.9c0-3.1,0-6.5,0-8.7c0-2.2,0.9-5.1,2.5-5.1c1.6,0,1.5,1.5,2.1,1.5h1c0.3,0,0.5-0.1,0.6-0.4c0,0,0,0,0-0.1
	c0.1-0.2,0.4-0.3,0.6-0.3h0.6l0-0.1c-0.1-0.4,0.4-0.7,0.8-0.8l18.1,0c0.6,0,1,0.8,0.6,1.3l-3.5,5.6H23.7h-0.1l0,0
	c-0.3,0-0.5-0.2-0.6-0.4c-0.4-0.8-1.6-2.6-3.6-2.6c-2.5,0-1.3,7.9-2.3,10.4C16.3,29.3,15.5,32.3,14,32.3z M41,24.7H21.9
	c-0.5,0-0.9-0.5-0.7-1l1-3c0.1-0.3,0.4-0.5,0.7-0.5h17.1c0.3,0,0.6,0.2,0.7,0.5l1,3C41.8,24.2,41.5,24.7,41,24.7z M31.4,50.4
	c-7.6,0-15.1-3-15.1-12.1c0-4.4,2.9-9.3,6.3-12.9h0.7h1.4h13.4h1.8h0.3c3.4,3.6,6.3,8.4,6.3,12.9C46.5,47.4,39,50.4,31.4,50.4z"/>
<path class="st1" d="M39,27.8H24.4c0,0,0,0,0,0c0,0-0.1,0.1-0.1,0.1c-3,3.3-4.7,7-4.7,10c0,3.3,1.2,5.8,3.6,7.4
	c2.1,1.4,5.1,2.1,8.6,2.1s6.5-0.7,8.6-2.1c2.4-1.6,3.6-4.1,3.6-7.4c0-3-1.8-6.7-4.7-10C39.1,27.9,39.1,27.8,39,27.8z M42.5,37.3v1.2
	c0,0.3,0,0.5-0.1,0.7c-0.3,2.2-1.2,3.8-2.9,5c-1.9,1.2-4.6,1.9-7.8,1.9c-3.3,0-6-0.7-7.8-1.9c-1.7-1.1-2.7-2.8-2.9-5
	c0-0.2-0.1-0.5-0.1-0.7v-0.6c0-1.1,1-2,2.1-1.8l3,0.5c0.2,0,0.4,0,0.6,0l5.2-0.9l5.1-0.9c0.2,0,0.4,0,0.6,0l3.6,0.6
	C41.9,35.7,42.5,36.4,42.5,37.3z"/>
</svg>
