<?xml version="1.0" encoding="utf-8"?>
<!-- Generator: Adobe Illustrator 22.0.0, SVG Export Plug-In . SVG Version: 6.00 Build 0)  -->
<svg version="1.1" id="レイヤー_1" xmlns="http://www.w3.org/2000/svg" xmlns:xlink="http://www.w3.org/1999/xlink" x="0px"
	 y="0px" viewBox="0 0 60 60" style="enable-background:new 0 0 60 60;" xml:space="preserve">
<style type="text/css">
	.st0{fill:#FFFFFF;}
</style>
<g>
	<g>
		<path class="st0" d="M49.8,26.8c-0.3-0.2-0.7-0.2-1.4-0.2H47v2.8h1.7c0.2,0,0.7,0,1.1-0.3c0.2-0.1,0.6-0.5,0.6-1.2
			C50.4,27.2,50,26.9,49.8,26.8z M30,0C13.4,0,0,13.4,0,30c0,16.6,13.4,30,30,30c16.6,0,30-13.4,30-30C60,13.4,46.6,0,30,0z
			 M15.4,33.8c-1.1,1.2-2.7,1.4-3.5,1.4c-1.3,0-2.6-0.4-3.5-1.4c-1.1-1.2-1.2-2.8-1.2-3.7c0-2.6,1.2-5.3,4.8-5.3
			c1.1,0,2.5,0.3,3.5,1.4c1.1,1.2,1.3,2.8,1.3,3.8C16.6,31.3,16.2,32.9,15.4,33.8z M25.5,26.6h-3V35h-2.2v-8.3h-3V25h8.1V26.6z
			 M34.7,35h-2.1v-4.4h-3.8V35h-2.1V25h2.1v4h3.8v-4h2.2V35z M43.5,35h-6.8V25h6.7v1.6h-4.5V29H43v1.6h-4.3v2.7h4.7V35z M50.6,35
			c-0.1-0.5-0.4-3.1-0.5-3.5c-0.2-0.6-0.7-0.6-1.1-0.6h-1.9v4h-2.2V25h3.8c1.1,0,2.2,0,3,0.7c0.6,0.5,0.9,1.3,0.9,1.9
			c0,1.9-1.6,2.3-2.1,2.4c1.5,0.1,1.6,1,1.8,2.3c0.2,1.2,0.2,1.7,0.3,1.9c0.1,0.4,0.2,0.6,0.3,0.7H50.6z M11.9,26.3
			c-0.8,0-1.4,0.3-1.8,0.8c-0.6,0.7-0.7,1.8-0.7,2.9c0,1,0.2,2,0.7,2.8c0.3,0.4,0.8,0.8,1.8,0.8c0.9,0,1.5-0.3,1.9-0.9
			c0.3-0.5,0.7-1.3,0.7-2.9c0-0.5,0-1.2-0.2-1.8C13.7,26.9,12.9,26.3,11.9,26.3z"/>
	</g>
</g>
</svg>
