<svg
 xmlns="http://www.w3.org/2000/svg"
 xmlns:xlink="http://www.w3.org/1999/xlink"
 width="62px" height="62px">
<path fill-rule="evenodd"  fill="rgb(255, 255, 255)"
 d="M30.969,62.000 C13.865,62.000 0.000,48.121 0.000,31.000 C0.000,13.879 13.865,0.000 30.969,0.000 C48.072,0.000 61.937,13.879 61.937,31.000 C61.937,48.121 48.072,62.000 30.969,62.000 ZM31.000,2.000 C14.984,2.000 2.000,14.984 2.000,31.000 C2.000,47.016 14.984,60.000 31.000,60.000 C47.016,60.000 60.000,47.016 60.000,31.000 C60.000,14.984 47.016,2.000 31.000,2.000 ZM31.702,48.999 C25.022,48.999 18.454,46.404 18.454,38.456 C18.454,34.587 20.957,30.363 23.961,27.255 L24.581,27.255 L25.846,27.255 L37.558,27.255 L39.155,27.255 L39.443,27.255 C42.448,30.363 44.951,34.587 44.951,38.456 C44.951,46.404 38.382,48.999 31.702,48.999 ZM38.989,28.703 C38.949,28.658 38.909,28.616 38.868,28.572 L24.581,28.572 C24.567,28.572 24.554,28.568 24.540,28.568 C24.498,28.613 24.457,28.657 24.415,28.703 C21.512,31.901 19.779,35.546 19.779,38.456 C19.779,41.651 20.966,44.059 23.308,45.612 C25.350,46.965 28.253,47.681 31.702,47.681 C35.152,47.681 38.054,46.965 40.097,45.612 C42.438,44.059 43.626,41.651 43.626,38.456 C43.626,35.546 41.893,31.901 38.989,28.703 ZM39.362,44.514 C37.538,45.724 34.889,46.363 31.702,46.363 C28.515,46.363 25.867,45.724 24.043,44.514 C22.375,43.409 21.433,41.825 21.177,39.698 C21.129,39.466 21.104,39.226 21.104,38.981 L21.104,38.422 C21.104,37.335 22.085,36.509 23.162,36.689 L26.075,37.175 C26.268,37.207 26.464,37.207 26.656,37.176 L31.702,36.345 L36.711,35.514 C36.903,35.483 37.100,35.483 37.292,35.514 L40.825,36.100 C41.676,36.241 42.301,36.975 42.301,37.834 L42.301,38.981 C42.301,39.226 42.275,39.466 42.227,39.698 C41.972,41.825 41.029,43.409 39.362,44.514 ZM24.230,22.642 L39.174,22.642 C39.459,22.642 39.712,22.823 39.802,23.092 L40.685,25.727 C40.828,26.155 40.509,26.595 40.057,26.595 L23.347,26.595 C22.895,26.595 22.576,26.155 22.719,25.727 L23.602,23.092 C23.692,22.823 23.945,22.642 24.230,22.642 ZM37.849,21.983 L24.967,21.983 L24.906,21.983 L24.905,21.978 C24.683,21.958 24.485,21.829 24.381,21.630 C24.007,20.913 22.994,19.351 21.266,19.351 C19.080,19.351 20.106,26.204 19.279,28.409 C18.452,30.615 17.741,33.186 16.464,33.186 C14.987,33.186 17.294,30.737 17.294,28.078 C17.294,25.407 17.294,22.407 17.294,20.500 C17.294,18.578 18.066,16.053 19.444,16.053 C20.824,16.053 20.719,17.371 21.266,17.371 L22.176,17.371 C22.409,17.371 22.623,17.248 22.744,17.050 C22.753,17.034 22.763,17.018 22.773,17.003 C22.895,16.819 23.103,16.711 23.324,16.711 L23.813,16.711 L23.803,16.662 C23.729,16.271 24.124,16.029 24.498,16.003 L40.390,16.000 C40.887,16.000 41.232,16.658 40.947,17.113 L37.849,21.983 Z"/>
</svg>
