<svg
 xmlns="http://www.w3.org/2000/svg"
 xmlns:xlink="http://www.w3.org/1999/xlink"
 width="80px" height="74px">
<path fill-rule="evenodd"  fill="rgb(255, 255, 255)"
 d="M68.166,54.895 L64.678,54.895 C63.635,64.205 63.058,69.323 63.002,69.713 C62.670,72.038 61.013,73.043 59.695,73.197 C58.866,73.294 47.792,73.998 36.441,73.998 C25.118,73.998 14.022,73.295 13.189,73.198 C11.870,73.044 10.212,72.039 9.878,69.713 C9.811,69.245 9.022,62.202 7.632,49.795 C6.662,41.125 5.454,30.333 5.384,29.843 C5.322,29.460 5.414,29.074 5.644,28.759 C5.872,28.445 6.211,28.238 6.596,28.175 C6.675,28.163 6.753,28.157 6.829,28.157 C7.539,28.157 8.160,28.689 8.273,29.393 C8.325,29.714 9.038,36.064 10.538,49.470 C11.503,58.087 12.703,68.811 12.773,69.298 C12.896,70.157 13.381,70.278 13.526,70.294 C13.995,70.347 24.855,71.075 36.441,71.075 C48.018,71.075 58.888,70.347 59.358,70.294 C59.503,70.278 59.985,70.156 60.108,69.297 C60.174,68.838 61.201,59.667 62.194,50.798 L63.424,39.820 C64.242,32.523 64.573,29.614 64.608,29.393 C64.722,28.680 65.329,28.163 66.050,28.163 C66.128,28.163 66.205,28.168 66.284,28.181 C67.075,28.309 67.619,29.056 67.496,29.847 C67.464,30.078 67.207,32.336 66.690,36.943 C68.230,36.224 69.935,35.860 71.759,35.860 C76.302,35.860 79.998,39.554 79.998,44.095 C79.998,50.151 74.801,54.895 68.166,54.895 ZM71.759,38.783 C68.744,38.783 66.945,40.051 66.274,40.637 L65.005,51.971 L68.166,51.971 C73.742,51.971 77.074,47.967 77.074,44.095 C77.074,41.166 74.690,38.783 71.759,38.783 ZM34.816,53.904 C34.748,53.904 34.673,53.894 34.593,53.875 C34.340,53.828 33.599,53.715 33.130,53.665 C32.719,53.623 31.971,53.576 31.479,53.576 C31.359,53.576 31.251,53.579 31.163,53.585 C30.980,53.604 30.716,53.620 30.428,53.639 C29.991,53.666 29.497,53.698 29.127,53.748 C28.938,53.773 28.735,53.814 28.533,53.855 C28.218,53.918 27.893,53.984 27.604,53.995 L27.602,53.995 L27.599,53.995 C27.116,53.995 26.625,53.816 26.317,53.528 C26.111,53.334 25.980,53.064 25.982,52.839 C25.983,52.720 26.022,52.621 26.096,52.555 C26.187,52.466 26.309,52.421 26.453,52.421 C26.640,52.421 26.837,52.495 27.028,52.567 L27.176,52.622 C27.444,52.723 27.966,52.796 28.423,52.796 L28.552,52.794 C29.086,52.761 30.203,52.696 30.768,52.680 C31.315,52.646 32.851,52.581 33.377,52.564 C33.377,52.564 33.378,52.564 33.380,52.564 C34.051,52.564 34.520,52.594 34.803,52.745 C35.112,52.912 35.296,53.235 35.260,53.550 C35.231,53.773 35.065,53.904 34.816,53.904 ZM31.702,35.215 C31.702,35.697 31.350,36.103 30.933,36.103 C30.560,36.103 30.470,35.934 30.092,35.220 C29.829,34.712 29.309,34.038 29.240,33.969 C29.202,33.931 29.160,33.888 29.118,33.824 L29.063,33.741 L29.077,33.595 C29.225,33.371 29.382,33.371 29.441,33.371 C29.464,33.371 31.702,33.741 31.702,35.215 ZM30.456,30.359 C30.630,30.359 31.166,30.533 31.813,30.918 C32.045,31.060 32.523,31.353 32.523,32.128 C32.523,32.442 32.294,32.884 31.783,32.884 C31.207,32.884 31.051,32.549 30.769,31.941 C30.539,31.438 30.443,31.271 30.207,30.918 C30.156,30.853 30.104,30.786 30.104,30.682 C30.104,30.523 30.235,30.359 30.456,30.359 ZM50.631,52.567 L50.778,52.622 C51.047,52.723 51.569,52.796 52.025,52.796 L52.153,52.794 C52.688,52.761 53.806,52.696 54.370,52.680 C54.917,52.646 56.455,52.581 56.979,52.564 C56.980,52.564 56.981,52.564 56.982,52.564 C57.653,52.564 58.123,52.594 58.405,52.745 C58.714,52.912 58.899,53.234 58.863,53.550 C58.833,53.773 58.667,53.904 58.418,53.904 C58.350,53.904 58.275,53.894 58.195,53.875 C57.943,53.828 57.200,53.715 56.732,53.665 C56.321,53.623 55.573,53.576 55.082,53.576 C54.962,53.576 54.854,53.579 54.765,53.585 C54.582,53.604 54.319,53.620 54.030,53.639 C53.594,53.666 53.099,53.698 52.729,53.748 C52.540,53.773 52.338,53.814 52.136,53.855 C51.821,53.918 51.496,53.984 51.206,53.995 L51.204,53.995 L51.201,53.995 C50.718,53.995 50.227,53.816 49.920,53.528 C49.714,53.335 49.582,53.064 49.584,52.839 C49.585,52.720 49.624,52.621 49.698,52.555 C49.790,52.466 49.911,52.421 50.056,52.421 C50.243,52.421 50.440,52.495 50.631,52.567 ZM49.536,42.568 C49.502,42.318 49.464,42.030 49.383,41.679 C49.305,41.398 49.188,41.049 49.041,40.608 L48.728,39.653 C48.436,40.112 48.262,40.496 48.171,40.868 C48.060,41.312 47.909,41.792 47.515,41.890 C47.463,41.908 47.394,41.919 47.327,41.919 C47.006,41.919 46.807,41.669 46.683,41.480 C46.426,41.042 46.603,40.707 46.872,40.203 C47.100,39.785 47.418,39.327 47.753,38.840 L48.030,38.437 C48.056,38.391 48.098,38.325 48.144,38.256 L48.151,38.103 C48.151,38.103 47.955,37.590 47.899,37.435 C47.729,36.971 47.498,36.340 47.312,36.046 C47.132,35.776 47.056,35.332 47.732,34.774 C48.091,34.464 48.682,34.195 49.113,33.998 L49.230,33.944 C49.451,33.858 49.663,33.780 49.885,33.743 C49.876,33.490 49.857,33.213 49.825,32.919 C49.785,32.595 49.604,32.333 49.343,32.039 C49.130,31.812 49.014,31.542 49.032,31.321 C49.043,31.190 49.103,31.078 49.202,31.007 C49.306,30.918 49.440,30.870 49.593,30.870 C49.809,30.870 50.059,30.971 50.338,31.169 C50.823,31.477 51.139,32.029 51.284,32.330 C51.486,32.752 51.496,33.242 51.315,33.830 C51.315,33.830 51.269,34.002 51.260,34.038 C51.382,34.110 51.506,34.211 51.570,34.361 C51.643,34.523 51.654,34.767 51.609,34.992 C52.116,34.612 52.813,34.153 53.283,33.844 C54.018,33.348 54.647,33.274 54.957,33.274 C55.464,33.274 55.868,33.474 56.192,33.888 C56.466,34.249 56.611,34.734 56.611,35.293 C56.628,35.656 56.613,36.553 56.527,37.390 C56.412,38.358 56.380,39.311 56.363,40.117 C56.347,40.969 56.737,40.994 56.945,41.008 C56.947,41.008 56.950,41.008 56.951,41.008 C57.417,41.008 57.891,40.776 58.202,40.558 C58.579,40.306 59.087,39.842 59.186,39.752 C59.299,39.647 59.439,39.588 59.569,39.588 C59.705,39.588 59.820,39.651 59.881,39.762 C59.924,39.836 59.977,39.998 59.839,40.230 C59.688,40.498 59.296,41.000 58.797,41.463 C58.281,41.927 57.839,42.151 57.268,42.242 C57.115,42.268 56.977,42.280 56.848,42.280 C56.531,42.280 56.254,42.203 55.952,42.030 C55.478,41.760 55.205,41.409 55.068,40.891 C54.945,40.468 54.998,39.721 55.047,39.000 L55.076,38.572 C55.108,37.766 55.142,37.018 55.175,36.356 C55.200,35.787 55.232,35.046 55.086,34.899 C54.997,34.804 54.817,34.752 54.588,34.752 C54.454,34.752 54.308,34.770 54.153,34.804 C53.664,34.914 53.014,35.246 52.537,35.630 C52.075,35.980 51.658,36.362 51.027,36.948 L51.027,37.114 C51.044,37.876 51.089,38.766 51.143,39.376 C51.183,39.824 51.192,40.232 51.202,40.750 L51.210,41.245 C51.211,41.655 51.213,42.268 51.037,42.655 C50.912,42.981 50.690,43.172 50.342,43.251 C50.275,43.262 50.226,43.266 50.181,43.266 C49.858,43.266 49.614,43.059 49.562,42.738 L49.536,42.568 ZM49.839,35.211 C49.834,35.238 49.810,35.243 49.769,35.243 C49.743,35.243 49.710,35.241 49.672,35.241 C49.503,35.241 49.109,35.366 48.756,35.531 C48.605,35.612 48.297,35.959 48.468,36.322 C48.585,36.591 48.711,36.896 48.860,37.267 C49.093,36.953 49.313,36.673 49.450,36.499 C49.661,36.229 49.764,36.084 49.835,35.921 L49.832,35.537 L49.839,35.211 ZM49.789,39.758 C49.785,39.654 49.780,39.539 49.774,39.412 C49.762,39.081 49.758,38.691 49.762,38.259 C49.644,38.398 49.526,38.544 49.405,38.698 C49.532,39.039 49.779,39.731 49.789,39.758 ZM38.576,49.275 C38.398,49.113 38.197,48.929 38.310,48.677 C38.379,48.515 38.573,48.432 38.885,48.432 C39.086,48.432 39.340,48.466 39.580,48.526 C39.968,48.618 40.238,48.850 40.403,49.235 C40.524,49.550 40.422,49.906 40.347,50.166 C40.327,50.237 40.309,50.301 40.298,50.355 C40.195,50.911 40.116,51.796 40.078,52.481 C40.214,52.456 40.368,52.412 40.544,52.349 C41.335,52.127 41.899,51.904 42.797,51.519 C43.607,51.164 44.263,50.827 44.692,50.547 C45.035,50.319 44.976,50.101 44.934,50.019 C44.815,49.799 44.744,49.484 44.949,49.339 C45.019,49.285 45.125,49.255 45.251,49.255 C45.493,49.255 45.754,49.360 45.968,49.542 C46.411,49.914 46.500,50.373 46.234,50.903 C45.937,51.500 45.230,51.800 44.104,52.222 C43.116,52.597 42.434,52.824 41.233,53.096 C40.774,53.211 40.360,53.252 40.058,53.282 L40.048,53.283 L40.021,53.795 C39.990,54.321 39.961,54.841 39.972,55.292 C40.002,56.024 40.427,56.265 40.980,56.503 C41.410,56.692 41.867,56.778 42.463,56.778 C42.582,56.778 42.706,56.775 42.833,56.769 C43.590,56.751 44.227,56.664 44.678,56.514 L44.893,56.443 C45.269,56.317 45.594,56.208 46.023,56.208 L46.175,56.212 C46.625,56.237 46.928,56.452 47.062,56.645 C47.151,56.775 47.181,56.911 47.145,57.029 C47.046,57.371 46.716,57.482 46.250,57.541 C45.753,57.623 45.379,57.657 44.257,57.723 L43.928,57.742 C43.479,57.770 43.072,57.795 42.675,57.795 C42.153,57.795 41.702,57.751 41.252,57.655 C40.194,57.450 39.630,57.172 39.245,56.665 C38.875,56.188 38.884,55.366 38.937,54.256 C38.974,53.674 38.996,53.268 39.016,52.878 L39.067,51.958 C39.099,51.194 39.087,50.754 39.020,50.214 C38.961,49.764 38.744,49.427 38.576,49.275 ZM35.007,41.783 C34.417,41.783 34.417,41.339 34.417,41.014 C34.417,40.970 34.438,40.149 34.438,40.149 C34.460,39.356 34.491,38.210 34.491,37.898 C34.491,37.465 34.471,37.091 34.446,36.726 C33.875,37.003 33.026,37.326 32.484,37.326 C32.419,37.326 32.387,37.292 32.342,37.271 C32.326,37.366 32.314,37.432 32.310,37.455 L32.262,37.692 C32.143,38.272 31.926,39.337 31.926,39.686 C31.926,40.372 32.256,41.043 32.358,41.231 L32.408,41.334 C32.679,41.889 32.792,42.118 32.792,42.519 C32.792,42.870 32.445,43.498 31.753,43.498 C30.947,43.498 30.897,42.858 30.821,41.889 C30.738,40.512 30.283,40.353 29.948,40.353 C29.677,40.353 29.581,40.194 29.581,40.044 C29.581,39.809 29.793,39.752 30.176,39.646 L30.330,39.757 L30.278,39.616 C30.548,39.517 30.707,39.041 30.971,38.251 L31.212,37.477 C32.246,34.117 32.246,34.117 32.499,34.117 C32.641,34.117 32.792,34.230 32.792,34.439 C32.792,34.525 32.584,35.809 32.441,36.677 C32.458,36.668 32.469,36.657 32.486,36.648 C34.815,35.523 35.845,33.300 35.967,32.752 C35.892,32.749 35.716,32.749 35.714,32.749 C35.377,32.749 34.384,32.749 33.853,32.779 C33.796,32.795 33.580,32.824 33.513,32.824 C33.367,32.824 33.279,32.733 33.227,32.678 L32.866,32.243 C32.828,32.193 32.773,32.118 32.773,32.008 C32.773,31.834 32.932,31.716 33.081,31.716 C33.195,31.716 33.675,31.762 33.789,31.779 C34.461,31.806 35.107,31.820 35.795,31.820 L36.049,31.820 C36.213,31.820 36.263,31.820 36.316,31.615 C36.380,31.377 36.487,30.880 36.487,30.518 C36.465,30.222 36.461,30.138 36.484,30.065 C36.557,29.881 36.711,29.793 36.944,29.793 C36.961,29.793 38.698,29.880 38.698,30.503 C38.698,30.703 38.521,30.827 38.275,30.999 C38.220,31.038 38.144,31.089 38.118,31.115 C38.082,31.179 37.916,31.714 37.907,31.815 C37.907,31.815 37.965,31.820 38.063,31.820 L40.135,31.820 C40.639,31.820 40.708,31.809 40.799,31.718 C40.826,31.690 40.881,31.612 40.936,31.535 C41.257,31.090 41.407,30.911 41.611,30.911 C41.874,30.911 43.173,31.902 43.173,32.277 C43.173,32.749 42.660,32.749 42.118,32.749 C42.118,32.749 39.721,32.749 39.704,32.750 C39.892,33.289 41.263,35.424 43.838,36.061 C43.993,36.103 44.231,36.166 44.231,36.407 C44.231,36.615 44.029,36.692 43.853,36.737 C43.520,36.823 43.059,37.015 42.864,37.268 C42.713,37.455 42.636,37.550 42.447,37.550 C42.299,37.550 41.906,37.254 41.592,36.986 C41.538,37.109 41.452,37.196 41.370,37.245 C41.201,37.358 41.201,37.378 41.201,37.495 C41.201,37.711 41.243,38.322 41.285,38.913 C41.327,39.495 41.365,40.043 41.365,40.238 C41.365,40.870 41.010,41.247 40.416,41.247 C39.967,41.247 39.876,41.015 39.738,40.662 C39.718,40.606 39.694,40.591 39.595,40.591 L38.838,40.591 C38.678,40.591 38.647,40.611 38.643,40.615 C38.623,40.639 38.623,40.781 38.623,40.894 C38.623,42.032 38.623,42.032 39.748,42.032 C41.250,42.032 41.327,41.900 41.652,41.345 C41.686,41.283 41.785,40.984 41.868,40.740 C42.239,39.647 42.287,39.528 42.522,39.528 C42.678,39.528 42.843,39.651 42.843,39.880 C42.843,41.017 42.843,41.136 42.928,41.541 C42.937,41.581 42.976,41.669 43.007,41.739 C43.126,42.018 43.173,42.133 43.173,42.236 C43.173,42.627 42.798,43.025 42.445,43.202 C42.020,43.406 41.658,43.528 40.195,43.528 C37.514,43.528 37.143,43.240 37.143,41.147 C37.143,40.873 37.143,40.637 37.115,40.592 C37.104,40.591 36.141,40.591 36.141,40.591 C36.097,40.591 36.007,40.591 35.984,40.600 C35.986,40.616 35.986,40.751 35.986,40.894 C35.971,41.510 35.484,41.783 35.007,41.783 ZM37.041,34.866 C37.037,34.841 37.015,34.777 36.991,34.707 C36.948,34.577 36.917,34.483 36.902,34.408 C36.472,35.164 36.052,35.564 35.857,35.748 C35.784,35.819 35.706,35.888 35.625,35.955 C35.737,36.013 35.910,36.069 36.156,36.069 L36.974,36.069 C37.008,36.069 37.098,36.069 37.118,36.057 C37.127,35.912 37.096,35.225 37.041,34.866 ZM36.958,36.983 L36.171,36.983 C36.035,36.983 36.002,36.996 35.995,37.001 C35.971,37.033 35.971,37.215 35.971,37.391 C35.971,37.590 35.971,37.778 35.997,37.815 C36.010,37.823 36.070,37.828 36.171,37.828 L36.974,37.828 C37.112,37.828 37.144,37.811 37.148,37.808 C37.158,37.789 37.158,37.688 37.158,37.599 C37.158,37.323 37.158,37.037 37.124,36.988 C37.109,36.983 37.025,36.983 36.958,36.983 ZM38.652,39.674 C38.664,39.676 39.565,39.676 39.565,39.676 C39.595,39.676 39.685,39.676 39.705,39.665 C39.735,39.622 39.735,39.341 39.735,39.135 C39.735,38.989 39.735,38.791 39.708,38.757 C39.705,38.755 39.680,38.742 39.565,38.742 L38.778,38.742 C38.679,38.742 38.655,38.752 38.650,38.754 C38.623,38.791 38.623,39.016 38.623,39.180 C38.623,39.380 38.623,39.629 38.652,39.674 ZM38.630,37.831 C38.638,37.828 39.551,37.828 39.551,37.828 C39.654,37.828 39.689,37.822 39.700,37.815 C39.705,37.796 39.705,37.658 39.705,37.525 C39.705,37.245 39.705,37.024 39.679,36.979 C39.675,36.983 39.606,36.983 39.551,36.983 L38.778,36.983 C38.739,36.983 38.647,36.983 38.625,36.994 C38.608,37.027 38.608,37.246 38.608,37.406 C38.608,37.595 38.608,37.791 38.630,37.831 ZM38.278,34.233 C38.761,34.395 39.041,34.489 39.041,34.826 C39.041,34.987 38.920,35.122 38.720,35.325 C38.608,35.454 38.608,35.454 38.608,35.736 C38.608,35.814 38.608,36.020 38.635,36.056 C38.642,36.060 38.674,36.069 38.793,36.069 L39.446,36.069 C39.548,36.069 39.675,36.069 39.791,35.944 C39.959,35.761 40.060,35.651 40.297,35.651 C40.308,35.651 40.321,35.652 40.334,35.654 C39.824,34.990 39.420,34.275 39.129,33.521 C39.109,33.474 38.882,32.854 38.865,32.814 C38.834,32.749 38.824,32.749 38.718,32.749 L37.943,32.749 C37.621,32.749 37.601,32.802 37.447,33.210 C37.349,33.481 37.245,33.727 37.140,33.949 C37.186,33.932 37.237,33.922 37.286,33.922 C37.343,33.922 37.355,33.922 38.278,34.233 ZM36.008,39.672 C36.021,39.676 36.096,39.676 36.156,39.676 L36.974,39.676 C37.090,39.676 37.121,39.667 37.130,39.661 C37.158,39.625 37.158,39.402 37.158,39.239 C37.158,39.072 37.158,38.792 37.126,38.745 C37.125,38.746 37.088,38.742 37.021,38.742 L36.162,38.757 C36.066,38.761 36.007,38.768 35.992,38.778 C35.971,38.810 35.971,38.997 35.971,39.076 C35.971,39.306 35.971,39.621 36.008,39.672 ZM21.479,50.573 C21.260,50.590 20.668,50.623 20.094,50.655 C19.754,50.665 19.233,50.712 18.718,50.757 C18.381,50.787 18.047,50.816 17.768,50.835 L16.763,50.890 C16.308,50.916 15.870,50.941 15.600,50.950 C15.117,50.950 14.728,50.733 14.468,50.324 C14.298,50.089 14.213,49.827 14.246,49.631 C14.263,49.526 14.315,49.440 14.394,49.383 C14.470,49.321 14.566,49.286 14.671,49.286 C14.846,49.286 15.005,49.382 15.123,49.466 C15.297,49.576 15.445,49.662 15.709,49.721 C15.962,49.773 16.482,49.779 16.851,49.779 C17.183,49.779 17.554,49.774 17.936,49.768 C19.006,49.750 20.178,49.685 20.643,49.636 C21.071,49.577 21.505,49.458 21.772,49.324 C21.908,49.256 22.026,49.223 22.136,49.223 C22.313,49.223 22.442,49.307 22.550,49.384 C22.799,49.572 23.063,49.862 23.259,50.162 C23.562,50.628 23.304,51.016 23.218,51.124 C23.090,51.284 22.947,51.507 22.819,51.715 C22.757,51.816 22.702,52.315 22.662,52.677 C22.630,52.967 22.598,53.253 22.560,53.448 C22.465,53.888 22.351,54.887 22.299,55.407 C22.314,55.408 22.428,55.479 22.511,55.529 L22.641,55.611 C22.948,55.803 23.037,56.015 23.056,56.159 C23.077,56.316 23.028,56.470 22.916,56.590 C22.830,56.685 22.691,56.734 22.503,56.734 C22.277,56.734 22.014,56.663 21.872,56.591 C21.765,56.550 21.437,56.443 20.971,56.443 L20.824,56.441 C20.495,56.441 19.982,56.467 19.515,56.489 C19.215,56.505 18.933,56.518 18.729,56.524 L18.407,56.533 C17.831,56.547 17.113,56.566 16.793,56.606 L16.565,56.625 C16.390,56.641 16.233,56.655 16.085,56.655 C15.952,56.655 15.835,56.644 15.727,56.620 C15.423,56.552 15.109,56.387 14.765,56.116 C14.553,55.949 14.424,55.730 14.411,55.517 C14.403,55.384 14.442,55.267 14.521,55.188 C14.618,55.092 14.738,55.041 14.869,55.041 C14.978,55.041 15.086,55.076 15.173,55.139 C15.328,55.233 15.455,55.312 15.676,55.360 C15.935,55.419 16.907,55.456 18.152,55.456 C18.985,55.456 20.055,55.422 20.658,55.402 C20.899,55.395 21.067,55.390 21.118,55.390 C21.253,55.378 21.265,55.349 21.283,55.251 C21.355,54.899 21.408,54.488 21.461,54.070 C21.492,53.822 21.524,53.573 21.561,53.330 C21.635,52.851 21.710,51.880 21.755,51.301 L21.789,50.869 C21.794,50.784 21.772,50.712 21.725,50.662 C21.672,50.606 21.580,50.573 21.479,50.573 ZM23.808,32.410 L15.318,32.410 C15.178,32.410 15.130,32.410 15.076,32.638 C14.973,33.065 14.677,34.300 13.829,34.300 C13.446,34.300 13.039,34.034 13.039,33.541 C13.039,33.141 13.283,32.951 13.688,32.636 C14.206,32.240 14.468,31.685 14.658,31.194 C14.676,31.116 14.722,31.039 14.747,31.001 L14.877,30.805 L14.999,31.007 C15.050,31.091 15.053,31.204 15.057,31.361 L15.065,31.551 C15.072,31.691 15.088,31.708 15.348,31.708 L18.878,31.708 C19.120,31.708 19.146,31.708 19.146,31.382 C19.146,30.733 19.115,30.624 19.092,30.545 C19.085,30.520 19.068,30.475 19.049,30.423 C18.976,30.231 18.952,30.157 18.952,30.102 C18.952,29.923 19.090,29.803 19.295,29.803 C19.311,29.803 20.904,29.928 20.904,30.384 C20.904,30.487 20.823,30.579 20.638,30.766 C20.603,30.801 20.573,30.830 20.561,30.847 C20.529,30.904 20.486,31.102 20.486,31.337 C20.486,31.708 20.519,31.708 20.769,31.708 L23.704,31.708 C24.060,31.708 24.240,31.696 24.465,31.409 C24.708,31.090 24.790,31.039 24.925,31.039 C25.103,31.039 25.209,31.116 25.957,31.727 C26.182,31.920 26.325,32.043 26.325,32.334 C26.325,32.887 25.877,32.930 25.402,32.975 C25.054,33.012 24.641,33.193 24.206,33.499 C23.950,33.686 23.852,33.749 23.763,33.749 C23.736,33.749 23.719,33.727 23.695,33.717 C23.918,33.921 24.091,34.122 24.091,34.240 C24.091,34.598 23.788,34.598 23.406,34.598 L20.636,34.598 C20.599,34.598 20.531,34.598 20.513,34.610 C20.516,35.140 21.839,37.581 22.162,37.664 C22.480,37.663 23.614,35.927 23.695,35.684 C23.706,35.653 23.713,35.607 23.724,35.555 C23.773,35.294 23.812,35.088 23.987,35.088 C24.092,35.088 25.477,35.991 25.477,36.309 C25.477,36.569 25.176,36.616 24.956,36.650 C24.721,36.688 24.677,36.708 24.108,37.156 C23.997,37.238 23.710,37.426 23.417,37.617 C23.101,37.823 22.778,38.033 22.677,38.111 C22.640,38.134 22.587,38.171 22.587,38.215 C22.636,38.302 23.834,39.753 26.082,40.652 C26.338,40.744 26.513,40.827 26.599,40.898 L26.548,41.157 C26.346,41.219 26.021,41.359 25.958,41.412 C25.821,41.522 25.577,41.795 25.483,41.943 C25.447,42.002 25.378,42.116 25.223,42.116 C25.062,42.116 23.608,41.217 22.429,39.862 C20.655,37.813 20.199,35.909 19.954,34.885 C19.921,34.739 19.897,34.695 19.882,34.685 C19.849,34.687 19.731,34.795 19.381,35.114 C19.288,35.199 19.226,35.246 19.150,35.303 C19.020,35.401 18.676,35.660 18.634,35.745 C18.636,35.745 18.637,35.744 18.639,35.744 C18.669,35.744 18.780,35.823 18.918,35.923 C20.997,37.427 21.157,39.824 21.157,40.523 C21.157,42.277 20.338,43.411 19.071,43.411 C18.737,43.411 18.693,43.266 18.586,42.918 C18.501,42.637 17.975,42.439 17.366,42.211 L17.233,42.158 C17.084,42.098 16.986,42.059 16.986,41.922 L16.986,41.772 L17.225,41.727 C17.341,41.727 17.878,41.797 18.031,41.816 C18.323,41.847 18.792,41.862 18.982,41.862 C19.245,41.862 19.390,41.862 19.609,41.436 C19.671,41.314 19.816,40.953 19.816,40.285 C19.816,39.671 19.711,39.471 19.673,39.449 C19.692,39.465 19.502,39.631 19.411,39.711 C19.350,39.766 19.300,39.809 19.281,39.824 C16.907,41.937 14.164,42.369 14.141,42.369 L13.992,42.369 L13.933,42.191 C13.933,42.118 13.933,42.062 14.447,41.803 C16.267,40.759 17.557,40.019 19.093,38.251 C19.225,38.089 19.339,37.948 19.339,37.813 C19.336,37.739 19.231,37.531 19.161,37.531 C19.128,37.545 18.927,37.715 18.780,37.838 C16.920,39.430 14.482,40.226 14.127,40.226 L13.977,40.226 L13.918,40.045 C13.918,39.942 13.918,39.942 14.666,39.503 C14.884,39.375 15.090,39.254 15.162,39.207 C16.801,38.163 18.342,36.757 18.342,36.428 C18.342,36.347 18.201,36.131 18.088,36.131 C18.031,36.155 17.614,36.427 17.541,36.486 C16.053,37.463 13.937,37.948 13.859,37.948 L13.710,37.948 L13.650,37.753 C13.650,37.625 13.750,37.571 14.174,37.361 C16.631,36.199 17.894,34.788 17.997,34.570 C17.970,34.598 17.831,34.598 17.671,34.598 C16.641,34.598 16.126,34.613 15.988,34.627 C15.954,34.642 15.714,34.673 15.661,34.673 C15.548,34.673 15.484,34.597 15.445,34.552 L15.129,34.172 C15.107,34.151 15.035,34.070 15.035,33.987 L15.035,33.837 L15.229,33.793 C15.336,33.793 15.813,33.838 15.920,33.853 L16.489,33.869 C16.915,33.883 17.351,33.897 17.746,33.897 L21.261,33.897 C21.846,33.897 21.866,33.892 21.937,33.829 C21.962,33.805 22.018,33.735 22.087,33.652 C22.449,33.211 22.593,33.064 22.735,33.064 C22.842,33.064 23.231,33.322 23.567,33.607 C23.550,33.574 23.525,33.543 23.525,33.511 C23.525,33.414 23.583,33.328 23.656,33.219 L23.739,33.091 C23.998,32.681 24.001,32.471 24.001,32.469 C24.001,32.436 24.001,32.410 23.808,32.410 ZM71.379,28.083 C71.102,28.083 70.831,28.005 70.596,27.855 L38.174,7.287 C37.741,7.013 37.102,6.855 36.422,6.855 C35.752,6.855 35.121,7.010 34.692,7.278 L25.923,12.776 C25.279,13.180 24.584,13.393 23.913,13.393 C23.459,13.393 23.027,13.297 22.627,13.108 C21.626,12.634 20.959,11.627 20.798,10.347 L20.072,4.596 C19.959,3.703 19.070,2.920 18.169,2.920 L13.540,2.920 C13.160,2.920 12.818,3.063 12.578,3.322 C12.339,3.582 12.223,3.933 12.254,4.311 L13.252,16.855 C13.424,19.013 12.127,21.612 10.298,22.772 L2.285,27.855 C2.050,28.005 1.780,28.083 1.503,28.083 C0.999,28.083 0.538,27.830 0.268,27.405 C0.059,27.076 -0.010,26.684 0.075,26.303 C0.160,25.921 0.389,25.596 0.719,25.387 L8.732,20.303 C9.659,19.714 10.425,18.182 10.338,17.087 L9.338,4.543 C9.243,3.342 9.631,2.203 10.431,1.338 C11.230,0.473 12.334,-0.004 13.540,-0.004 L18.169,-0.004 C20.523,-0.004 22.678,1.896 22.973,4.230 L23.699,9.982 C23.742,10.326 23.854,10.453 23.879,10.466 C23.887,10.466 23.897,10.466 23.906,10.466 C23.993,10.466 24.141,10.442 24.369,10.299 L33.139,4.801 C34.032,4.241 35.199,3.933 36.423,3.933 C37.662,3.933 38.839,4.247 39.740,4.819 L72.164,25.387 C72.493,25.596 72.721,25.921 72.807,26.302 C72.892,26.683 72.823,27.075 72.613,27.405 C72.345,27.830 71.883,28.083 71.379,28.083 Z"/>
</svg>
