<svg xmlns="http://www.w3.org/2000/svg" width="38.055" height="26.258" viewBox="0 0 38.055 26.258">
  <g id="グループ_44" data-name="グループ 44" transform="translate(-159.128 -557.096)">
    <path id="パス_67" data-name="パス 67" d="M194.446,559.744a11.661,11.661,0,0,0-7.832-2.649c-3.591,0-6.841,1.29-8.458,3.323-1.618-2.033-4.867-3.323-8.461-3.323a11.659,11.659,0,0,0-7.83,2.649l-2.737-.386V581.95H176.01a2.342,2.342,0,0,0,4.292,0h16.882V559.359ZM177.8,568.568c-7.567-3.96-13.221.26-13.276.3a.365.365,0,0,0-.07.5.351.351,0,0,0,.493.069c.056-.043,5.512-4.118,12.853-.071v3.359c-7.567-3.96-13.221.26-13.276.3a.363.363,0,0,0-.07.5.349.349,0,0,0,.493.071c.056-.043,5.512-4.118,12.853-.071v5.4c-1.708-1.8-4.76-2.916-8.107-2.916s-6.4,1.12-8.107,2.916V561.129a5.884,5.884,0,0,1,1.213-1.252,11.41,11.41,0,0,1,6.894-2.064c3.545,0,6.71,1.3,8.107,3.316Zm.705.118.03-.014c7.416-4.208,12.981-.069,13.034-.026a.347.347,0,0,0,.493-.071.36.36,0,0,0-.068-.5c-.058-.043-5.817-4.345-13.49-.194v-3.356l.03-.012c7.416-4.208,12.981-.071,13.034-.028a.348.348,0,0,0,.493-.069.363.363,0,0,0-.068-.5c-.058-.043-5.817-4.346-13.49-.194v-2.587c1.4-2.016,4.564-3.316,8.107-3.316a11.413,11.413,0,0,1,6.9,2.064,5.884,5.884,0,0,1,1.213,1.252v17.808c-1.711-1.8-4.762-2.916-8.109-2.916s-6.4,1.12-8.107,2.916Z" transform="translate(0 0)" fill="#e60012"/>
    <g id="グループ_41" data-name="グループ 41" transform="translate(165.514 560.208)">
      <g id="グループ_40" data-name="グループ 40">
        <path id="パス_68" data-name="パス 68" d="M167.945,558.778c.873.632,1.067,1.785-.04,3.148s-2.331,1.489-3.21.85-1.067-1.78.038-3.141,2.334-1.489,3.212-.857m-3.262,3.442a.308.308,0,0,0,.116.4.358.358,0,0,0,.445,0l0,0,2.623-3.24.009,0,.007-.012a.3.3,0,0,0-.1-.436.343.343,0,0,0-.466.024l-.012.017h0l-2.627,3.235,0,.01" transform="translate(-159.04 -558.411)" fill="#e60012"/>
        <path id="パス_69" data-name="パス 69" d="M163.631,563.642c-1.07-.154-1.872-1.091-1.728-2.847s1.072-2.447,2.142-2.3,1.867,1.094,1.725,2.843-1.07,2.454-2.14,2.305m.741-4.646a.364.364,0,0,0-.32-.31.314.314,0,0,0-.369.218l-.007,0-.331,4.158,0,.012-.007.012a.357.357,0,0,0,.324.343.3.3,0,0,0,.372-.249l0-.019,0,0,.334-4.156,0,0" transform="translate(-161.887 -558.323)" fill="#e60012"/>
      </g>
    </g>
    <g id="グループ_43" data-name="グループ 43" transform="translate(181.56 568.483)">
      <g id="グループ_42" data-name="グループ 42">
        <path id="パス_70" data-name="パス 70" d="M176.953,567.147a.172.172,0,0,1-.08.154,11.729,11.729,0,0,1-7.986,0,.17.17,0,0,1-.078-.154.153.153,0,0,1,.149-.154h2.667c-1.039-.651-1.619-2.175-1.619-4.4,0-.379,1.309-.684,2.918-.684s2.916.305,2.916.684c0,.291-.012.568-.031.836l.592-.05,0,.007a.227.227,0,0,1,.038-.01.425.425,0,0,1,.4.45.443.443,0,0,1-.182.365l0,.007-1.193,1.027a3.2,3.2,0,0,1-1.252,1.771h2.58A.154.154,0,0,1,176.953,567.147Zm-1.5-4.211a9.4,9.4,0,0,0-5.051,0,9.594,9.594,0,0,0,5.051,0" transform="translate(-168.809 -561.907)" fill="#e60012"/>
      </g>
    </g>
  </g>
</svg>
