<?xml version="1.0" encoding="utf-8"?>
<!-- Generator: Adobe Illustrator 23.1.0, SVG Export Plug-In . SVG Version: 6.00 Build 0)  -->
<svg version="1.1" id="icon-customer-factory" xmlns="http://www.w3.org/2000/svg" xmlns:xlink="http://www.w3.org/1999/xlink"
	 x="0px" y="0px" width="50px" height="48.6px" viewBox="0 0 50 48.6" enable-background="new 0 0 50 48.6" xml:space="preserve">
<path id="bg" fill="#FFFFFF" d="M50,43.9c-4.3,0.5-5.6-3.8-6-5.6c7.8-10.9,5.3-26.1-5.7-33.9c-10.9-7.7-26-5.2-33.8,5.8
	c-7.8,10.9-5.3,26.1,5.7,33.9c8.1,5.8,18.9,6,27.3,0.6C41.5,46.6,46.2,46.3,50,43.9z"/>
<path id="factory" fill="#E60012" d="M42.1,16.1L42.1,16.1L42.1,16.1l-3.3,2.3l-1.9,1.3v-2.3v-1.3l0,0l0,0l-3.3,2.3l-1.9,1.3v-2.3
	v-1.3l0,0l0,0l-4.6,3.2l-3.5,2.5H22h-1.3l0.7-0.5l5.1-3.6c-1.1-3.1-1.7-6.4-1.8-9.7c0-0.5-0.7-0.8-3.3-0.8s-4,0.4-4,0.8
	c0,0.3,0,0.6,0,0.9l0,0c-0.1,3.4-0.8,6.8-1.9,10c-0.1,0.2-0.1,0.4-0.2,0.5c-0.1,0.3-0.2,0.6-0.3,0.8c-0.1,0.4-0.3,0.7-0.4,1.1
	c0,0.1-0.1,0.2-0.1,0.3h-6c-0.3,0-0.6,0.3-0.6,0.6v11.9c0,0.4,0.3,0.7,0.6,0.7l0,0h21.8h0.1l0,0l0,0v-5.3h3.1v5.4l0,0l0,0h1.2l0,0
	l0,0l0,0v-5.4H38v5.4l0,0l0,0h3.4c0.3,0,0.6-0.3,0.6-0.6V22.7L42.1,16.1z M38,26.5V28h-7.6v-1.6H38V26.5z M20.6,24.7v2.7h-4.1v-2.7
	H20.6z M15.3,24.7v2.7h-4.1v-2.7H15.3z"/>
</svg>
