<?xml version="1.0" encoding="utf-8"?>
<!-- Generator: Adobe Illustrator 22.0.0, SVG Export Plug-In . SVG Version: 6.00 Build 0)  -->
<svg version="1.1" id="レイヤー_1" xmlns="http://www.w3.org/2000/svg" xmlns:xlink="http://www.w3.org/1999/xlink" x="0px"
	 y="0px" viewBox="0 0 60 60" style="enable-background:new 0 0 60 60;" xml:space="preserve">
<style type="text/css">
	.st0{fill-rule:evenodd;clip-rule:evenodd;fill:#FFFFFF;}
	.st1{fill:#E60012;}
</style>
<g>
	<path class="st0" d="M30.1,1.5c15.9,0,28.8,12.9,28.8,28.8c0,15.9-12.9,28.8-28.8,28.8c-15.9,0-28.8-12.9-28.8-28.8
		C1.3,14.4,14.2,1.5,30.1,1.5z"/>
	<path class="st1" d="M23.6,37.9c0.8,3.7,2.2,7,4.1,9.5l0,0.1l0.1,0.2c0.1,0,0.1,0,0.2,0c0.6,0,1.3,0.1,2,0.1c0.9,0,1.9-0.1,3-0.3
		c1.8-2.7,3.2-6,4-9.6H23.6z"/>
	<path class="st1" d="M14.1,37.9c2.2,4.4,6.1,7.7,10.9,9.1c-1.6-2.6-2.8-5.8-3.5-9.1H14.1z"/>
	<path class="st1" d="M20.7,30c0-1.9,0.2-3.8,0.5-5.8h-7.9c-0.7,1.9-1,3.8-1,5.8c0,1.9,0.3,3.9,1,5.8h7.9
		C20.8,33.8,20.7,31.9,20.7,30z"/>
	<path class="st1" d="M25,13c-4.7,1.4-8.7,4.7-10.9,9.1h7.4C22.2,18.8,23.4,15.7,25,13z"/>
	<path class="st1" d="M37,22.1c-0.8-3.7-2.2-7-4.1-9.5c-1-0.3-2-0.3-2.9-0.3c-0.8,0-1.5,0.1-2.2,0.2c0,0.1,0,0.1-0.1,0.2
		c-1.8,2.6-3.2,5.8-4.1,9.5H37z"/>
	<path class="st1" d="M22.8,30c0,1.9,0.2,3.8,0.5,5.8h14.1c0.3-2,0.5-3.9,0.5-5.8c0-1.9-0.2-3.8-0.5-5.8H23.2
		C22.9,26.2,22.8,28.1,22.8,30z"/>
	<path class="st1" d="M35.8,13.3c1.5,2.6,2.7,5.6,3.3,8.9h6.7C43.8,18,40.1,14.8,35.8,13.3z"/>
	<path class="st1" d="M30,0C13.4,0,0,13.4,0,30c0,16.6,13.4,30,30,30c16.6,0,30-13.4,30-30C60,13.4,46.6,0,30,0z M30,49.8
		c-10.9,0-19.8-8.9-19.8-19.8c0-10.9,8.9-19.8,19.8-19.8c10.9,0,19.8,8.9,19.8,19.8C49.8,40.9,40.9,49.8,30,49.8z"/>
	<path class="st1" d="M39.9,30c0,1.9-0.2,3.8-0.5,5.8h7.2c0.7-1.9,1-3.8,1-5.8c0-1.9-0.3-3.9-1-5.8h-7.2
		C39.8,26.2,39.9,28.1,39.9,30z"/>
	<path class="st1" d="M35.8,46.7c4.4-1.5,8-4.7,10.1-8.9h-6.7C38.4,41.1,37.3,44.2,35.8,46.7z"/>
</g>
</svg>
