<?xml version="1.0" encoding="utf-8"?>
<!-- Generator: Adobe Illustrator 22.0.0, SVG Export Plug-In . SVG Version: 6.00 Build 0)  -->
<svg version="1.1" id="レイヤー_1" xmlns="http://www.w3.org/2000/svg" xmlns:xlink="http://www.w3.org/1999/xlink" x="0px"
	 y="0px" viewBox="0 0 46 46" style="enable-background:new 0 0 46 46;" xml:space="preserve">
<style type="text/css">
	.st0{fill-rule:evenodd;clip-rule:evenodd;fill:#7CBA27;}
</style>
<g>
	<g>
		<path class="st0" d="M24.1,21.7c-0.3-0.1-0.4-0.3-0.5-0.5c0-0.1-0.1-0.2-0.2-0.2h-0.8c-0.1,0-0.2,0.1-0.2,0.2
			c-0.1,0.3-0.3,0.4-0.5,0.5c-0.1,0-0.2,0.1-0.2,0.2v0.8c0,0.1,0.1,0.2,0.2,0.2c0.3,0.1,0.4,0.3,0.5,0.5c0,0.1,0.1,0.2,0.2,0.2h0.8
			c0.1,0,0.2-0.1,0.2-0.2c0.1-0.3,0.3-0.4,0.5-0.5c0.1,0,0.2-0.1,0.2-0.2V22C24.3,21.8,24.3,21.8,24.1,21.7z M23.7,22.6
			c0,0.1,0,0.1-0.1,0.1c-0.1,0-0.2,0.1-0.3,0.3c0,0.1-0.1,0.1-0.1,0.1h-0.4c-0.1,0-0.1,0-0.1-0.1c0-0.1-0.1-0.2-0.3-0.3
			c-0.1,0-0.1-0.1-0.1-0.1v-0.4c0-0.1,0-0.1,0.1-0.1c0.1,0,0.2-0.1,0.3-0.3c0-0.1,0.1-0.1,0.1-0.1h0.4c0.1,0,0.1,0,0.1,0.1
			c0,0.1,0.1,0.2,0.3,0.3c0.1,0,0.1,0.1,0.1,0.1V22.6z M20.9,16.5c-1.9,0.3-0.3-1.6,0.6-2.7h-6.6c-0.4,0-0.7,0.6-0.8,0.9l-1.7,3.5
			c0.2,0,0.4,0,0.6,0h8.3C21.8,17.2,22.1,16.3,20.9,16.5z M28,26.7H18c-0.1,0-0.2,0.1-0.2,0.2V29c0,0.1,0.1,0.2,0.2,0.2H28
			c0.1,0,0.2-0.1,0.2-0.2v-2.1C28.3,26.8,28.2,26.7,28,26.7z M17.6,21.8l-3.8-0.5c-0.8-0.1-2-0.4-2,0.9c0,0.6,0.5,1,1,1h4.8
			C18.8,23.2,19,22,17.6,21.8z M13,22.6c0,0.1-0.1,0.1-0.2,0.1h-0.1c-0.3,0-0.6-0.3-0.6-0.6c0-0.5,0.3-0.6,0.7-0.6
			c0.1,0,0.1,0,0.2,0.1c0,0.1,0.1,0.1,0,0.2c0,0.1,0,0.2,0,0.3c0,0.1,0,0.2,0.1,0.3C13.1,22.5,13.1,22.6,13,22.6z M33.1,18.2
			c0.2,0,0.4,0,0.6,0L32,14.8c-0.1-0.3-0.4-0.9-0.8-0.9H23c-0.7,0.9-1.3,2,1.4,1.2c2.8-0.9,3.3,1.5,3.4,3.2H33.1z M32.3,21.3
			l-3.8,0.5c-1.5,0.2-1.2,1.4,0,1.4h4.8c0.6,0,1-0.5,1-1C34.3,20.9,33.1,21.2,32.3,21.3z M33.1,22.7H33c-0.1,0-0.2,0-0.2-0.1
			c0-0.1,0-0.2,0-0.2c0-0.1,0.1-0.2,0.1-0.3c0-0.1,0-0.2,0-0.3c0-0.1,0-0.1,0-0.2c0-0.1,0.1-0.1,0.2-0.1c0.4,0,0.7,0.1,0.7,0.6
			C33.7,22.5,33.4,22.7,33.1,22.7z M23,0C10.3,0,0,10.3,0,23c0,12.7,10.3,23,23,23c12.7,0,23-10.3,23-23C46,10.3,35.7,0,23,0z
			 M12,32.9c0,0.2-0.1,0.4-0.3,0.4H9.2c-0.2,0-0.3-0.2-0.3-0.4v-2.6c0.2,0.1,0.3,0.1,0.5,0.1H12V32.9z M16.3,31.1
			c0,0.2-0.1,0.4-0.3,0.4h-2c-0.1,0-0.3-0.2-0.3-0.4v-0.7h2.5V31.1z M32.2,31.1c0,0.2-0.1,0.4-0.3,0.4h-2c-0.1,0-0.3-0.2-0.3-0.4
			v-0.7h2.5V31.1z M37.1,32.9c0,0.2-0.1,0.4-0.3,0.4h-2.5c-0.2,0-0.3-0.2-0.3-0.4v-2.5h2.6c0.2,0,0.4-0.1,0.5-0.1V32.9z M37.7,28.9
			c0,0.6-0.5,1.1-1.1,1.1H9.4c-0.6,0-1.1-0.5-1.1-1.1V27c0-0.6,0.5-1.1,1.1-1.1h27.3c0.6,0,1.1,0.5,1.1,1.1V28.9z M38.3,18.4
			c0,0.4-0.3,0.7-0.7,0.7h-0.9c0,0.2-0.1,0.4-0.2,0.6c0-0.1-0.1-0.1-0.2-0.1c0.4,0.4,0.8,0.9,0.8,1.6v3.8c0,0.3,0,0.5-0.1,0.8
			c-0.1-0.1-0.3-0.1-0.4-0.1H9.4c-0.2,0-0.3,0-0.4,0.1c-0.1-0.3-0.1-0.5-0.1-0.8v-3.8c0-0.7,0.3-1.2,0.8-1.6c-0.1,0-0.1,0.1-0.2,0.1
			c-0.1-0.2-0.2-0.4-0.2-0.6H8.4c-0.4,0-0.7-0.3-0.7-0.7v-0.4c0-0.4,0.3-0.7,0.7-0.7h1.3c0.4,0,0.7,0.3,0.7,0.7v0.4
			c0,0.3-0.2,0.5-0.4,0.6c0,0.1,0,0.1,0.1,0.2c0,0-0.1,0.1-0.1,0.1c0.8-0.6,1.9-0.9,1.9-0.9c0-0.1,0-0.2,0.1-0.3l1.7-3.5
			c0.3-0.6,0.6-1.2,1.3-1.2h0.2c0.4-0.1,1.9-0.4,3.7-0.5c2.1-0.1,6.3-0.1,8.4,0c1.8,0.1,3.3,0.4,3.7,0.5h0.2c0.7,0,1,0.6,1.3,1.2
			l1.7,3.5c0,0.1,0.1,0.2,0.1,0.3c0,0,1,0.3,1.9,0.9c0,0-0.1-0.1-0.1-0.1c0-0.1,0-0.1,0-0.2c-0.3-0.1-0.4-0.3-0.4-0.6v-0.4
			c0-0.4,0.3-0.7,0.7-0.7h1.3c0.4,0,0.7,0.3,0.7,0.7V18.4z"/>
	</g>
</g>
</svg>
