<svg xmlns="http://www.w3.org/2000/svg" width="38" height="38.632" viewBox="0 0 38 38.632">
  <g id="グループ_32" data-name="グループ 32" transform="translate(-160.37 -513.248)">
    <path id="パス_56" data-name="パス 56" d="M165.6,519.982a1.884,1.884,0,0,0,1.884-1.887v-2.963a1.884,1.884,0,0,0-3.767,0V518.1A1.884,1.884,0,0,0,165.6,519.982Z" transform="translate(6.885 0)" fill="#e60012"/>
    <path id="パス_57" data-name="パス 57" d="M170.185,519.982a1.884,1.884,0,0,0,1.884-1.887v-2.963a1.884,1.884,0,0,0-3.767,0V518.1A1.884,1.884,0,0,0,170.185,519.982Z" transform="translate(16.295 0)" fill="#e60012"/>
    <path id="パス_58" data-name="パス 58" d="M193.043,514.133h-3.007v2.177a3.562,3.562,0,1,1-7.124,0v-2.177h-6.856v2.177a3.562,3.562,0,1,1-7.124,0v-2.177h-3.239a5.326,5.326,0,0,0-5.324,5.329v25.289a5.326,5.326,0,0,0,5.324,5.329h27.35a5.327,5.327,0,0,0,5.327-5.329V519.462A5.327,5.327,0,0,0,193.043,514.133Zm2.735,30.618a2.739,2.739,0,0,1-2.735,2.736h-27.35a2.736,2.736,0,0,1-2.732-2.736V522.827h32.817Z" transform="translate(0 1.8)" fill="#e60012"/>
    <rect id="長方形_40" data-name="長方形 40" width="4.768" height="4.768" transform="translate(173.264 542.17)" fill="#e60012"/>
    <rect id="長方形_41" data-name="長方形 41" width="4.768" height="4.768" transform="translate(173.264 534.692)" fill="#e60012"/>
    <rect id="長方形_42" data-name="長方形 42" width="4.767" height="4.768" transform="translate(165.783 542.17)" fill="#e60012"/>
    <rect id="長方形_43" data-name="長方形 43" width="4.767" height="4.768" transform="translate(165.783 534.692)" fill="#e60012"/>
    <rect id="長方形_44" data-name="長方形 44" width="4.767" height="4.767" transform="translate(188.188 527.25)" fill="#e60012"/>
    <rect id="長方形_45" data-name="長方形 45" width="4.768" height="4.767" transform="translate(180.707 527.25)" fill="#e60012"/>
    <path id="パス_59" data-name="パス 59" d="M173.38,521.235l-1.418-1.1-2.582,3.322-1.533-1.226-1.122,1.4,2.954,2.364Z" transform="translate(13.069 14.154)" fill="#e60012"/>
    <rect id="長方形_46" data-name="長方形 46" width="4.767" height="4.768" transform="translate(188.188 534.692)" fill="#e60012"/>
    <rect id="長方形_47" data-name="長方形 47" width="4.768" height="4.768" transform="translate(180.707 542.17)" fill="#e60012"/>
    <rect id="長方形_48" data-name="長方形 48" width="4.768" height="4.767" transform="translate(173.264 527.25)" fill="#e60012"/>
  </g>
</svg>
