<?xml version="1.0" encoding="utf-8"?>
<!-- Generator: Adobe Illustrator 22.0.0, SVG Export Plug-In . SVG Version: 6.00 Build 0)  -->
<svg version="1.1" id="レイヤー_1" xmlns="http://www.w3.org/2000/svg" xmlns:xlink="http://www.w3.org/1999/xlink" x="0px"
	 y="0px" viewBox="0 0 60 60" style="enable-background:new 0 0 60 60;" xml:space="preserve">
<style type="text/css">
	.st0{fill:#FFFFFF;}
</style>
<g>
	<g>
		<path class="st0" d="M31.6,43.1h11.5V30.9H31.6V43.1z M32.5,35.7C32.5,35.7,32.6,35.7,32.5,35.7l1.7,0c-0.2,0.7-0.4,1.3-0.5,1.9
			c0,0.1-0.1,0.2,0,0.3c0,0.1,0.1,0.2,0.2,0.2c0.1,0,0.2,0,0.4-0.1c0.1-0.1,0.2-0.2,0.3-0.4c0.3-0.6,0.4-1.3,0.7-2h1
			c-0.2,0.8-0.4,1.5-0.7,2.3c0,0.1,0,0.1,0,0.2c0,0,0.1,0,0.2,0c0.1-0.1,0.1-0.2,0.2-0.3l0,0h0.1l0,0c0-0.5,0.1-0.8,0.3-1.2
			c0.2-0.4,0.5-0.6,0.8-0.8c0.5-0.3,1.2-0.4,1.7-0.1c0,0,0.2,0.1,0.2-0.1l0.5,0c0,0,0,0,0,0.1L39,36.9c0,0,0,0,0,0
			c0.4-0.8,1-1.3,1.7-1.3c0.2,0,0.4,0,0.6,0.1c0.1,0,0.2,0.1,0.4,0.1c0.1,0,0.1-0.1,0.1-0.1l0.5,0c0,0,0,0,0,0.1L41.9,37
			c0,0,0,0-0.1,0l-0.6,0l0,0c0.1-0.3,0.2-0.7-0.1-0.8c-0.5-0.3-0.9,0.3-1.1,0.7c-0.2,0.4-0.4,1.2,0,1.4c0.4,0.2,0.8-0.2,1-0.6
			c0,0,0,0,0,0c0.2,0,0.4,0,0.5,0c0,0,0,0,0,0c-0.2,0.6-0.6,0.9-0.8,1.1c-0.4,0.3-0.9,0.3-1.3,0.2c-0.3-0.1-0.5-0.4-0.6-0.7
			c-0.1-0.4-0.1-0.8,0.1-1.2c0-0.1,0,0,0,0h-0.6l0,0c0-0.2,0.1-0.5,0.1-0.6c-0.1-0.2-0.2-0.2-0.3-0.2c-0.4,0-0.7,0.3-0.9,0.6
			c-0.2,0.4-0.4,0.8-0.3,1.3c0,0.2,0.2,0.3,0.4,0.4c0.4,0.1,0.7-0.3,0.9-0.7h0.6c0,0,0,0,0,0c-0.3,1-1.3,1.6-2.2,1.3
			c-0.3-0.1-0.5-0.3-0.6-0.6c0,0,0,0,0,0c-0.3,0.5-0.7,0.8-1.2,0.7c-0.2-0.1-0.3-0.3-0.3-0.6c0,0,0,0,0,0c-0.3,0.4-0.8,0.7-1.3,0.6
			c-0.4,0-0.6-0.4-0.6-0.8c0.1-0.7,0.3-1.1,0.5-1.8c0.1-0.2-0.2-0.2-0.2-0.2s-0.4,0-0.4,0c-0.1,0-0.1-0.1-0.1-0.1L32.5,35.7z M30,0
			C13.4,0,0,13.4,0,30c0,16.6,13.4,30,30,30c16.6,0,30-13.4,30-30C60,13.4,46.6,0,30,0z M14.1,22.9h12v1.2h-12V22.9z M27.4,27.5
			v15.9c0,0.6-0.2,1.4-0.6,1.6c-0.9,0.4-0.6,1.2-1.5,1.2H15c-1,0-0.6-0.7-1.5-1.2c-0.4-0.2-0.6-1-0.6-1.6V27.5c0-0.5,0-0.6,0.1-1
			c0.2-0.3,1.4-2,1.4-2h11.4c0,0,1.2,1.6,1.4,2C27.4,26.9,27.4,27,27.4,27.5z M34.4,11.6h6v2h-6V11.6z M44.6,44.3c0,1.1-0.9,2-2,2
			H32.1c-1.1,0-2-0.9-2-2c0,0,0-14.2,0-16.9c0-5.5,4.3-6.7,4.3-9.8c0-1.4,0-2.6,0-2.6h6c0,0,0,1.2,0,2.6c0,3.1,4.3,4.3,4.3,9.8
			C44.6,30.1,44.6,44.3,44.6,44.3z M25.3,29.1l-0.5,0c0,0-0.1,0.1-0.1,0.1c-0.1,0-0.2-0.1-0.4-0.1c-0.2-0.1-0.4-0.1-0.6-0.1
			c-0.7,0.1-1.3,0.6-1.7,1.3c0,0,0,0,0,0l0.4-1.2c0,0,0-0.1,0-0.1l-0.5,0c-0.1,0.2-0.2,0.1-0.2,0.1c-0.5-0.3-1.2-0.2-1.7,0.1
			c-0.3,0.2-0.6,0.5-0.8,0.8c-0.2,0.4-0.3,0.7-0.3,1.2l0,0h-0.1l0,0c0,0.1-0.1,0.2-0.2,0.3c-0.1,0-0.1,0.1-0.2,0c0,0-0.1-0.1,0-0.2
			c0.2-0.8,0.5-1.5,0.6-2.3h-1c-0.2,0.7-0.3,1.4-0.7,2c-0.1,0.1-0.1,0.3-0.3,0.4c-0.1,0.1-0.2,0.1-0.4,0.1c-0.1,0-0.1-0.1-0.2-0.2
			c0-0.1,0-0.2,0-0.3c0.2-0.7,0.4-1.3,0.5-1.9l-1.7,0c0,0,0,0-0.1,0l-0.1,0.4c0,0,0,0.1,0.1,0.1c0.1,0,0.4,0,0.4,0s0.3,0,0.2,0.2
			c-0.1,0.6-0.4,1.1-0.5,1.8c0,0.4,0.2,0.8,0.6,0.8c0.5,0.1,1-0.2,1.3-0.6c0,0,0,0,0,0c0,0.3,0.1,0.5,0.3,0.6
			c0.5,0.2,0.9-0.2,1.2-0.7c0,0,0,0,0,0c0.1,0.3,0.3,0.5,0.6,0.6c0.9,0.3,1.8-0.3,2.2-1.3c0,0,0,0,0,0h-0.6
			c-0.2,0.3-0.5,0.8-0.9,0.7c-0.2,0-0.3-0.2-0.4-0.4c-0.1-0.5,0.1-0.9,0.3-1.3c0.2-0.3,0.5-0.7,0.9-0.6c0.1,0,0.3,0.1,0.3,0.2
			c0.1,0.2,0,0.5-0.1,0.6l0,0l0.6,0c0,0,0,0,0,0c-0.1,0.4-0.2,0.8-0.1,1.2c0.1,0.3,0.3,0.6,0.6,0.7c0.4,0.1,0.9,0.1,1.3-0.2
			c0.2-0.1,0.6-0.5,0.8-1.1c0,0,0,0,0,0c-0.2,0-0.4,0-0.5,0c0,0,0,0,0,0c-0.2,0.4-0.6,0.8-1,0.6c-0.5-0.2-0.3-1,0-1.4
			c0.2-0.4,0.7-1,1.1-0.7c0.3,0.1,0.2,0.5,0.1,0.8l0,0l0.6,0c0,0,0.1,0,0.1,0L25.3,29.1C25.3,29.1,25.3,29.1,25.3,29.1z"/>
	</g>
</g>
</svg>
