<svg xmlns="http://www.w3.org/2000/svg" width="49.896" height="49.896" viewBox="0 0 49.896 49.896">
  <g id="グループ_18" data-name="グループ 18" transform="translate(-257.825 -343.916)">
    <path id="パス_52" data-name="パス 52" d="M24.948,0A24.948,24.948,0,1,1,0,24.948,24.948,24.948,0,0,1,24.948,0Z" transform="translate(257.825 343.916)" fill="#e60012"/>
    <g id="グループ_16" data-name="グループ 16" transform="translate(269.665 368.769)">
      <path id="パス_50" data-name="パス 50" d="M301.189,386.943,303.4,389.8h-2.858l-1.121-1.443a6.7,6.7,0,0,1-7.846-1.209,6.675,6.675,0,0,1,1.41-10.452,6.46,6.46,0,0,1,3.308-.9,6.3,6.3,0,0,1,4.636,1.948,6.771,6.771,0,0,1,.264,9.2Zm-1.508-1.949a4.4,4.4,0,0,0,.767-2.517,4.242,4.242,0,0,0-1.216-3.06,3.944,3.944,0,0,0-2.943-1.258,4,4,0,0,0-2.977,1.223,4.26,4.26,0,0,0-1.2,3.113,4.055,4.055,0,0,0,1.511,3.328,4.159,4.159,0,0,0,2.685.956,3.948,3.948,0,0,0,1.624-.337l-2.27-2.921h2.879Z" transform="translate(-295.68 -382.797)" fill="#fff"/>
    </g>
    <g id="グループ_17" data-name="グループ 17" transform="translate(289.468 361.99)">
      <path id="パス_51" data-name="パス 51" d="M318.152,397.557h2.7l5.384,14h-2.769l-1.1-2.884h-5.712l-1.139,2.884h-2.769Zm1.367,3.712-1.877,4.806h3.744Z" transform="translate(-312.753 -397.557)" fill="#fff"/>
    </g>
    <text id="_" data-name="&amp;" transform="translate(278.825 373.916)" fill="#fff" font-size="12" font-family="Futura-Medium, Futura" font-weight="500"><tspan x="0" y="0">&amp;</tspan></text>
  </g>
</svg>
