<svg xmlns="http://www.w3.org/2000/svg" width="35.383" height="34.88" viewBox="0 0 35.383 34.88">
  <g id="グループ_183" data-name="グループ 183" transform="translate(-719.565 -656.642)">
    <path id="パス_134" data-name="パス 134" d="M737.338,661.75l-.042-.032c-.222-.146-.45-.281-.682-.4l-.129-.071c-.225-.119-.455-.227-.689-.327l-.144-.058c-.24-.1-.484-.185-.733-.261l-.083-.025a9.334,9.334,0,0,0-3.1-.361c-.085,0-.171.012-.257.02-.149.01-.3.012-.445.029a9.162,9.162,0,0,0-7.973,9.074,9.638,9.638,0,0,0,3.789,7.657,5.341,5.341,0,0,1,.746,1.961,6.725,6.725,0,0,0,1.388,3.1.833.833,0,0,0,.582.232h5.328a.825.825,0,0,0,.584-.234,6.779,6.779,0,0,0,1.388-3.093,5.384,5.384,0,0,1,.746-1.961,9.643,9.643,0,0,0,3.786-7.657,9.074,9.074,0,0,0-2.684-6.469A9.178,9.178,0,0,0,737.338,661.75ZM736.089,675.2a5.946,5.946,0,0,0-1.5,3.161c-.213.82-.535,2.059-.917,2.059h-2.884c-.384,0-.707-1.239-.922-2.059a5.924,5.924,0,0,0-1.5-3.161,7.335,7.335,0,0,1-2.958-5.867,6.817,6.817,0,0,1,13.634,0A7.326,7.326,0,0,1,736.089,675.2Z" transform="translate(5.029 5.154)" fill="#e60012"/>
    <path id="パス_135" data-name="パス 135" d="M725.56,669.676a3.049,3.049,0,0,0,6.1.088l0-.078h0l0-.01Z" transform="translate(8.647 18.796)" fill="#e60012"/>
    <path id="パス_136" data-name="パス 136" d="M727.3,661.46a.534.534,0,0,0,.534-.534l.3-3.452a.832.832,0,0,0-1.664,0l.3,3.452A.534.534,0,0,0,727.3,661.46Z" transform="translate(9.956 0)" fill="#e60012"/>
    <path id="パス_137" data-name="パス 137" d="M725.236,661.551l-2.23-2.652c-.027-.024-.061-.036-.088-.059a.84.84,0,0,0-.1-.063.76.76,0,0,0-.2-.08.569.569,0,0,0-.09-.017.722.722,0,0,0-.229,0,.547.547,0,0,0-.088.017.771.771,0,0,0-.2.08.793.793,0,0,0-.1.063c-.029.022-.063.034-.09.059a.835.835,0,0,0,0,1.178l2.649,2.227a.534.534,0,0,0,.756-.754Z" transform="translate(2.911 2.919)" fill="#e60012"/>
    <path id="パス_138" data-name="パス 138" d="M723.846,663.845l-3.449-.3a.832.832,0,1,0,0,1.664l3.449-.3a.534.534,0,0,0,0-1.068Z" transform="translate(0 9.957)" fill="#e60012"/>
    <path id="パス_139" data-name="パス 139" d="M733.944,658.84a.649.649,0,0,0-.1-.063.756.756,0,0,0-.2-.08.57.57,0,0,0-.09-.017.722.722,0,0,0-.229,0,.531.531,0,0,0-.088.017.776.776,0,0,0-.2.08.817.817,0,0,0-.1.063c-.029.022-.064.034-.09.059l-2.23,2.652a.534.534,0,0,0,.756.754l2.649-2.227a.835.835,0,0,0,0-1.178C734.007,658.875,733.973,658.862,733.944,658.84Z" transform="translate(15.737 2.919)" fill="#e60012"/>
    <path id="パス_140" data-name="パス 140" d="M736.065,663.547l-3.449.3a.534.534,0,0,0,0,1.068l3.449.3a.832.832,0,0,0,0-1.664Z" transform="translate(18.051 9.957)" fill="#e60012"/>
  </g>
</svg>
