<?xml version="1.0" encoding="utf-8"?>
<!-- Generator: Adobe Illustrator 22.0.0, SVG Export Plug-In . SVG Version: 6.00 Build 0)  -->
<svg version="1.0" id="レイヤー_1" xmlns="http://www.w3.org/2000/svg" xmlns:xlink="http://www.w3.org/1999/xlink" x="0px"
	 y="0px" viewBox="0 0 30 30" style="enable-background:new 0 0 30 30;" xml:space="preserve">
<path d="M24.7,10c0,1.4-0.2,2.6-0.6,3.5l-6.9,15.1c-0.2,0.4-0.5,0.8-0.9,1C15.9,29.9,15.5,30,15,30s-0.9-0.1-1.3-0.4
	c-0.4-0.2-0.7-0.6-0.9-1L5.9,13.5c-0.4-0.9-0.6-2.1-0.6-3.5c0-2.8,1-5.1,2.9-7.1C10,1,12.3,0,15,0c2.7,0,5,1,6.9,2.9
	C23.8,4.9,24.7,7.2,24.7,10z M19.9,10c0-1.4-0.5-2.6-1.4-3.5c-1-1-2.1-1.5-3.4-1.5c-1.3,0-2.5,0.5-3.4,1.5c-1,1-1.4,2.2-1.4,3.5
	c0,1.4,0.5,2.6,1.4,3.5c1,1,2.1,1.5,3.4,1.5c1.3,0,2.5-0.5,3.4-1.5C19.4,12.6,19.9,11.4,19.9,10z" fill="#e60012"/>
</svg>
