<?xml version="1.0" encoding="utf-8"?>
<!-- Generator: Adobe Illustrator 23.0.0, SVG Export Plug-In . SVG Version: 6.00 Build 0)  -->
<svg version="1.1" id="レイヤー_1" xmlns="http://www.w3.org/2000/svg" xmlns:xlink="http://www.w3.org/1999/xlink" x="0px"
	 y="0px" viewBox="0 0 64 64" style="enable-background:new 0 0 64 64;" xml:space="preserve">
<style type="text/css">
	.st0{fill-rule:evenodd;clip-rule:evenodd;fill:#e60012;}
</style>
<g>
	<rect x="25" y="30" class="st0" width="14" height="2"/>
	<path class="st0" d="M32,27h0.5H42v-5H32V27z M33,23h8v1h-8V23z"/>
	<path class="st0" d="M31,22H21v5h0.5H31V22z M30,24h-8v-1h8V24z"/>
	<polygon class="st0" points="25,36 31,36 31,40 33,40 33,36 39,36 39,34 25,34 	"/>
	<polygon class="st0" points="44,21 42,19 22,19 20,21 21,21 	"/>
	<path class="st0" d="M32,0C14.3,0,0,14.3,0,32c0,17.7,14.3,32,32,32s32-14.3,32-32C64,14.3,49.7,0,32,0z M47,16h-2v24
		c0,1.1-0.9,2-2,2h-6v6h7v2H20v-2h7v-6h-6c-1.1,0-2-0.9-2-2V16h-2v-2h30V16z"/>
</g>
</svg>
