<?xml version="1.0" encoding="utf-8"?>
<!-- Generator: Adobe Illustrator 22.0.0, SVG Export Plug-In . SVG Version: 6.00 Build 0)  -->
<svg version="1.0" id="レイヤー_1" xmlns="http://www.w3.org/2000/svg" xmlns:xlink="http://www.w3.org/1999/xlink" x="0px"
	 y="0px" viewBox="0 0 30 30" style="enable-background:new 0 0 30 30;" xml:space="preserve">
<path d="M11.1,18.8c2.1,0,4-0.7,5.5-2.2c1.5-1.5,2.3-3.3,2.3-5.4c0-2.1-0.8-4-2.3-5.5c-1.5-1.5-3.3-2.3-5.5-2.3
	C9,3.4,7.1,4.2,5.7,5.7C4.2,7.2,3.4,9,3.4,11.2c0,2.1,0.7,3.9,2.2,5.4C7.1,18.1,9,18.8,11.1,18.8z M21.4,18.8l8.6,8.6L27.4,30
	l-8.5-8.6v-1.3l-0.5-0.5c-2.1,1.8-4.5,2.7-7.3,2.7c-3.1,0-5.7-1.1-7.9-3.2C1.1,16.9,0,14.2,0,11.2c0-3.1,1.1-5.7,3.2-7.9
	C5.4,1.1,8,0,11,0c3.1,0,5.7,1.1,7.9,3.3c2.2,2.2,3.2,4.8,3.2,7.9c0,2.8-0.9,5.2-2.7,7.3l0.5,0.4H21.4z" fill="#fff"/>
</svg>
