<?xml version="1.0" encoding="utf-8"?>
<!-- Generator: Adobe Illustrator 23.0.0, SVG Export Plug-In . SVG Version: 6.00 Build 0)  -->
<svg version="1.1" id="レイヤー_1" xmlns="http://www.w3.org/2000/svg" xmlns:xlink="http://www.w3.org/1999/xlink" x="0px"
	 y="0px" viewBox="0 0 64 64" style="enable-background:new 0 0 64 64;" xml:space="preserve">
<style type="text/css">
	.st0{fill-rule:evenodd;clip-rule:evenodd;fill:#e60012;}
</style>
<path class="st0" d="M32,0C14.3,0,0,14.3,0,32c0,17.7,14.3,32,32,32s32-14.3,32-32C64,14.3,49.7,0,32,0z M46.2,48
	c-0.9,0.9-1.8,1.7-2.6,2.6c-1.2,1.3-2.7,1.8-4.4,1.7c-2.5-0.1-4.8-1-7-2c-4.9-2.4-9.1-5.7-12.6-9.9c-2.6-3.1-4.7-6.5-6.2-10.2
	c-0.7-1.8-1.2-3.7-1-5.7c0.1-1.2,0.6-2.3,1.5-3.1c1-0.9,1.9-1.9,2.9-2.8c1.2-1.2,2.8-1.2,4.1,0c0.8,0.8,1.5,1.5,2.3,2.3
	c0.7,0.8,1.5,1.5,2.2,2.2c1.3,1.3,1.3,2.9,0,4.2c-0.9,0.9-1.9,1.9-2.8,2.8c-0.2,0.2-0.3,0.4-0.1,0.8c0.6,1.5,1.5,2.8,2.6,4.1
	c2,2.5,4.4,4.7,7.1,6.5c0.6,0.4,1.2,0.6,1.9,1c0.3,0.2,0.5,0.1,0.8-0.1c0.9-1,1.9-1.9,2.8-2.8c1.2-1.2,2.8-1.2,4.1,0
	c1.5,1.5,3.1,3,4.6,4.6C47.5,45.1,47.5,46.7,46.2,48z M39,27c-1.2-1.2-2.9-1.7-4.6-1.5c-0.7,0.1-1.4-0.4-1.5-1.2
	c-0.1-0.7,0.5-1.4,1.2-1.5c2.6-0.3,5,0.5,6.8,2.3c1.8,1.8,2.6,4.3,2.3,6.8c0,0.3-0.2,0.6-0.4,0.8c0,0-0.1,0.1-0.1,0.1
	c-0.3,0.2-0.6,0.3-1,0.3c-0.7-0.1-1.3-0.8-1.2-1.5C40.8,29.8,40.2,28.2,39,27z M49.9,32.8c0,0.3-0.2,0.6-0.4,0.8
	c-0.3,0.3-0.7,0.4-1.1,0.4c-0.7-0.1-1.3-0.8-1.2-1.5c0.5-3.9-0.7-7.6-3.4-10.3c-2.7-2.7-6.4-3.9-10.3-3.4c-0.7,0.1-1.4-0.4-1.5-1.2
	c-0.1-0.7,0.5-1.4,1.2-1.5c4.7-0.6,9.3,0.9,12.5,4.2C48.9,23.6,50.5,28.1,49.9,32.8z"/>
</svg>
