<svg xmlns="http://www.w3.org/2000/svg" width="193.5" height="46.502" viewBox="0 0 193.5 46.502">
  <g id="logo" transform="translate(0.031)">
    <path id="パス_650" data-name="パス 650" d="M16.366,146.795c-1.494,3.342-2.011,3.505-5.612,3.505-2.593,0-3.115-.259-3.5-.713-.486-.549-.554-1.716-.554-3.342V134.863c0-3.373.291-3.469,1.816-3.7l.713-.127a.64.64,0,0,0-.064-.94c-1.426.064-2.888.1-4.313.1-1.494,0-2.951-.032-4.572-.1-.291.132-.291.776-.064.94l.908.127c1.526.227,1.816.327,1.816,3.7v12.064c0,3.373-.291,3.469-1.816,3.664l-.976.163c-.291.163-.2.813.064.94,1.362-.064,2.983-.1,4.636-.1H8.22c3.632,0,6.42.032,7.782.1a30.473,30.473,0,0,0,1.362-4.7A.863.863,0,0,0,16.366,146.795Z" transform="translate(0 -124.193)"/>
    <path id="パス_651" data-name="パス 651" d="M325.148,103.6c-1.457,0-1.848.972-1.848,1.526a1.14,1.14,0,0,0,1,1.167,1.817,1.817,0,0,1,1.753,1.684c0,1.426-1.23,2.37-2.629,2.951a.77.77,0,0,0,.227.844c2.238-.549,4.445-2.365,4.445-4.831A3.233,3.233,0,0,0,325.148,103.6Z" transform="translate(-308.65 -98.896)"/>
    <path id="パス_652" data-name="パス 652" d="M534.2,13.9C534.2,6.77,529.5,0,520.134,0A14.015,14.015,0,0,0,505.7,14.311c0,7.3,5.43,13.743,14.429,13.743A13.844,13.844,0,0,0,534.2,13.9Zm-24.445-.89c0-8.876,5.476-11.755,9.689-11.755,7.741,0,10.7,7.215,10.7,13.9,0,7.986-4.622,11.632-9.485,11.632C512.674,26.8,509.754,19.01,509.754,13.012Z" transform="translate(-482.769)"/>
    <path id="パス_653" data-name="パス 653" d="M1224.082,137.109c-.908,2.107-2.692,4.831-6.779,4.831-4.182,0-8.495-3.373-8.495-10.279,0-6.647,4.15-9.566,8.268-9.566a5.951,5.951,0,0,1,6.293,4.736.837.837,0,0,0,1.04-.064c-.322-2.4-.391-4.313-.454-5.058-.291-.064-.518-.1-.908-.2a24.937,24.937,0,0,0-5.612-.713,15.026,15.026,0,0,0-8.949,2.756,10.579,10.579,0,0,0-4.086,8.595,10.211,10.211,0,0,0,4.6,8.917,14.752,14.752,0,0,0,8.3,2.17,19.337,19.337,0,0,0,5.058-.776c.359-.1.745-.227,1.135-.291a12.59,12.59,0,0,0,1.557-4.931A.652.652,0,0,0,1224.082,137.109Z" transform="translate(-1149.746 -115.315)"/>
    <path id="パス_654" data-name="パス 654" d="M1719.782,137.109c-.908,2.107-2.692,4.831-6.779,4.831-4.182,0-8.495-3.373-8.495-10.279,0-6.647,4.15-9.566,8.268-9.566a5.951,5.951,0,0,1,6.293,4.736.836.836,0,0,0,1.04-.064c-.322-2.4-.39-4.313-.454-5.058-.291-.064-.518-.1-.908-.2a24.94,24.94,0,0,0-5.612-.713,15.025,15.025,0,0,0-8.949,2.756,10.579,10.579,0,0,0-4.086,8.595,10.212,10.212,0,0,0,4.6,8.917,14.752,14.752,0,0,0,8.3,2.17,19.338,19.338,0,0,0,5.058-.776c.359-.1.745-.227,1.135-.291a12.594,12.594,0,0,0,1.557-4.931A.653.653,0,0,0,1719.782,137.109Z" transform="translate(-1622.94 -115.315)"/>
    <path id="パス_655" data-name="パス 655" d="M2192.414,150.654l-.713.1c-.227.227-.2.813.063.94,1.426-.064,2.951-.1,4.377-.1s2.888.032,4.313.1c.259-.127.29-.713.063-.94l-.713-.1c-1.526-.2-1.816-.291-1.816-3.728V134.863c0-3.437.291-3.532,1.816-3.728l.713-.1c.227-.227.2-.813-.063-.94-1.426.064-2.888.1-4.313.1-1.489,0-2.951-.032-4.377-.1a.693.693,0,0,0-.063.94l.713.1c1.526.2,1.816.291,1.816,3.728v12.064C2194.23,150.363,2193.94,150.463,2192.414,150.654Z" transform="translate(-2092.075 -124.193)"/>
    <path id="パス_656" data-name="パス 656" d="M2444.637,132.139l-1.167-.132c-1.525-.163-1.816-.259-1.816-3.7V114.3c0-1.362.031-1.426.876-1.426h1.848c3.469,0,4.086.617,4.508,3.146a.769.769,0,0,0,1-.1,23.054,23.054,0,0,1,.486-5.158.516.516,0,0,0-.422-.163.962.962,0,0,0-.39.127c-.39.745-.876.844-2.465.844h-13.23c-2.207,0-2.661-.032-2.82-.844a.377.377,0,0,0-.322-.127.415.415,0,0,0-.359.127c-.227,1.135-.713,3.146-1.267,4.9a.815.815,0,0,0,1.04.227c1.2-2.629,2.075-2.983,5.058-2.983h1.816c.845,0,.876.064.876,1.426v14.011c0,3.437-.291,3.537-1.816,3.664l-1.362.163a.7.7,0,0,0,.063.94c2.075-.064,3.6-.1,5.027-.1s2.887.032,4.767.1C2444.832,132.952,2444.864,132.366,2444.637,132.139Z" transform="translate(-2318.841 -105.578)"/>
    <path id="パス_657" data-name="パス 657" d="M2842.34,141.685l-.486-.1c-1.653-.291-1.816-.518-2.561-2.692l-4.672-13.589c-.518-1.457-.94-2.983-1.458-4.445a.645.645,0,0,0-.55-.259,5.659,5.659,0,0,1-2.27,1.557,5.185,5.185,0,0,1-.618,2.37l-4.445,11.546c-.681,1.753-1.2,3.115-1.589,3.955-.486,1.071-.844,1.362-1.784,1.494l-.971.163a.725.725,0,0,0,.032.94c1.135-.064,2.138-.1,3.21-.1,1.33.032,2.4.032,3.437.1.259-.127.291-.713.063-.94l-.94-.163c-1.2-.163-1.33-.259-.681-2.17l1.331-3.891c.291-.876.259-.876,1.1-.876h4.313c.908,0,1,0,1.331.876l1.525,4.409c.422,1.394.322,1.589-.844,1.716l-.713.1a.74.74,0,0,0,.1.94c1.135-.032,2.561-.1,3.955-.1,1.689,0,2.888.032,4.218.1A.7.7,0,0,0,2842.34,141.685Zm-9.957-8.563h-3.374c-.776,0-.876,0-.518-.94l1.362-3.8c.586-1.526.845-2.334.972-2.561h.063a15.086,15.086,0,0,1,.908,2.561l1.362,3.891C2833.423,133.059,2833.291,133.122,2832.383,133.122Z" transform="translate(-2692.739 -115.124)"/>
    <path id="パス_658" data-name="パス 658" d="M3319.189,130c-1.267,0-2.465-.032-3.727-.1-.323.1-.359.713-.063.94l.744.1c.813.132,1.33.322,1.621.813.585.972.617,3.955.617,6.388v6.325c0,.518,0,.681-.1.776-.327-.2-3.342-3.632-4.7-5.121l-3.242-3.505c-1.135-1.23-4.672-5.317-5.221-6.715-.777.064-1.557.1-2.239.1-.813,0-2.593.032-3.827-.1-.327.1-.359.745-.132.94l.486.1a5.255,5.255,0,0,1,1.721.649c1.1.94,1.071,1.457,1.071,3.986v7.687c0,2.561,0,5.385-.422,6.388-.227.518-.813.649-1.426.745l-.713.163a.665.665,0,0,0,.063.94c1.135-.064,2.011-.1,3.373-.1,1.23,0,2.5.032,3.7.1.327-.1.359-.713.063-.94l-.713-.1c-.813-.127-1.362-.322-1.653-.813-.549-.972-.586-3.955-.586-6.388v-6.311c0-1.716,0-2.075.1-2.075.549.486,1.589,1.721,3.7,4.086l7.587,8.658c2.334,2.661,3.274,3.764,3.8,4.445a1.242,1.242,0,0,0,1.1-.454c-.1-.745-.1-4.736-.1-5.707v-7.755c0-2.561,0-5.385.454-6.388.227-.518.776-.649,1.394-.745l.745-.163a.665.665,0,0,0-.064-.94C3321.427,129.968,3320.583,130,3319.189,130Z" transform="translate(-3149.03 -124.002)"/>
    <path id="パス_659" data-name="パス 659" d="M3879.259,146.795c-1.135,2.629-1.848,3.569-5.966,3.505-2.724,0-3.273-.259-3.664-.713-.486-.549-.549-1.716-.549-3.373V142.1c0-.813.032-.876.777-.876h1.557c2.819,0,3.373.064,3.6,1.426l.227,1.3a.926.926,0,0,0,1.04-.032c-.032-1.04-.1-2.17-.1-3.405,0-1.2.063-2.366.1-3.242-.163-.259-.777-.259-1.04-.032l-.227,1.1c-.227,1.394-.776,1.426-3.6,1.426h-1.558c-.744,0-.776-.032-.776-.876v-5.48c0-1.848,0-1.911,1.394-1.911h2.171a9.478,9.478,0,0,1,2.593.291c1.04.259,1.525,1.072,2.043,2.951.259.2.908.127,1.04-.127-.2-1.394-.391-3.959-.518-4.509-.422.064-2.3.1-4.377.1h-6.2c-1.426,0-2.951-.032-4.182-.1a.693.693,0,0,0-.063.94l.518.064c1.526.227,1.816.322,1.816,3.759v12.064c0,3.437-.291,3.537-1.816,3.7l-1.2.132c-.227.227-.2.813.063.94,1.457-.064,3.437-.1,4.863-.1h3.7c3.8,0,6.583.032,8.009.1a20.841,20.841,0,0,0,1.362-4.7A.771.771,0,0,0,3879.259,146.795Z" transform="translate(-3686.825 -124.193)"/>
    <path id="パス_660" data-name="パス 660" d="M772.585,803.155c-.84,1.725-1.362,1.771-2.688,1.771-1.117,0-1.408-.123-1.6-.4a2.788,2.788,0,0,1-.245-1.453v-1.821c0-.459.014-.472.427-.472h1.053c.794,0,.963.123,1.13.858l.077.381a.444.444,0,0,0,.568-.014c-.032-.49-.045-1.04-.045-1.621s.014-1.131.045-1.621c-.077-.136-.459-.136-.568-.013l-.077.381c-.168.736-.336.84-1.13.84h-1.053c-.413,0-.427-.032-.427-.459v-2.674c0-.568,0-.595.5-.595h1.221a2.028,2.028,0,0,1,1.5.472,3.5,3.5,0,0,1,.581,1.208c.154.136.5.109.568-.059-.077-1.026-.186-2.125-.2-2.37-.2.032-1.072.045-2.048.045h-3.237c-.736,0-1.485-.014-2.2-.045a.385.385,0,0,0-.032.536l.381.077c.686.123.781.232.781,1.621v5.7c0,1.407-.091,1.512-.781,1.6l-.717.109a.436.436,0,0,0,0,.536c1.144-.032,1.893-.045,2.629-.045h1.989c1.253,0,2.72.014,3.532.045a8.6,8.6,0,0,0,.64-2.447A.377.377,0,0,0,772.585,803.155Z" transform="translate(-729.604 -759.382)"/>
    <path id="パス_661" data-name="パス 661" d="M1011.289,795.545c-.626,0-1.221-.014-2.048-.045a.488.488,0,0,0,0,.536l.413.063c.413.077.749.168.885.49a10.723,10.723,0,0,1,.227,2.8v2.107a2.285,2.285,0,0,1-.059.69c-.35-.35-.781-.885-1.467-1.68l-1.285-1.512c-1.376-1.635-2.37-2.8-2.52-3.482-.322.032-.763.045-1.285.045-.627,0-1.389-.013-2.107-.045-.154.045-.168.413-.063.536l.427.064c.536.109.763.259.872.518a3.112,3.112,0,0,1,.109,1.3v3.882a11.816,11.816,0,0,1-.213,2.8c-.136.322-.427.413-.84.5l-.259.045a.488.488,0,0,0,0,.536c.581-.032,1.144-.045,1.712-.045.613,0,1.221.014,2.048.045a.488.488,0,0,0,0-.536l-.427-.063c-.4-.077-.749-.168-.885-.49a10.729,10.729,0,0,1-.227-2.8v-2.965a2.649,2.649,0,0,1,.077-.976,18.283,18.283,0,0,1,1.666,1.957l3.532,4.372c.717.885,1.221,1.666,1.24,1.666a1.22,1.22,0,0,0,.9-.35c-.032-.5-.032-1.466-.032-2.461v-3.655a10.668,10.668,0,0,1,.232-2.8c.136-.322.427-.413.826-.5l.277-.045a.488.488,0,0,0,0-.536C1012.406,795.527,1011.853,795.545,1011.289,795.545Z" transform="translate(-956.454 -759.382)"/>
    <path id="パス_662" data-name="パス 662" d="M1426.286,795.9a7.8,7.8,0,0,0-2.8-.4c-1.33,0-2.52.064-3.532.136-.168.109-.168.445-.032.518l.472.064c.64.091.672.259.672,1.8v5.412c0,1.421-.091,1.53-.781,1.648l-.427.077c-.168.077-.136.427.032.518.826-.032,1.557-.045,2.293-.045s1.48.014,2.338.045a.329.329,0,0,0,0-.518l-.49-.077c-.69-.123-.781-.227-.781-1.648V796.98c0-.613.032-.781.595-.781,1.376,0,1.957,1.221,1.957,2.352s-.259,2.034-1.526,2.429a.292.292,0,0,0,.045.413c.168.014.3.014.49.014.808,0,3.333-.368,3.333-2.874A2.7,2.7,0,0,0,1426.286,795.9Z" transform="translate(-1355.319 -759.382)"/>
    <path id="パス_663" data-name="パス 663" d="M1668.811,804.758c-.736-.627-1.362-1.771-2.37-3.818-.077-.168-.077-.259.077-.336a2.461,2.461,0,0,0,1.621-2.293,2.5,2.5,0,0,0-1.344-2.261,6.469,6.469,0,0,0-3-.549c-1.453,0-2.642.064-3.791.136a.346.346,0,0,0-.032.536l.413.064c.64.091.672.259.672,1.789v5.412c0,1.407-.091,1.512-.781,1.635l-.413.077a.436.436,0,0,0,0,.536c.795-.032,1.467-.045,2.229-.045.735,0,1.435.014,2.247.045a.48.48,0,0,0,0-.536l-.413-.077c-.69-.123-.781-.232-.781-1.635v-1.88c0-.3.032-.336.568-.336a.773.773,0,0,1,.808.536,18.983,18.983,0,0,0,1.194,2.37,3.121,3.121,0,0,0,2.965,1.6,3.774,3.774,0,0,0,1.208-.136.291.291,0,0,0-.064-.4A1.954,1.954,0,0,1,1668.811,804.758Zm-3.546-4.645a1.47,1.47,0,0,1-1.162.427c-.9,0-.949-.045-.949-.581V796.98c.032-.736.032-.781.658-.781a2.018,2.018,0,0,1,2,2.261A2.19,2.19,0,0,1,1665.265,800.113Z" transform="translate(-1584.445 -759.382)"/>
    <path id="パス_664" data-name="パス 664" d="M1919.158,791.1a5.262,5.262,0,0,0-5.458,5.367,4.99,4.99,0,0,0,5.3,5.212c3.287,0,5.516-2,5.516-5.335A5.054,5.054,0,0,0,1919.158,791.1Zm.136,9.871c-2.493,0-3.151-3-3.151-4.858,0-2.552,1.008-4.309,2.888-4.309s3.042,2.125,3.042,4.74C1922.072,799.014,1921.3,800.971,1919.294,800.971Z" transform="translate(-1826.842 -755.182)"/>
    <path id="パス_665" data-name="パス 665" d="M2192.875,795.545c-.581,0-1.162-.014-1.879-.045-.182.077-.182.4-.063.518l.445.109c.368.077.413.154.413.259a1.956,1.956,0,0,1-.154.549c-.182.518-.808,2.229-1.208,3.2l-.568,1.435c-.186.458-.368.872-.49,1.13-.109-.259-.259-.613-.472-1.176l-1.344-3.437a12.678,12.678,0,0,1-.613-1.68c0-.136.109-.232.381-.291l.459-.091c.091-.136.109-.427-.014-.518-.931.032-1.589.045-2.293.045-.795,0-1.3-.032-2.08-.045a.387.387,0,0,0-.063.518l.427.109c.736.182.7.123,1.33,1.666l2.474,6.22c.214.518.472,1.33.641,1.744a.631.631,0,0,0,.413.123,1.016,1.016,0,0,0,.535-.123c.35-.854.763-2.061,1.544-3.914l1.117-2.643a18.358,18.358,0,0,1,1.267-2.57,1.112,1.112,0,0,1,.84-.536l.4-.077c.109-.091.09-.459-.032-.518C2193.852,795.527,2193.393,795.545,2192.875,795.545Z" transform="translate(-2084.165 -759.382)"/>
    <path id="パス_666" data-name="パス 666" d="M2458.99,803.155c-.84,1.725-1.362,1.771-2.688,1.771-1.117,0-1.408-.123-1.6-.4a2.787,2.787,0,0,1-.245-1.453v-1.821c0-.459.014-.472.427-.472h1.053c.795,0,.963.123,1.131.858l.077.381a.444.444,0,0,0,.567-.014c-.032-.49-.045-1.04-.045-1.621s.014-1.131.045-1.621c-.077-.136-.459-.136-.567-.013l-.077.381c-.168.736-.336.84-1.131.84h-1.053c-.413,0-.427-.032-.427-.459v-2.674c0-.568,0-.595.5-.595h1.221a2.028,2.028,0,0,1,1.5.472,3.507,3.507,0,0,1,.581,1.208c.154.136.5.109.567-.059-.077-1.026-.186-2.125-.2-2.37-.2.032-1.072.045-2.048.045h-3.241c-.731,0-1.48-.014-2.2-.045a.385.385,0,0,0-.032.536l.381.077c.686.123.781.232.781,1.621v5.7c0,1.407-.091,1.512-.781,1.6l-.717.109a.436.436,0,0,0,0,.536c1.144-.032,1.893-.045,2.629-.045h1.989c1.253,0,2.719.014,3.532.045a8.591,8.591,0,0,0,.64-2.447A.371.371,0,0,0,2458.99,803.155Z" transform="translate(-2339.437 -759.382)"/>
    <path id="パス_667" data-name="パス 667" d="M2697.89,795.545c-.627,0-1.221-.014-2.048-.045a.488.488,0,0,0,0,.536l.413.063c.413.077.749.168.885.49a10.717,10.717,0,0,1,.227,2.8v2.107a2.3,2.3,0,0,1-.059.69c-.35-.35-.781-.885-1.467-1.68l-1.285-1.512c-1.376-1.635-2.37-2.8-2.52-3.482-.322.032-.762.045-1.285.045-.626,0-1.389-.013-2.107-.045-.154.045-.168.413-.063.536l.427.064c.536.109.763.259.872.518a3.109,3.109,0,0,1,.109,1.3v3.882a11.812,11.812,0,0,1-.213,2.8c-.136.322-.427.413-.84.5l-.259.045a.489.489,0,0,0,0,.536c.581-.032,1.144-.045,1.712-.045.613,0,1.221.014,2.047.045a.487.487,0,0,0,0-.536l-.427-.063c-.4-.077-.749-.168-.885-.49a10.726,10.726,0,0,1-.227-2.8v-2.965a2.641,2.641,0,0,1,.077-.976,18.318,18.318,0,0,1,1.666,1.957l3.532,4.372c.718.885,1.221,1.666,1.24,1.666a1.22,1.22,0,0,0,.9-.35c-.032-.5-.032-1.466-.032-2.461v-3.655a10.67,10.67,0,0,1,.232-2.8c.136-.322.427-.413.826-.5l.277-.045a.488.488,0,0,0,0-.536C2699.007,795.527,2698.453,795.545,2697.89,795.545Z" transform="translate(-2566.477 -759.382)"/>
    <path id="パス_668" data-name="パス 668" d="M2995.253,798.41a3.306,3.306,0,0,1-3.119,2.37c-1.834,0-3.591-1.635-3.591-4.676s1.821-4.495,3.514-4.495a2.774,2.774,0,0,1,2.874,2.184.419.419,0,0,0,.581-.109,20.589,20.589,0,0,1-.181-2.384,18.468,18.468,0,0,0-3.146-.4,6.7,6.7,0,0,0-4.236,1.362,5.048,5.048,0,0,0-1.848,4.05,4.8,4.8,0,0,0,1.938,4,7,7,0,0,0,4.114,1.162,11.254,11.254,0,0,0,3.1-.568,6.807,6.807,0,0,0,.581-2.4A.452.452,0,0,0,2995.253,798.41Z" transform="translate(-2850.552 -754.991)"/>
    <path id="パス_669" data-name="パス 669" d="M3253.285,803.155c-.84,1.725-1.362,1.771-2.688,1.771-1.117,0-1.408-.123-1.6-.4a2.79,2.79,0,0,1-.245-1.453v-1.821c0-.459.014-.472.427-.472h1.053c.795,0,.963.123,1.131.858l.077.381a.444.444,0,0,0,.567-.014c-.032-.49-.045-1.04-.045-1.621s.013-1.131.045-1.621c-.077-.136-.458-.136-.567-.013l-.077.381c-.168.736-.336.84-1.131.84h-1.053c-.413,0-.427-.032-.427-.459v-2.674c0-.568,0-.595.5-.595h1.221a2.028,2.028,0,0,1,1.5.472,3.5,3.5,0,0,1,.581,1.208c.154.136.5.109.568-.059-.077-1.026-.186-2.125-.2-2.37-.2.032-1.071.045-2.048.045h-3.237c-.735,0-1.484-.014-2.2-.045a.385.385,0,0,0-.032.536l.381.077c.686.123.781.232.781,1.621v5.7c0,1.407-.091,1.512-.781,1.6l-.718.109a.437.437,0,0,0,0,.536c1.144-.032,1.894-.045,2.629-.045h1.988c1.253,0,2.72.014,3.532.045a8.606,8.606,0,0,0,.64-2.447A.377.377,0,0,0,3253.285,803.155Z" transform="translate(-3097.673 -759.382)"/>
  </g>
</svg>
